Amaranth-Italic.ufo
<glyph name="exclam" format="1">
  <advance width="330"/>
  <unicode hex="0021"/>
  <outline>
    <contour>
      <point x="107" y="220" type="line"/>
      <point x="203" y="220" type="line"/>
      <point x="315" y="669" type="line"/>
      <point x="191" y="669" type="line"/>
    </contour>
    <contour>
      <point x="138" y="143" type="curve" smooth="yes"/>
      <point x="87" y="143"/>
      <point x="56" y="104"/>
      <point x="56" y="59" type="curve" smooth="yes"/>
      <point x="56" y="18"/>
      <point x="78" y="-11"/>
      <point x="124" y="-11" type="curve" smooth="yes"/>
      <point x="175" y="-11"/>
      <point x="207" y="28"/>
      <point x="207" y="73" type="curve" smooth="yes"/>
      <point x="207" y="116"/>
      <point x="184" y="143"/>
    </contour>
  </outline>
</glyph>
<glyph name="quotedbl" format="1">
  <advance width="386"/>
  <unicode hex="0022"/>
  <outline>
    <contour>
      <point x="119" y="669" type="line"/>
      <point x="80" y="426" type="line"/>
      <point x="158" y="426" type="line"/>
      <point x="212" y="669" type="line"/>
    </contour>
    <contour>
      <point x="283" y="669" type="line"/>
      <point x="244" y="426" type="line"/>
      <point x="322" y="426" type="line"/>
      <point x="376" y="669" type="line"/>
    </contour>
  </outline>
</glyph>
<glyph name="numbersign" format="1">
  <advance width="619"/>
  <unicode hex="0023"/>
  <outline>
    <contour>
      <point x="86" y="376" type="line"/>
      <point x="191" y="376" type="line"/>
      <point x="143" y="221" type="line"/>
      <point x="45" y="221" type="line"/>
      <point x="20" y="144" type="line"/>
      <point x="119" y="144" type="line"/>
      <point x="74" y="0" type="line"/>
      <point x="157" y="0" type="line"/>
      <point x="202" y="144" type="line"/>
      <point x="317" y="144" type="line"/>
      <point x="272" y="0" type="line"/>
      <point x="354" y="0" type="line"/>
      <point x="399" y="144" type="line"/>
      <point x="497" y="144" type="line"/>
      <point x="523" y="221" type="line"/>
      <point x="423" y="221" type="line"/>
      <point x="471" y="376" type="line"/>
      <point x="564" y="376" type="line"/>
      <point x="589" y="454" type="line"/>
      <point x="496" y="454" type="line"/>
      <point x="539" y="590" type="line"/>
      <point x="457" y="590" type="line"/>
      <point x="413" y="454" type="line"/>
      <point x="299" y="454" type="line"/>
      <point x="342" y="590" type="line"/>
      <point x="259" y="590" type="line"/>
      <point x="216" y="454" type="line"/>
      <point x="112" y="454" type="line"/>
    </contour>
    <contour>
      <point x="225" y="221" type="line"/>
      <point x="274" y="376" type="line"/>
      <point x="389" y="376" type="line"/>
      <point x="340" y="221" type="line"/>
    </contour>
  </outline>
</glyph>
<glyph name="percent" format="1">
  <advance width="846"/>
  <unicode hex="0025"/>
  <outline>
    <contour>
      <point x="174" y="231" type="curve" smooth="yes"/>
      <point x="297" y="231"/>
      <point x="366" y="339"/>
      <point x="366" y="470" type="curve" smooth="yes"/>
      <point x="366" y="532"/>
      <point x="337" y="591"/>
      <point x="247" y="591" type="curve" smooth="yes"/>
      <point x="124" y="591"/>
      <point x="55" y="484"/>
      <point x="55" y="351" type="curve" smooth="yes"/>
      <point x="55" y="290"/>
      <point x="83" y="231"/>
    </contour>
    <contour>
      <point x="234" y="521" type="curve" smooth="yes"/>
      <point x="255" y="521"/>
      <point x="268" y="509"/>
      <point x="268" y="475" type="curve" smooth="yes"/>
      <point x="268" y="405"/>
      <point x="233" y="301"/>
      <point x="185" y="301" type="curve" smooth="yes"/>
      <point x="164" y="301"/>
      <point x="153" y="312"/>
      <point x="153" y="346" type="curve" smooth="yes"/>
      <point x="153" y="417"/>
      <point x="186" y="521"/>
    </contour>
    <contour>
      <point x="579" y="-3" type="curve" smooth="yes"/>
      <point x="702" y="-3"/>
      <point x="771" y="105"/>
      <point x="771" y="236" type="curve" smooth="yes"/>
      <point x="771" y="297"/>
      <point x="742" y="357"/>
      <point x="652" y="357" type="curve" smooth="yes"/>
      <point x="529" y="357"/>
      <point x="460" y="250"/>
      <point x="460" y="117" type="curve" smooth="yes"/>
      <point x="460" y="55"/>
      <point x="488" y="-3"/>
    </contour>
    <contour>
      <point x="639" y="287" type="curve" smooth="yes"/>
      <point x="661" y="287"/>
      <point x="673" y="274"/>
      <point x="673" y="241" type="curve" smooth="yes"/>
      <point x="673" y="171"/>
      <point x="638" y="67"/>
      <point x="590" y="67" type="curve" smooth="yes"/>
      <point x="569" y="67"/>
      <point x="558" y="77"/>
      <point x="558" y="112" type="curve" smooth="yes"/>
      <point x="558" y="183"/>
      <point x="591" y="287"/>
    </contour>
    <contour>
      <point x="173" y="0" type="line"/>
      <point x="272" y="0" type="line"/>
      <point x="648" y="587" type="line"/>
      <point x="548" y="587" type="line"/>
    </contour>
  </outline>
</glyph>
<glyph name="ampersand" format="1">
  <advance width="554"/>
  <unicode hex="0026"/>
  <outline>
    <contour>
      <point x="460" y="513" type="line"/>
      <point x="436" y="558"/>
      <point x="404" y="595"/>
      <point x="338" y="595" type="curve" smooth="yes"/>
      <point x="206" y="595"/>
      <point x="143" y="510"/>
      <point x="143" y="420" type="curve" smooth="yes"/>
      <point x="143" y="402"/>
      <point x="145" y="384"/>
      <point x="151" y="366" type="curve"/>
      <point x="62" y="318"/>
      <point x="5" y="255"/>
      <point x="5" y="141" type="curve" smooth="yes"/>
      <point x="5" y="51"/>
      <point x="72" y="-6"/>
      <point x="164" y="-6" type="curve" smooth="yes"/>
      <point x="249" y="-6"/>
      <point x="317" y="25"/>
      <point x="372" y="72" type="curve"/>
      <point x="398" y="46"/>
      <point x="424" y="21"/>
      <point x="449" y="-5" type="curve"/>
      <point x="514" y="62" type="line"/>
      <point x="487" y="89"/>
      <point x="463" y="115"/>
      <point x="439" y="141" type="curve"/>
      <point x="467" y="178"/>
      <point x="491" y="218"/>
      <point x="512" y="258" type="curve"/>
      <point x="439" y="307" type="line"/>
      <point x="420" y="279"/>
      <point x="397" y="246"/>
      <point x="373" y="216" type="curve"/>
      <point x="304" y="297"/>
      <point x="257" y="371"/>
      <point x="257" y="429" type="curve" smooth="yes"/>
      <point x="257" y="470"/>
      <point x="281" y="502"/>
      <point x="330" y="502" type="curve" smooth="yes"/>
      <point x="359" y="502"/>
      <point x="380" y="483"/>
      <point x="390" y="462" type="curve"/>
    </contour>
    <contour>
      <point x="304" y="142" type="curve"/>
      <point x="271" y="112"/>
      <point x="236" y="92"/>
      <point x="202" y="92" type="curve" smooth="yes"/>
      <point x="151" y="92"/>
      <point x="125" y="125"/>
      <point x="125" y="167" type="curve" smooth="yes"/>
      <point x="125" y="221"/>
      <point x="146" y="254"/>
      <point x="185" y="290" type="curve"/>
      <point x="214" y="241"/>
      <point x="257" y="191"/>
    </contour>
  </outline>
</glyph>
<glyph name="quotesingle" format="1">
  <advance width="222"/>
  <unicode hex="0027"/>
  <outline>
    <contour>
      <point x="119" y="669" type="line"/>
      <point x="80" y="426" type="line"/>
      <point x="158" y="426" type="line"/>
      <point x="212" y="669" type="line"/>
    </contour>
  </outline>
</glyph>
<glyph name="parenright" format="1">
  <advance width="365"/>
  <unicode hex="0029"/>
  <outline>
    <contour>
      <point x="310" y="405" type="curve" smooth="yes"/>
      <point x="310" y="566"/>
      <point x="226" y="684"/>
      <point x="177" y="726" type="curve"/>
      <point x="108" y="665" type="line"/>
      <point x="145" y="626"/>
      <point x="200" y="538"/>
      <point x="200" y="395" type="curve" smooth="yes"/>
      <point x="200" y="202"/>
      <point x="114" y="-2"/>
      <point x="-40" y="-116" type="curve"/>
      <point x="8" y="-184" type="line"/>
      <point x="200" y="-51"/>
      <point x="310" y="181"/>
    </contour>
  </outline>
</glyph>
<glyph name="asterisk" format="1">
  <advance width="427"/>
  <unicode hex="002A"/>
  <outline>
    <contour>
      <point x="80" y="526" type="line"/>
      <point x="176" y="492" type="line"/>
      <point x="85" y="405" type="line"/>
      <point x="149" y="349" type="line"/>
      <point x="227" y="448" type="line"/>
      <point x="279" y="346" type="line"/>
      <point x="355" y="394" type="line"/>
      <point x="294" y="490" type="line"/>
      <point x="417" y="525" type="line"/>
      <point x="395" y="606" type="line"/>
      <point x="284" y="562" type="line"/>
      <point x="314" y="670" type="line"/>
      <point x="227" y="679" type="line"/>
      <point x="211" y="562" type="line"/>
      <point x="113" y="604" type="line"/>
    </contour>
  </outline>
</glyph>
<glyph name="comma" format="1">
  <advance width="248"/>
  <unicode hex="002C"/>
  <outline>
    <contour>
      <point x="30" y="56" type="curve" smooth="yes"/>
      <point x="30" y="11"/>
      <point x="14" y="-43"/>
      <point x="-60" y="-92" type="curve"/>
      <point x="-27" y="-147" type="line"/>
      <point x="50" y="-110"/>
      <point x="148" y="-11"/>
      <point x="148" y="86" type="curve" smooth="yes"/>
      <point x="148" y="119"/>
      <point x="133" y="140"/>
      <point x="95" y="140" type="curve" smooth="yes"/>
      <point x="49" y="140"/>
      <point x="27" y="122"/>
      <point x="27" y="122" type="curve"/>
      <point x="29" y="105"/>
      <point x="30" y="82"/>
    </contour>
  </outline>
</glyph>
<glyph name="hyphen" format="1">
  <advance width="370"/>
  <unicode hex="002D"/>
  <outline>
    <contour>
      <point x="40" y="274" type="line"/>
      <point x="314" y="274" type="line"/>
      <point x="330" y="357" type="line"/>
      <point x="57" y="357" type="line"/>
    </contour>
  </outline>
</glyph>
<glyph name="period" format="1">
  <advance width="231"/>
  <unicode hex="002E"/>
  <outline>
    <contour>
      <point x="76" y="143" type="curve" smooth="yes"/>
      <point x="26" y="143"/>
      <point x="-5" y="104"/>
      <point x="-5" y="59" type="curve" smooth="yes"/>
      <point x="-5" y="18"/>
      <point x="17" y="-11"/>
      <point x="63" y="-11" type="curve" smooth="yes"/>
      <point x="114" y="-11"/>
      <point x="146" y="28"/>
      <point x="146" y="73" type="curve" smooth="yes"/>
      <point x="146" y="116"/>
      <point x="123" y="143"/>
    </contour>
  </outline>
</glyph>
<glyph name="slash" format="1">
  <advance width="401"/>
  <unicode hex="002F"/>
  <outline>
    <contour>
      <point x="-79" y="-126" type="line"/>
      <point x="33" y="-126" type="line"/>
      <point x="502" y="729" type="line"/>
      <point x="387" y="729" type="line"/>
    </contour>
  </outline>
</glyph>
<glyph name="zero" format="1">
  <advance width="573"/>
  <unicode hex="0030"/>
  <outline>
    <contour>
      <point x="351" y="634" type="curve" smooth="yes"/>
      <point x="144" y="634"/>
      <point x="40" y="420"/>
      <point x="40" y="179" type="curve" smooth="yes"/>
      <point x="40" y="57"/>
      <point x="100" y="-13"/>
      <point x="222" y="-13" type="curve" smooth="yes"/>
      <point x="429" y="-13"/>
      <point x="533" y="202"/>
      <point x="533" y="442" type="curve" smooth="yes"/>
      <point x="533" y="564"/>
      <point x="473" y="634"/>
    </contour>
    <contour>
      <point x="335" y="547" type="curve" smooth="yes"/>
      <point x="393" y="547"/>
      <point x="411" y="493"/>
      <point x="411" y="424" type="curve" smooth="yes"/>
      <point x="411" y="263"/>
      <point x="349" y="74"/>
      <point x="238" y="74" type="curve" smooth="yes"/>
      <point x="180" y="74"/>
      <point x="162" y="128"/>
      <point x="162" y="197" type="curve" smooth="yes"/>
      <point x="162" y="358"/>
      <point x="224" y="547"/>
    </contour>
  </outline>
</glyph>
<glyph name="two" format="1">
  <advance width="499"/>
  <unicode hex="0032"/>
  <outline>
    <contour>
      <point x="124" y="497" type="line"/>
      <point x="185" y="528"/>
      <point x="223" y="546"/>
      <point x="274" y="546" type="curve" smooth="yes"/>
      <point x="318" y="546"/>
      <point x="333" y="521"/>
      <point x="333" y="482" type="curve" smooth="yes"/>
      <point x="333" y="408"/>
      <point x="282" y="362"/>
      <point x="156" y="243" type="curve" smooth="yes"/>
      <point x="-5" y="91" type="line"/>
      <point x="-5" y="0" type="line"/>
      <point x="380" y="0" type="line"/>
      <point x="398" y="91" type="line"/>
      <point x="135" y="91" type="line"/>
      <point x="257" y="204" type="line" smooth="yes"/>
      <point x="375" y="315"/>
      <point x="459" y="388"/>
      <point x="459" y="500" type="curve" smooth="yes"/>
      <point x="459" y="584"/>
      <point x="402" y="633"/>
      <point x="296" y="633" type="curve" smooth="yes"/>
      <point x="228" y="633"/>
      <point x="165" y="613"/>
      <point x="92" y="577" type="curve"/>
    </contour>
  </outline>
</glyph>
<glyph name="three" format="1">
  <advance width="486"/>
  <unicode hex="0033"/>
  <outline>
    <contour>
      <point x="287" y="634" type="curve" smooth="yes"/>
      <point x="207" y="634"/>
      <point x="158" y="613"/>
      <point x="84" y="577" type="curve"/>
      <point x="117" y="497" type="line"/>
      <point x="178" y="528"/>
      <point x="214" y="546"/>
      <point x="263" y="546" type="curve" smooth="yes"/>
      <point x="297" y="546"/>
      <point x="315" y="519"/>
      <point x="315" y="496" type="curve" smooth="yes"/>
      <point x="315" y="422"/>
      <point x="217" y="403"/>
      <point x="110" y="365" type="curve"/>
      <point x="126" y="287" type="line"/>
      <point x="153" y="292"/>
      <point x="191" y="299"/>
      <point x="223" y="299" type="curve" smooth="yes"/>
      <point x="269" y="299"/>
      <point x="291" y="263"/>
      <point x="291" y="216" type="curve" smooth="yes"/>
      <point x="291" y="129"/>
      <point x="234" y="81"/>
      <point x="162" y="81" type="curve" smooth="yes"/>
      <point x="106" y="81"/>
      <point x="71" y="99"/>
      <point x="16" y="129" type="curve"/>
      <point x="-25" y="44" type="line"/>
      <point x="27" y="12"/>
      <point x="80" y="-6"/>
      <point x="150" y="-6" type="curve" smooth="yes"/>
      <point x="320" y="-6"/>
      <point x="411" y="100"/>
      <point x="411" y="228" type="curve" smooth="yes"/>
      <point x="411" y="282"/>
      <point x="383" y="344"/>
      <point x="312" y="367" type="curve"/>
      <point x="406" y="388"/>
      <point x="436" y="456"/>
      <point x="436" y="512" type="curve" smooth="yes"/>
      <point x="436" y="577"/>
      <point x="399" y="634"/>
    </contour>
  </outline>
</glyph>
<glyph name="four" format="1">
  <advance width="522"/>
  <unicode hex="0034"/>
  <outline>
    <contour>
      <point x="329" y="466" type="line"/>
      <point x="290" y="262" type="line"/>
      <point x="140" y="262" type="line"/>
      <point x="377" y="634" type="line"/>
      <point x="264" y="634" type="line"/>
      <point x="16" y="240" type="line"/>
      <point x="16" y="175" type="line"/>
      <point x="273" y="175" type="line"/>
      <point x="240" y="0" type="line"/>
      <point x="355" y="0" type="line"/>
      <point x="389" y="175" type="line"/>
      <point x="470" y="175" type="line"/>
      <point x="487" y="262" type="line"/>
      <point x="406" y="262" type="line"/>
      <point x="450" y="487" type="line"/>
    </contour>
  </outline>
</glyph>
<glyph name="five" format="1">
  <advance width="482"/>
  <unicode hex="0035"/>
  <outline>
    <contour>
      <point x="178" y="81" type="curve" smooth="yes"/>
      <point x="122" y="81"/>
      <point x="87" y="99"/>
      <point x="32" y="129" type="curve"/>
      <point x="-10" y="44" type="line"/>
      <point x="43" y="12"/>
      <point x="96" y="-6"/>
      <point x="165" y="-6" type="curve" smooth="yes"/>
      <point x="336" y="-6"/>
      <point x="426" y="75"/>
      <point x="426" y="227" type="curve" smooth="yes"/>
      <point x="426" y="308"/>
      <point x="384" y="404"/>
      <point x="263" y="404" type="curve" smooth="yes"/>
      <point x="231" y="404"/>
      <point x="199" y="391"/>
      <point x="187" y="384" type="curve"/>
      <point x="234" y="535" type="line"/>
      <point x="449" y="535" type="line"/>
      <point x="466" y="626" type="line"/>
      <point x="155" y="626" type="line"/>
      <point x="66" y="322" type="line"/>
      <point x="105" y="287" type="line"/>
      <point x="146" y="302"/>
      <point x="179" y="315"/>
      <point x="231" y="315" type="curve" smooth="yes"/>
      <point x="289" y="315"/>
      <point x="307" y="272"/>
      <point x="307" y="216" type="curve" smooth="yes"/>
      <point x="307" y="112"/>
      <point x="249" y="81"/>
    </contour>
  </outline>
</glyph>
<glyph name="seven" format="1">
  <advance width="433"/>
  <unicode hex="0037"/>
  <outline>
    <contour>
      <point x="442" y="554" type="line"/>
      <point x="442" y="626" type="line"/>
      <point x="43" y="626" type="line"/>
      <point x="61" y="535" type="line"/>
      <point x="302" y="535" type="line"/>
      <point x="16" y="0" type="line"/>
      <point x="145" y="0" type="line"/>
    </contour>
  </outline>
</glyph>
<glyph name="nine" format="1">
  <advance width="518"/>
  <unicode hex="0039"/>
  <outline>
    <contour>
      <point x="41" y="14" type="line"/>
      <point x="73" y="-3"/>
      <point x="105" y="-13"/>
      <point x="153" y="-13" type="curve" smooth="yes"/>
      <point x="385" y="-13"/>
      <point x="477" y="201"/>
      <point x="477" y="442" type="curve" smooth="yes"/>
      <point x="477" y="563"/>
      <point x="418" y="634"/>
      <point x="296" y="634" type="curve" smooth="yes"/>
      <point x="149" y="634"/>
      <point x="47" y="523"/>
      <point x="47" y="355" type="curve" smooth="yes"/>
      <point x="47" y="278"/>
      <point x="84" y="208"/>
      <point x="197" y="208" type="curve" smooth="yes"/>
      <point x="264" y="208"/>
      <point x="313" y="246"/>
      <point x="340" y="272" type="curve"/>
      <point x="316" y="164"/>
      <point x="263" y="75"/>
      <point x="173" y="75" type="curve" smooth="yes"/>
      <point x="141" y="75"/>
      <point x="101" y="81"/>
      <point x="74" y="93" type="curve"/>
    </contour>
    <contour>
      <point x="235" y="294" type="curve" smooth="yes"/>
      <point x="186" y="294"/>
      <point x="161" y="321"/>
      <point x="161" y="375" type="curve" smooth="yes"/>
      <point x="161" y="465"/>
      <point x="203" y="547"/>
      <point x="280" y="547" type="curve" smooth="yes"/>
      <point x="337" y="547"/>
      <point x="355" y="492"/>
      <point x="355" y="424" type="curve" smooth="yes"/>
      <point x="355" y="396"/>
      <point x="353" y="368"/>
      <point x="350" y="339" type="curve"/>
      <point x="339" y="330"/>
      <point x="286" y="294"/>
    </contour>
  </outline>
</glyph>
<glyph name="colon" format="1">
  <advance width="300"/>
  <unicode hex="003A"/>
  <outline>
    <contour>
      <point x="116" y="143" type="curve" smooth="yes"/>
      <point x="66" y="143"/>
      <point x="35" y="104"/>
      <point x="35" y="59" type="curve" smooth="yes"/>
      <point x="35" y="18"/>
      <point x="57" y="-11"/>
      <point x="103" y="-11" type="curve" smooth="yes"/>
      <point x="154" y="-11"/>
      <point x="186" y="28"/>
      <point x="186" y="73" type="curve" smooth="yes"/>
      <point x="186" y="116"/>
      <point x="163" y="143"/>
    </contour>
    <contour>
      <point x="185" y="498" type="curve" smooth="yes"/>
      <point x="135" y="498"/>
      <point x="104" y="459"/>
      <point x="104" y="413" type="curve" smooth="yes"/>
      <point x="104" y="373"/>
      <point x="126" y="344"/>
      <point x="172" y="344" type="curve" smooth="yes"/>
      <point x="223" y="344"/>
      <point x="255" y="383"/>
      <point x="255" y="427" type="curve" smooth="yes"/>
      <point x="255" y="471"/>
      <point x="232" y="498"/>
    </contour>
  </outline>
</glyph>
<glyph name="semicolon" format="1">
  <advance width="302"/>
  <unicode hex="003B"/>
  <outline>
    <contour>
      <point x="59" y="56" type="curve" smooth="yes"/>
      <point x="59" y="11"/>
      <point x="43" y="-43"/>
      <point x="-31" y="-92" type="curve"/>
      <point x="3" y="-147" type="line"/>
      <point x="79" y="-110"/>
      <point x="177" y="-11"/>
      <point x="177" y="86" type="curve" smooth="yes"/>
      <point x="177" y="119"/>
      <point x="162" y="140"/>
      <point x="124" y="140" type="curve" smooth="yes"/>
      <point x="78" y="140"/>
      <point x="56" y="122"/>
      <point x="56" y="122" type="curve"/>
      <point x="58" y="105"/>
      <point x="59" y="82"/>
    </contour>
    <contour>
      <point x="172" y="498" type="curve" smooth="yes"/>
      <point x="121" y="498"/>
      <point x="91" y="459"/>
      <point x="91" y="413" type="curve" smooth="yes"/>
      <point x="91" y="373"/>
      <point x="112" y="344"/>
      <point x="159" y="344" type="curve" smooth="yes"/>
      <point x="210" y="344"/>
      <point x="241" y="383"/>
      <point x="241" y="427" type="curve" smooth="yes"/>
      <point x="241" y="471"/>
      <point x="219" y="498"/>
    </contour>
  </outline>
</glyph>
<glyph name="less" format="1">
  <advance width="447"/>
  <unicode hex="003C"/>
  <outline>
    <contour>
      <point x="383" y="183" type="line"/>
      <point x="210" y="274" type="line" smooth="yes"/>
      <point x="192" y="284"/>
      <point x="170" y="294"/>
      <point x="154" y="301" type="curve"/>
      <point x="172" y="307"/>
      <point x="197" y="317"/>
      <point x="218" y="326" type="curve" smooth="yes"/>
      <point x="421" y="414" type="line"/>
      <point x="389" y="501" type="line"/>
      <point x="25" y="335" type="line"/>
      <point x="25" y="258" type="line"/>
      <point x="328" y="91" type="line"/>
    </contour>
  </outline>
</glyph>
<glyph name="equal" format="1">
  <advance width="523"/>
  <unicode hex="003D"/>
  <outline>
    <contour>
      <point x="94" y="348" type="line"/>
      <point x="445" y="348" type="line"/>
      <point x="462" y="436" type="line"/>
      <point x="112" y="436" type="line"/>
    </contour>
    <contour>
      <point x="60" y="173" type="line"/>
      <point x="411" y="173" type="line"/>
      <point x="428" y="261" type="line"/>
      <point x="78" y="261" type="line"/>
    </contour>
  </outline>
</glyph>
<glyph name="greater" format="1">
  <advance width="447"/>
  <unicode hex="003E"/>
  <outline>
    <contour>
      <point x="63" y="409" type="line"/>
      <point x="237" y="317" type="line" smooth="yes"/>
      <point x="255" y="307"/>
      <point x="277" y="297"/>
      <point x="293" y="290" type="curve"/>
      <point x="275" y="284"/>
      <point x="250" y="274"/>
      <point x="229" y="265" type="curve" smooth="yes"/>
      <point x="25" y="177" type="line"/>
      <point x="58" y="91" type="line"/>
      <point x="421" y="256" type="line"/>
      <point x="421" y="333" type="line"/>
      <point x="119" y="501" type="line"/>
    </contour>
  </outline>
</glyph>
<glyph name="question" format="1">
  <advance width="443"/>
  <unicode hex="003F"/>
  <outline>
    <contour>
      <point x="285" y="676" type="curve" smooth="yes"/>
      <point x="219" y="676"/>
      <point x="159" y="651"/>
      <point x="102" y="626" type="curve"/>
      <point x="135" y="547" type="line"/>
      <point x="177" y="566"/>
      <point x="212" y="589"/>
      <point x="254" y="589" type="curve" smooth="yes"/>
      <point x="299" y="589"/>
      <point x="322" y="568"/>
      <point x="322" y="525" type="curve" smooth="yes"/>
      <point x="322" y="445"/>
      <point x="144" y="347"/>
      <point x="118" y="209" type="curve"/>
      <point x="196" y="186" type="line"/>
      <point x="218" y="235"/>
      <point x="257" y="283"/>
      <point x="303" y="326" type="curve" smooth="yes"/>
      <point x="362" y="381"/>
      <point x="447" y="432"/>
      <point x="447" y="544" type="curve" smooth="yes"/>
      <point x="447" y="626"/>
      <point x="391" y="676"/>
    </contour>
    <contour>
      <point x="132" y="143" type="curve" smooth="yes"/>
      <point x="81" y="143"/>
      <point x="50" y="104"/>
      <point x="50" y="59" type="curve" smooth="yes"/>
      <point x="50" y="18"/>
      <point x="72" y="-11"/>
      <point x="118" y="-11" type="curve" smooth="yes"/>
      <point x="169" y="-11"/>
      <point x="201" y="28"/>
      <point x="201" y="73" type="curve" smooth="yes"/>
      <point x="201" y="116"/>
      <point x="178" y="143"/>
    </contour>
  </outline>
</glyph>
<glyph name="at" format="1">
  <advance width="849"/>
  <unicode hex="0040"/>
  <outline>
    <contour>
      <point x="601" y="239" type="curve" smooth="yes"/>
      <point x="634" y="430" type="line"/>
      <point x="573" y="434" type="line"/>
      <point x="521" y="455"/>
      <point x="489" y="456"/>
      <point x="466" y="456" type="curve" smooth="yes"/>
      <point x="291" y="456"/>
      <point x="193" y="317"/>
      <point x="193" y="145" type="curve" smooth="yes"/>
      <point x="193" y="69"/>
      <point x="230" y="-6"/>
      <point x="322" y="-6" type="curve" smooth="yes"/>
      <point x="391" y="-6"/>
      <point x="456" y="26"/>
      <point x="502" y="132" type="curve" smooth="yes"/>
      <point x="519" y="171" type="line"/>
      <point x="514" y="140"/>
      <point x="510" y="125"/>
      <point x="510" y="99" type="curve" smooth="yes"/>
      <point x="510" y="61"/>
      <point x="518" y="-6"/>
      <point x="588" y="-6" type="curve" smooth="yes"/>
      <point x="733" y="-6"/>
      <point x="819" y="194"/>
      <point x="819" y="356" type="curve" smooth="yes"/>
      <point x="819" y="532"/>
      <point x="689" y="616"/>
      <point x="532" y="616" type="curve" smooth="yes"/>
      <point x="260" y="616"/>
      <point x="20" y="430"/>
      <point x="20" y="98" type="curve" smooth="yes"/>
      <point x="20" y="-101"/>
      <point x="158" y="-162"/>
      <point x="307" y="-162" type="curve" smooth="yes"/>
      <point x="404" y="-162"/>
      <point x="509" y="-115"/>
      <point x="509" y="-115" type="curve"/>
      <point x="490" y="-48" type="line"/>
      <point x="490" y="-48"/>
      <point x="398" y="-85"/>
      <point x="321" y="-85" type="curve" smooth="yes"/>
      <point x="155" y="-85"/>
      <point x="105" y="-9"/>
      <point x="105" y="115" type="curve" smooth="yes"/>
      <point x="105" y="383"/>
      <point x="297" y="538"/>
      <point x="507" y="538" type="curve" smooth="yes"/>
      <point x="652" y="538"/>
      <point x="734" y="473"/>
      <point x="734" y="334" type="curve" smooth="yes"/>
      <point x="734" y="252"/>
      <point x="678" y="73"/>
      <point x="609" y="73" type="curve" smooth="yes"/>
      <point x="587" y="73"/>
      <point x="584" y="93"/>
      <point x="584" y="117" type="curve" smooth="yes"/>
      <point x="584" y="149"/>
      <point x="592" y="189"/>
    </contour>
    <contour>
      <point x="358" y="76" type="curve" smooth="yes"/>
      <point x="328" y="76"/>
      <point x="311" y="95"/>
      <point x="311" y="146" type="curve" smooth="yes"/>
      <point x="311" y="248"/>
      <point x="352" y="383"/>
      <point x="463" y="383" type="curve" smooth="yes"/>
      <point x="479" y="383"/>
      <point x="499" y="381"/>
      <point x="514" y="374" type="curve"/>
      <point x="501" y="313" type="line" smooth="yes"/>
      <point x="482" y="225"/>
      <point x="420" y="76"/>
    </contour>
  </outline>
</glyph>
<glyph name="A" format="1">
  <advance width="570"/>
  <unicode hex="0041"/>
  <outline>
    <contour>
      <point x="374" y="669" type="move" name="topUC"/>
    </contour>
    <contour>
      <point x="-39" y="19" type="line"/>
      <point x="75" y="-8" type="line"/>
      <point x="170" y="180" type="line"/>
      <point x="394" y="180" type="line"/>
      <point x="423" y="0" type="line"/>
      <point x="545" y="0" type="line"/>
      <point x="417" y="669" type="line"/>
      <point x="326" y="669" type="line"/>
    </contour>
    <contour>
      <point x="382" y="263" type="curve"/>
      <point x="211" y="263" type="line"/>
      <point x="267" y="374"/>
      <point x="317" y="471"/>
      <point x="347" y="529" type="curve"/>
      <point x="353" y="474"/>
      <point x="364" y="376"/>
    </contour>
  </outline>
</glyph>
<glyph name="E" format="1">
  <advance width="506"/>
  <unicode hex="0045"/>
  <outline>
    <contour>
      <point x="331" y="669" type="move" name="topUC"/>
    </contour>
    <contour>
      <point x="15" y="0" type="line"/>
      <point x="424" y="0" type="line"/>
      <point x="424" y="84" type="line"/>
      <point x="147" y="84" type="line"/>
      <point x="191" y="310" type="line"/>
      <point x="406" y="310" type="line"/>
      <point x="424" y="393" type="line"/>
      <point x="207" y="393" type="line"/>
      <point x="244" y="585" type="line"/>
      <point x="513" y="585" type="line"/>
      <point x="530" y="669" type="line"/>
      <point x="145" y="669" type="line"/>
    </contour>
  </outline>
</glyph>
<glyph name="F" format="1">
  <advance width="467"/>
  <unicode hex="0046"/>
  <outline>
    <contour>
      <point x="15" y="0" type="line"/>
      <point x="131" y="0" type="line"/>
      <point x="189" y="301" type="line"/>
      <point x="406" y="301" type="line"/>
      <point x="424" y="384" type="line"/>
      <point x="206" y="384" type="line"/>
      <point x="244" y="585" type="line"/>
      <point x="513" y="585" type="line"/>
      <point x="530" y="669" type="line"/>
      <point x="145" y="669" type="line"/>
    </contour>
  </outline>
</glyph>
<glyph name="G" format="1">
  <advance width="594"/>
  <unicode hex="0047"/>
  <outline>
    <contour>
      <point x="377" y="-45" type="line" smooth="yes"/>
      <point x="367" y="-90"/>
      <point x="317" y="-128"/>
      <point x="255" y="-128" type="curve" smooth="yes"/>
      <point x="193" y="-128"/>
      <point x="127" y="-94"/>
      <point x="77" y="-73" type="curve"/>
      <point x="36" y="-162" type="line"/>
      <point x="82" y="-185"/>
      <point x="164" y="-222"/>
      <point x="242" y="-222" type="curve" smooth="yes"/>
      <point x="371" y="-222"/>
      <point x="460" y="-140"/>
      <point x="480" y="-37" type="curve" smooth="yes"/>
      <point x="550" y="328" type="line"/>
      <point x="437" y="328" type="line"/>
      <point x="416" y="221" type="line" smooth="yes"/>
      <point x="399" y="134"/>
      <point x="327" y="74"/>
      <point x="270" y="74" type="curve" smooth="yes"/>
      <point x="198" y="74"/>
      <point x="168" y="139"/>
      <point x="168" y="226" type="curve" smooth="yes"/>
      <point x="168" y="376"/>
      <point x="231" y="595"/>
      <point x="385" y="595" type="curve" smooth="yes"/>
      <point x="442" y="595"/>
      <point x="456" y="569"/>
      <point x="466" y="544" type="curve"/>
      <point x="554" y="584" type="line"/>
      <point x="541" y="637"/>
      <point x="509" y="682"/>
      <point x="418" y="682" type="curve" smooth="yes"/>
      <point x="157" y="682"/>
      <point x="40" y="449"/>
      <point x="40" y="208" type="curve" smooth="yes"/>
      <point x="40" y="68"/>
      <point x="105" y="-13"/>
      <point x="221" y="-13" type="curve" smooth="yes"/>
      <point x="297" y="-13"/>
      <point x="365" y="24"/>
      <point x="404" y="83" type="curve"/>
    </contour>
  </outline>
</glyph>
<glyph name="H" format="1">
  <advance width="647"/>
  <unicode hex="0048"/>
  <outline>
    <contour>
      <point x="386" y="0" type="line"/>
      <point x="501" y="0" type="line"/>
      <point x="631" y="669" type="line"/>
      <point x="516" y="669" type="line"/>
      <point x="462" y="393" type="line"/>
      <point x="196" y="393" type="line"/>
      <point x="250" y="669" type="line"/>
      <point x="135" y="669" type="line"/>
      <point x="5" y="0" type="line"/>
      <point x="120" y="0" type="line"/>
      <point x="181" y="310" type="line"/>
      <point x="446" y="310" type="line"/>
    </contour>
  </outline>
</glyph>
<glyph name="I" format="1">
  <advance width="276"/>
  <unicode hex="0049"/>
  <outline>
    <contour>
      <point x="203" y="669" type="move" name="topUC"/>
    </contour>
    <contour>
      <point x="15" y="0" type="line"/>
      <point x="131" y="0" type="line"/>
      <point x="261" y="669" type="line"/>
      <point x="145" y="669" type="line"/>
    </contour>
  </outline>
</glyph>
<glyph name="L" format="1">
  <advance width="420"/>
  <unicode hex="004C"/>
  <outline>
    <contour>
      <point x="20" y="0" type="line"/>
      <point x="390" y="0" type="line"/>
      <point x="390" y="84" type="line"/>
      <point x="151" y="84" type="line"/>
      <point x="266" y="669" type="line"/>
      <point x="150" y="669" type="line"/>
    </contour>
  </outline>
</glyph>
<glyph name="N" format="1">
  <advance width="658"/>
  <unicode hex="004E"/>
  <outline>
    <contour>
      <point x="391" y="669" type="move" name="topUC"/>
    </contour>
    <contour>
      <point x="463" y="326" type="line" smooth="yes"/>
      <point x="457" y="292"/>
      <point x="450" y="239"/>
      <point x="445" y="193" type="curve"/>
      <point x="426" y="236"/>
      <point x="404" y="290"/>
      <point x="386" y="329" type="curve" smooth="yes"/>
      <point x="229" y="669" type="line"/>
      <point x="139" y="669" type="line"/>
      <point x="15" y="14" type="line"/>
      <point x="126" y="-4" type="line"/>
      <point x="190" y="341" type="line" smooth="yes"/>
      <point x="198" y="384"/>
      <point x="203" y="433"/>
      <point x="207" y="476" type="curve"/>
      <point x="224" y="434"/>
      <point x="246" y="380"/>
      <point x="264" y="343" type="curve" smooth="yes"/>
      <point x="425" y="-1" type="line"/>
      <point x="514" y="-1" type="line"/>
      <point x="638" y="656" type="line"/>
      <point x="527" y="674" type="line"/>
    </contour>
  </outline>
</glyph>
<glyph name="P" format="1">
  <advance width="545"/>
  <unicode hex="0050"/>
  <outline>
    <contour>
      <point x="15" y="0" type="line"/>
      <point x="131" y="0" type="line"/>
      <point x="182" y="268" type="line"/>
      <point x="206" y="266"/>
      <point x="229" y="266"/>
      <point x="248" y="266" type="curve" smooth="yes"/>
      <point x="409" y="266"/>
      <point x="534" y="363"/>
      <point x="534" y="529" type="curve" smooth="yes"/>
      <point x="534" y="639"/>
      <point x="452" y="675"/>
      <point x="335" y="675" type="curve" smooth="yes"/>
      <point x="295" y="675"/>
      <point x="261" y="670"/>
      <point x="238" y="665" type="curve"/>
      <point x="145" y="673" type="line"/>
    </contour>
    <contour>
      <point x="304" y="595" type="curve" smooth="yes"/>
      <point x="381" y="595"/>
      <point x="410" y="558"/>
      <point x="410" y="505" type="curve" smooth="yes"/>
      <point x="410" y="411"/>
      <point x="351" y="354"/>
      <point x="224" y="354" type="curve" smooth="yes"/>
      <point x="199" y="354" type="line"/>
      <point x="245" y="591" type="line"/>
      <point x="262" y="594"/>
      <point x="282" y="595"/>
    </contour>
  </outline>
</glyph>
<glyph name="Q" format="1">
  <advance width="666"/>
  <unicode hex="0051"/>
  <outline>
    <contour>
      <point x="530" y="-86" type="line"/>
      <point x="472" y="-122"/>
      <point x="401" y="-161"/>
      <point x="331" y="-161" type="curve" smooth="yes"/>
      <point x="277" y="-161"/>
      <point x="230" y="-139"/>
      <point x="208" y="-75" type="curve"/>
      <point x="423" y="-62"/>
      <point x="626" y="174"/>
      <point x="626" y="461" type="curve" smooth="yes"/>
      <point x="626" y="601"/>
      <point x="561" y="682"/>
      <point x="406" y="682" type="curve" smooth="yes"/>
      <point x="188" y="682"/>
      <point x="55" y="503"/>
      <point x="55" y="349" type="curve" smooth="yes"/>
      <point x="55" y="239"/>
      <point x="135" y="177"/>
      <point x="224" y="177" type="curve" smooth="yes"/>
      <point x="234" y="177"/>
      <point x="251" y="177"/>
      <point x="261" y="180" type="curve"/>
      <point x="270" y="264" type="line"/>
      <point x="213" y="272"/>
      <point x="185" y="289"/>
      <point x="185" y="355" type="curve" smooth="yes"/>
      <point x="185" y="460"/>
      <point x="260" y="595"/>
      <point x="372" y="595" type="curve" smooth="yes"/>
      <point x="468" y="595"/>
      <point x="498" y="531"/>
      <point x="498" y="444" type="curve" smooth="yes"/>
      <point x="498" y="210"/>
      <point x="336" y="-2"/>
      <point x="169" y="-2" type="curve" smooth="yes"/>
      <point x="154" y="-2"/>
      <point x="139" y="0"/>
      <point x="125" y="3" type="curve"/>
      <point x="91" y="-63" type="line"/>
      <point x="115" y="-207"/>
      <point x="211" y="-258"/>
      <point x="321" y="-258" type="curve" smooth="yes"/>
      <point x="412" y="-258"/>
      <point x="505" y="-216"/>
      <point x="568" y="-174" type="curve"/>
    </contour>
  </outline>
</glyph>
<glyph name="R" format="1">
  <advance width="556"/>
  <unicode hex="0052"/>
  <outline>
    <contour>
      <point x="15" y="0" type="line"/>
      <point x="131" y="0" type="line"/>
      <point x="188" y="299" type="line"/>
      <point x="205" y="298"/>
      <point x="221" y="298"/>
      <point x="236" y="298" type="curve"/>
      <point x="287" y="148"/>
      <point x="325" y="57"/>
      <point x="451" y="-103" type="curve"/>
      <point x="545" y="-53" type="line"/>
      <point x="462" y="45"/>
      <point x="371" y="201"/>
      <point x="340" y="306" type="curve"/>
      <point x="453" y="330"/>
      <point x="534" y="398"/>
      <point x="534" y="529" type="curve" smooth="yes"/>
      <point x="534" y="639"/>
      <point x="452" y="675"/>
      <point x="335" y="675" type="curve" smooth="yes"/>
      <point x="295" y="675"/>
      <point x="261" y="670"/>
      <point x="238" y="665" type="curve"/>
      <point x="145" y="673" type="line"/>
    </contour>
    <contour>
      <point x="304" y="595" type="curve" smooth="yes"/>
      <point x="381" y="595"/>
      <point x="410" y="558"/>
      <point x="410" y="505" type="curve" smooth="yes"/>
      <point x="410" y="410"/>
      <point x="344" y="379"/>
      <point x="224" y="379" type="curve" smooth="yes"/>
      <point x="204" y="379" type="line"/>
      <point x="245" y="591" type="line"/>
      <point x="262" y="594"/>
      <point x="282" y="595"/>
    </contour>
  </outline>
</glyph>
<glyph name="S" format="1">
  <advance width="500"/>
  <unicode hex="0053"/>
  <outline>
    <contour>
      <point x="307" y="682" type="curve" smooth="yes"/>
      <point x="426" y="682"/>
      <point x="457" y="617"/>
      <point x="470" y="563" type="curve"/>
      <point x="386" y="524" type="line"/>
      <point x="375" y="548"/>
      <point x="365" y="595"/>
      <point x="307" y="595" type="curve" smooth="yes"/>
      <point x="254" y="595"/>
      <point x="211" y="559"/>
      <point x="211" y="512" type="curve" smooth="yes"/>
      <point x="211" y="463"/>
      <point x="237" y="442"/>
      <point x="273" y="416" type="curve" smooth="yes"/>
      <point x="353" y="357" type="line" smooth="yes"/>
      <point x="401" y="321"/>
      <point x="441" y="272"/>
      <point x="441" y="193" type="curve" smooth="yes"/>
      <point x="441" y="57"/>
      <point x="317" y="-14"/>
      <point x="192" y="-14" type="curve" smooth="yes"/>
      <point x="93" y="-14"/>
      <point x="29" y="21"/>
      <point x="-15" y="44" type="curve"/>
      <point x="35" y="132" type="line"/>
      <point x="80" y="105"/>
      <point x="133" y="74"/>
      <point x="188" y="74" type="curve" smooth="yes"/>
      <point x="262" y="74"/>
      <point x="313" y="107"/>
      <point x="313" y="179" type="curve" smooth="yes"/>
      <point x="313" y="225"/>
      <point x="291" y="251"/>
      <point x="250" y="281" type="curve" smooth="yes"/>
      <point x="175" y="337" type="line" smooth="yes"/>
      <point x="116" y="380"/>
      <point x="82" y="419"/>
      <point x="82" y="498" type="curve" smooth="yes"/>
      <point x="82" y="615"/>
      <point x="179" y="682"/>
    </contour>
  </outline>
</glyph>
<glyph name="T" format="1">
  <advance width="455"/>
  <unicode hex="0054"/>
  <outline>
    <contour>
      <point x="55" y="585" type="line"/>
      <point x="222" y="585" type="line"/>
      <point x="108" y="0" type="line"/>
      <point x="224" y="0" type="line"/>
      <point x="337" y="585" type="line"/>
      <point x="506" y="585" type="line"/>
      <point x="524" y="669" type="line"/>
      <point x="55" y="669" type="line"/>
    </contour>
  </outline>
</glyph>
<glyph name="U" format="1">
  <advance width="652"/>
  <unicode hex="0055"/>
  <outline>
    <contour>
      <point x="390" y="669" type="move" name="topUC"/>
    </contour>
    <contour>
      <point x="134" y="669" type="line"/>
      <point x="53" y="250" type="line" smooth="yes"/>
      <point x="48" y="225"/>
      <point x="45" y="200"/>
      <point x="45" y="177" type="curve" smooth="yes"/>
      <point x="45" y="72"/>
      <point x="100" y="-8"/>
      <point x="250" y="-8" type="curve" smooth="yes"/>
      <point x="442" y="-8"/>
      <point x="529" y="111"/>
      <point x="556" y="250" type="curve" smooth="yes"/>
      <point x="637" y="669" type="line"/>
      <point x="521" y="669" type="line"/>
      <point x="441" y="259" type="line" smooth="yes"/>
      <point x="420" y="150"/>
      <point x="366" y="74"/>
      <point x="279" y="74" type="curve" smooth="yes"/>
      <point x="207" y="74"/>
      <point x="164" y="119"/>
      <point x="164" y="200" type="curve" smooth="yes"/>
      <point x="164" y="217"/>
      <point x="166" y="237"/>
      <point x="170" y="259" type="curve" smooth="yes"/>
      <point x="250" y="669" type="line"/>
    </contour>
  </outline>
</glyph>
<glyph name="V" format="1">
  <advance width="570"/>
  <unicode hex="0056"/>
  <outline>
    <contour>
      <point x="620" y="650" type="line"/>
      <point x="505" y="677" type="line"/>
      <point x="309" y="300" type="line" smooth="yes"/>
      <point x="276" y="237"/>
      <point x="254" y="194"/>
      <point x="238" y="161" type="curve"/>
      <point x="234" y="195"/>
      <point x="228" y="238"/>
      <point x="218" y="300" type="curve" smooth="yes"/>
      <point x="158" y="669" type="line"/>
      <point x="35" y="669" type="line"/>
      <point x="163" y="0" type="line"/>
      <point x="255" y="0" type="line"/>
    </contour>
  </outline>
</glyph>
<glyph name="X" format="1">
  <advance width="569"/>
  <unicode hex="0058"/>
  <outline>
    <contour>
      <point x="72" y="-8" type="line"/>
      <point x="224" y="200" type="line" smooth="yes"/>
      <point x="237" y="217"/>
      <point x="257" y="245"/>
      <point x="277" y="276" type="curve"/>
      <point x="287" y="246"/>
      <point x="298" y="217"/>
      <point x="305" y="200" type="curve" smooth="yes"/>
      <point x="385" y="0" type="line"/>
      <point x="510" y="0" type="line"/>
      <point x="368" y="348" type="line"/>
      <point x="593" y="643" type="line"/>
      <point x="490" y="679" type="line"/>
      <point x="362" y="505" type="line" smooth="yes"/>
      <point x="350" y="489"/>
      <point x="333" y="465"/>
      <point x="316" y="438" type="curve"/>
      <point x="305" y="465"/>
      <point x="296" y="490"/>
      <point x="289" y="506" type="curve" smooth="yes"/>
      <point x="218" y="669" type="line"/>
      <point x="94" y="669" type="line"/>
      <point x="226" y="367" type="line"/>
      <point x="-40" y="19" type="line"/>
    </contour>
  </outline>
</glyph>
<glyph name="Y" format="1">
  <advance width="459"/>
  <unicode hex="0059"/>
  <outline>
    <contour>
      <point x="284" y="669" type="move" name="topUC"/>
    </contour>
    <contour>
      <point x="230" y="0" type="line"/>
      <point x="230" y="38" type="line" smooth="yes"/>
      <point x="230" y="359"/>
      <point x="359" y="476"/>
      <point x="518" y="629" type="curve"/>
      <point x="448" y="685" type="line"/>
      <point x="376" y="636"/>
      <point x="281" y="546"/>
      <point x="224" y="410" type="curve"/>
      <point x="158" y="669" type="line"/>
      <point x="40" y="669" type="line"/>
      <point x="159" y="275" type="line"/>
      <point x="131" y="207"/>
      <point x="115" y="127"/>
      <point x="115" y="40" type="curve" smooth="yes"/>
      <point x="115" y="0" type="line"/>
    </contour>
  </outline>
</glyph>
<glyph name="Z" format="1">
  <advance width="517"/>
  <unicode hex="005A"/>
  <outline>
    <contour>
      <point x="436" y="0" type="line"/>
      <point x="436" y="84" type="line"/>
      <point x="201" y="84" type="line" smooth="yes"/>
      <point x="182" y="84"/>
      <point x="166" y="83"/>
      <point x="150" y="83" type="curve"/>
      <point x="522" y="606" type="line"/>
      <point x="522" y="669" type="line"/>
      <point x="117" y="669" type="line"/>
      <point x="101" y="584" type="line"/>
      <point x="327" y="584" type="line" smooth="yes"/>
      <point x="334" y="584"/>
      <point x="356" y="585"/>
      <point x="360" y="585" type="curve"/>
      <point x="-10" y="62" type="line"/>
      <point x="-10" y="0" type="line"/>
    </contour>
  </outline>
</glyph>
<glyph name="bracketleft" format="1">
  <advance width="375"/>
  <unicode hex="005B"/>
  <outline>
    <contour>
      <point x="30" y="-186" type="line"/>
      <point x="253" y="-186" type="line"/>
      <point x="269" y="-98" type="line"/>
      <point x="151" y="-98" type="line"/>
      <point x="292" y="632" type="line"/>
      <point x="408" y="632" type="line"/>
      <point x="425" y="720" type="line"/>
      <point x="203" y="720" type="line"/>
    </contour>
  </outline>
</glyph>
<glyph name="backslash" format="1">
  <advance width="404"/>
  <unicode hex="005C"/>
  <outline>
    <contour>
      <point x="205" y="729" type="line"/>
      <point x="100" y="729" type="line"/>
      <point x="248" y="-126" type="line"/>
      <point x="354" y="-126" type="line"/>
    </contour>
  </outline>
</glyph>
<glyph name="bracketright" format="1">
  <advance width="395"/>
  <unicode hex="005D"/>
  <outline>
    <contour>
      <point x="335" y="720" type="line"/>
      <point x="112" y="720" type="line"/>
      <point x="96" y="632" type="line"/>
      <point x="212" y="632" type="line"/>
      <point x="73" y="-98" type="line"/>
      <point x="-43" y="-98" type="line"/>
      <point x="-60" y="-186" type="line"/>
      <point x="162" y="-186" type="line"/>
    </contour>
  </outline>
</glyph>
<glyph name="asciicircum" format="1">
  <advance width="521"/>
  <unicode hex="005E"/>
  <outline>
    <contour>
      <point x="466" y="308" type="line"/>
      <point x="360" y="670" type="line"/>
      <point x="279" y="670" type="line"/>
      <point x="45" y="328" type="line"/>
      <point x="131" y="283" type="line"/>
      <point x="260" y="488" type="line"/>
      <point x="277" y="514"/>
      <point x="291" y="547"/>
      <point x="297" y="564" type="curve"/>
      <point x="300" y="547"/>
      <point x="304" y="515"/>
      <point x="312" y="489" type="curve" smooth="yes"/>
      <point x="359" y="295" type="line"/>
    </contour>
  </outline>
</glyph>
<glyph name="underscore" format="1">
  <advance width="484"/>
  <unicode hex="005F"/>
  <outline>
    <contour>
      <point x="-14" y="-162" type="line"/>
      <point x="469" y="-162" type="line"/>
      <point x="484" y="-80" type="line"/>
      <point x="0" y="-80" type="line"/>
    </contour>
  </outline>
</glyph>
<glyph name="grave" format="1">
  <advance width="479"/>
  <unicode hex="0060"/>
  <outline>
    <contour>
      <point x="306" y="498" type="move" name="_top"/>
    </contour>
    <contour>
      <point x="348" y="581" type="line"/>
      <point x="348" y="581"/>
      <point x="253" y="671"/>
      <point x="209" y="770" type="curve"/>
      <point x="158" y="749"/>
      <point x="132" y="709"/>
      <point x="132" y="709" type="curve"/>
      <point x="175" y="612"/>
      <point x="300" y="536"/>
      <point x="300" y="536" type="curve"/>
    </contour>
  </outline>
</glyph>
<glyph name="b" format="1">
  <advance width="514"/>
  <unicode hex="0062"/>
  <outline>
    <contour>
      <point x="484" y="333" type="curve" smooth="yes"/>
      <point x="484" y="416"/>
      <point x="446" y="498"/>
      <point x="351" y="498" type="curve" smooth="yes"/>
      <point x="290" y="498"/>
      <point x="235" y="473"/>
      <point x="192" y="396" type="curve"/>
      <point x="209" y="449"/>
      <point x="229" y="516"/>
      <point x="237" y="558" type="curve" smooth="yes"/>
      <point x="268" y="725" type="line"/>
      <point x="155" y="705" type="line"/>
      <point x="25" y="41" type="line"/>
      <point x="23" y="42"/>
      <point x="106" y="-8"/>
      <point x="203" y="-8" type="curve" smooth="yes"/>
      <point x="383" y="-8"/>
      <point x="484" y="144"/>
    </contour>
    <contour>
      <point x="314" y="416" type="curve" smooth="yes"/>
      <point x="348" y="416"/>
      <point x="365" y="395"/>
      <point x="365" y="337" type="curve" smooth="yes"/>
      <point x="365" y="222"/>
      <point x="320" y="69"/>
      <point x="201" y="69" type="curve" smooth="yes"/>
      <point x="186" y="69"/>
      <point x="164" y="71"/>
      <point x="144" y="78" type="curve"/>
      <point x="155" y="134" type="line" smooth="yes"/>
      <point x="183" y="277"/>
      <point x="251" y="416"/>
    </contour>
  </outline>
</glyph>
<glyph name="f" format="1">
  <advance width="336"/>
  <unicode hex="0066"/>
  <outline>
    <contour>
      <point x="431" y="626" type="line"/>
      <point x="415" y="682"/>
      <point x="385" y="722"/>
      <point x="311" y="722" type="curve" smooth="yes"/>
      <point x="212" y="722"/>
      <point x="127" y="673"/>
      <point x="127" y="576" type="curve" smooth="yes"/>
      <point x="127" y="550"/>
      <point x="132" y="515"/>
      <point x="149" y="490" type="curve"/>
      <point x="38" y="490" type="line"/>
      <point x="38" y="409" type="line"/>
      <point x="125" y="409" type="line"/>
      <point x="48" y="13" type="line" smooth="yes"/>
      <point x="31" y="-73"/>
      <point x="-13" y="-107"/>
      <point x="-100" y="-147" type="curve"/>
      <point x="-61" y="-223" type="line"/>
      <point x="50" y="-167"/>
      <point x="131" y="-121"/>
      <point x="159" y="25" type="curve" smooth="yes"/>
      <point x="234" y="409" type="line"/>
      <point x="347" y="409" type="line"/>
      <point x="360" y="490" type="line"/>
      <point x="243" y="490" type="line"/>
      <point x="235" y="518"/>
      <point x="232" y="548"/>
      <point x="232" y="567" type="curve" smooth="yes"/>
      <point x="232" y="616"/>
      <point x="257" y="641"/>
      <point x="298" y="641" type="curve" smooth="yes"/>
      <point x="330" y="641"/>
      <point x="341" y="615"/>
      <point x="348" y="590" type="curve"/>
    </contour>
  </outline>
</glyph>
<glyph name="g" format="1">
  <advance width="528"/>
  <unicode hex="0067"/>
  <outline>
    <contour>
      <point x="434" y="474" type="line"/>
      <point x="402" y="486"/>
      <point x="358" y="498"/>
      <point x="311" y="498" type="curve" smooth="yes"/>
      <point x="131" y="498"/>
      <point x="30" y="346"/>
      <point x="30" y="157" type="curve" smooth="yes"/>
      <point x="30" y="74"/>
      <point x="68" y="-8"/>
      <point x="163" y="-8" type="curve" smooth="yes"/>
      <point x="233" y="-8"/>
      <point x="293" y="24"/>
      <point x="339" y="129" type="curve" smooth="yes"/>
      <point x="358" y="171" type="line"/>
      <point x="355" y="140"/>
      <point x="350" y="111"/>
      <point x="350" y="90" type="curve" smooth="yes"/>
      <point x="350" y="22"/>
      <point x="354" y="-4"/>
      <point x="354" y="-29" type="curve" smooth="yes"/>
      <point x="354" y="-86"/>
      <point x="317" y="-132"/>
      <point x="255" y="-132" type="curve" smooth="yes"/>
      <point x="194" y="-132"/>
      <point x="126" y="-99"/>
      <point x="75" y="-78" type="curve"/>
      <point x="36" y="-162" type="line"/>
      <point x="82" y="-184"/>
      <point x="164" y="-222"/>
      <point x="241" y="-222" type="curve" smooth="yes"/>
      <point x="370" y="-222"/>
      <point x="453" y="-174"/>
      <point x="453" y="-27" type="curve" smooth="yes"/>
      <point x="453" y="34"/>
      <point x="437" y="79"/>
      <point x="437" y="146" type="curve" smooth="yes"/>
      <point x="437" y="210"/>
      <point x="478" y="406"/>
      <point x="492" y="470" type="curve"/>
    </contour>
    <contour>
      <point x="199" y="74" type="curve" smooth="yes"/>
      <point x="166" y="74"/>
      <point x="149" y="95"/>
      <point x="149" y="153" type="curve" smooth="yes"/>
      <point x="149" y="268"/>
      <point x="193" y="421"/>
      <point x="313" y="421" type="curve" smooth="yes"/>
      <point x="328" y="421"/>
      <point x="350" y="418"/>
      <point x="370" y="411" type="curve"/>
      <point x="367" y="394" type="line" smooth="yes"/>
      <point x="340" y="242"/>
      <point x="267" y="74"/>
    </contour>
  </outline>
</glyph>
<glyph name="i" format="1">
  <advance width="273"/>
  <unicode hex="0069"/>
  <outline>
    <contour>
      <point x="201" y="721" type="curve" smooth="yes"/>
      <point x="155" y="721"/>
      <point x="127" y="686"/>
      <point x="127" y="645" type="curve" smooth="yes"/>
      <point x="127" y="609"/>
      <point x="146" y="582"/>
      <point x="189" y="582" type="curve" smooth="yes"/>
      <point x="234" y="582"/>
      <point x="263" y="617"/>
      <point x="263" y="656" type="curve" smooth="yes"/>
      <point x="263" y="696"/>
      <point x="243" y="721"/>
    </contour>
    <contour>
      <point x="128" y="-5" type="curve" smooth="yes"/>
      <point x="181" y="-5"/>
      <point x="218" y="13"/>
      <point x="218" y="13" type="curve"/>
      <point x="218" y="85" type="line"/>
      <point x="216" y="84"/>
      <point x="190" y="77"/>
      <point x="167" y="77" type="curve" smooth="yes"/>
      <point x="154" y="77"/>
      <point x="150" y="86"/>
      <point x="150" y="102" type="curve" smooth="yes"/>
      <point x="150" y="107"/>
      <point x="151" y="112"/>
      <point x="152" y="118" type="curve" smooth="yes"/>
      <point x="224" y="490" type="line"/>
      <point x="114" y="490" type="line"/>
      <point x="38" y="108" type="line" smooth="yes"/>
      <point x="36" y="98"/>
      <point x="35" y="88"/>
      <point x="35" y="79" type="curve" smooth="yes"/>
      <point x="35" y="28"/>
      <point x="69" y="-5"/>
    </contour>
  </outline>
</glyph>
<glyph name="j" format="1">
  <advance width="243"/>
  <unicode hex="006A"/>
  <outline>
    <contour>
      <point x="112" y="490" type="line"/>
      <point x="18" y="13" type="line" smooth="yes"/>
      <point x="1" y="-73"/>
      <point x="-43" y="-107"/>
      <point x="-130" y="-147" type="curve"/>
      <point x="-91" y="-223" type="line"/>
      <point x="20" y="-167"/>
      <point x="100" y="-120"/>
      <point x="129" y="25" type="curve" smooth="yes"/>
      <point x="221" y="490" type="line"/>
    </contour>
    <contour>
      <point x="202" y="721" type="curve" smooth="yes"/>
      <point x="156" y="721"/>
      <point x="129" y="686"/>
      <point x="129" y="645" type="curve" smooth="yes"/>
      <point x="129" y="609"/>
      <point x="147" y="582"/>
      <point x="190" y="582" type="curve" smooth="yes"/>
      <point x="236" y="582"/>
      <point x="264" y="617"/>
      <point x="264" y="656" type="curve" smooth="yes"/>
      <point x="264" y="696"/>
      <point x="244" y="721"/>
    </contour>
  </outline>
</glyph>
<glyph name="l" format="1">
  <advance width="278"/>
  <unicode hex="006C"/>
  <outline>
    <contour>
      <point x="228" y="85" type="line"/>
      <point x="225" y="84"/>
      <point x="200" y="77"/>
      <point x="172" y="77" type="curve" smooth="yes"/>
      <point x="154" y="77"/>
      <point x="145" y="84"/>
      <point x="145" y="102" type="curve" smooth="yes"/>
      <point x="145" y="107"/>
      <point x="146" y="112"/>
      <point x="147" y="118" type="curve" smooth="yes"/>
      <point x="263" y="725" type="line"/>
      <point x="150" y="705" type="line"/>
      <point x="33" y="107" type="line" smooth="yes"/>
      <point x="31" y="98"/>
      <point x="30" y="88"/>
      <point x="30" y="79" type="curve" smooth="yes"/>
      <point x="30" y="28"/>
      <point x="61" y="-5"/>
      <point x="123" y="-5" type="curve" smooth="yes"/>
      <point x="185" y="-5"/>
      <point x="228" y="13"/>
      <point x="228" y="13" type="curve"/>
    </contour>
  </outline>
</glyph>
<glyph name="m" format="1">
  <advance width="812"/>
  <unicode hex="006D"/>
  <outline>
    <contour>
      <point x="772" y="376" type="curve" smooth="yes"/>
      <point x="772" y="450"/>
      <point x="730" y="498"/>
      <point x="646" y="498" type="curve" smooth="yes"/>
      <point x="578" y="498"/>
      <point x="525" y="461"/>
      <point x="487" y="384" type="curve"/>
      <point x="484" y="453"/>
      <point x="443" y="498"/>
      <point x="365" y="498" type="curve" smooth="yes"/>
      <point x="293" y="498"/>
      <point x="231" y="452"/>
      <point x="195" y="361" type="curve" smooth="yes"/>
      <point x="180" y="323" type="line"/>
      <point x="183" y="353"/>
      <point x="189" y="387"/>
      <point x="189" y="415" type="curve" smooth="yes"/>
      <point x="189" y="456"/>
      <point x="178" y="482"/>
      <point x="163" y="500" type="curve"/>
      <point x="72" y="464" type="line"/>
      <point x="78" y="454"/>
      <point x="97" y="424"/>
      <point x="97" y="351" type="curve" smooth="yes"/>
      <point x="97" y="324"/>
      <point x="94" y="291"/>
      <point x="86" y="252" type="curve" smooth="yes"/>
      <point x="35" y="0" type="line"/>
      <point x="147" y="0" type="line"/>
      <point x="182" y="181" type="line" smooth="yes"/>
      <point x="202" y="288"/>
      <point x="271" y="408"/>
      <point x="330" y="408" type="curve" smooth="yes"/>
      <point x="366" y="408"/>
      <point x="378" y="383"/>
      <point x="378" y="351" type="curve" smooth="yes"/>
      <point x="378" y="331"/>
      <point x="374" y="291"/>
      <point x="366" y="252" type="curve" smooth="yes"/>
      <point x="316" y="0" type="line"/>
      <point x="428" y="0" type="line"/>
      <point x="463" y="182" type="line"/>
      <point x="483" y="288"/>
      <point x="551" y="408"/>
      <point x="610" y="408" type="curve" smooth="yes"/>
      <point x="646" y="408"/>
      <point x="658" y="383"/>
      <point x="658" y="351" type="curve" smooth="yes"/>
      <point x="658" y="265"/>
      <point x="600" y="164"/>
      <point x="600" y="60" type="curve" smooth="yes"/>
      <point x="600" y="42"/>
      <point x="600" y="22"/>
      <point x="604" y="0" type="curve"/>
      <point x="716" y="0" type="line"/>
      <point x="709" y="31"/>
      <point x="707" y="70"/>
      <point x="707" y="96" type="curve" smooth="yes"/>
      <point x="707" y="175"/>
      <point x="772" y="271"/>
    </contour>
  </outline>
</glyph>
<glyph name="n" format="1">
  <advance width="551"/>
  <unicode hex="006E"/>
  <outline>
    <contour>
      <point x="370" y="498" type="move" name="top"/>
    </contour>
    <contour>
      <point x="511" y="376" type="curve" smooth="yes"/>
      <point x="511" y="450"/>
      <point x="472" y="498"/>
      <point x="384" y="498" type="curve" smooth="yes"/>
      <point x="304" y="498"/>
      <point x="237" y="453"/>
      <point x="197" y="361" type="curve" smooth="yes"/>
      <point x="180" y="321" type="line"/>
      <point x="188" y="394"/>
      <point x="189" y="387"/>
      <point x="189" y="415" type="curve" smooth="yes"/>
      <point x="189" y="456"/>
      <point x="178" y="482"/>
      <point x="163" y="500" type="curve"/>
      <point x="72" y="464" type="line"/>
      <point x="78" y="454"/>
      <point x="97" y="424"/>
      <point x="97" y="351" type="curve" smooth="yes"/>
      <point x="97" y="324"/>
      <point x="94" y="291"/>
      <point x="86" y="252" type="curve" smooth="yes"/>
      <point x="35" y="0" type="line"/>
      <point x="147" y="0" type="line"/>
      <point x="178" y="159" type="line" smooth="yes"/>
      <point x="199" y="268"/>
      <point x="271" y="408"/>
      <point x="343" y="408" type="curve" smooth="yes"/>
      <point x="384" y="408"/>
      <point x="397" y="383"/>
      <point x="397" y="351" type="curve" smooth="yes"/>
      <point x="397" y="264"/>
      <point x="339" y="164"/>
      <point x="339" y="60" type="curve" smooth="yes"/>
      <point x="339" y="42"/>
      <point x="339" y="22"/>
      <point x="343" y="0" type="curve"/>
      <point x="454" y="0" type="line"/>
      <point x="448" y="31"/>
      <point x="446" y="70"/>
      <point x="446" y="96" type="curve" smooth="yes"/>
      <point x="446" y="175"/>
      <point x="511" y="271"/>
    </contour>
  </outline>
</glyph>
<glyph name="o" format="1">
  <advance width="506"/>
  <unicode hex="006F"/>
  <outline>
    <contour>
      <point x="308" y="502" type="move" name="top"/>
    </contour>
    <contour>
      <point x="309" y="502" type="curve" smooth="yes"/>
      <point x="130" y="502"/>
      <point x="30" y="345"/>
      <point x="30" y="156" type="curve" smooth="yes"/>
      <point x="30" y="71"/>
      <point x="71" y="-11"/>
      <point x="197" y="-11" type="curve" smooth="yes"/>
      <point x="377" y="-11"/>
      <point x="476" y="144"/>
      <point x="476" y="335" type="curve" smooth="yes"/>
      <point x="476" y="420"/>
      <point x="436" y="502"/>
    </contour>
    <contour>
      <point x="286" y="425" type="curve" smooth="yes"/>
      <point x="330" y="425"/>
      <point x="357" y="404"/>
      <point x="357" y="342" type="curve" smooth="yes"/>
      <point x="357" y="232"/>
      <point x="308" y="66"/>
      <point x="220" y="66" type="curve" smooth="yes"/>
      <point x="176" y="66"/>
      <point x="149" y="87"/>
      <point x="149" y="149" type="curve" smooth="yes"/>
      <point x="149" y="260"/>
      <point x="198" y="425"/>
    </contour>
  </outline>
</glyph>
<glyph name="p" format="1">
  <advance width="535"/>
  <unicode hex="0070"/>
  <outline>
    <contour>
      <point x="-5" y="-222" type="line"/>
      <point x="108" y="-202" type="line"/>
      <point x="148" y="1" type="line"/>
      <point x="171" y="-4"/>
      <point x="197" y="-8"/>
      <point x="224" y="-8" type="curve" smooth="yes"/>
      <point x="404" y="-8"/>
      <point x="505" y="144"/>
      <point x="505" y="333" type="curve" smooth="yes"/>
      <point x="505" y="416"/>
      <point x="467" y="498"/>
      <point x="372" y="498" type="curve" smooth="yes"/>
      <point x="302" y="498"/>
      <point x="241" y="466"/>
      <point x="195" y="360" type="curve" smooth="yes"/>
      <point x="182" y="331" type="line"/>
      <point x="185" y="351"/>
      <point x="190" y="394"/>
      <point x="190" y="415" type="curve" smooth="yes"/>
      <point x="190" y="456"/>
      <point x="179" y="482"/>
      <point x="164" y="500" type="curve"/>
      <point x="73" y="464" type="line"/>
      <point x="79" y="454"/>
      <point x="98" y="424"/>
      <point x="98" y="351" type="curve" smooth="yes"/>
      <point x="98" y="324"/>
      <point x="95" y="291"/>
      <point x="87" y="252" type="curve" smooth="yes"/>
    </contour>
    <contour>
      <point x="163" y="79" type="curve"/>
      <point x="168" y="101" type="line" smooth="yes"/>
      <point x="210" y="286"/>
      <point x="267" y="416"/>
      <point x="335" y="416" type="curve" smooth="yes"/>
      <point x="369" y="416"/>
      <point x="386" y="395"/>
      <point x="386" y="337" type="curve" smooth="yes"/>
      <point x="386" y="222"/>
      <point x="341" y="69"/>
      <point x="222" y="69" type="curve" smooth="yes"/>
      <point x="205" y="69"/>
      <point x="183" y="72"/>
    </contour>
  </outline>
</glyph>
<glyph name="q" format="1">
  <advance width="518"/>
  <unicode hex="0071"/>
  <outline>
    <contour>
      <point x="30" y="157" type="curve" smooth="yes"/>
      <point x="30" y="74"/>
      <point x="68" y="-8"/>
      <point x="163" y="-8" type="curve" smooth="yes"/>
      <point x="221" y="-8"/>
      <point x="274" y="14"/>
      <point x="316" y="83" type="curve"/>
      <point x="300" y="34"/>
      <point x="282" y="-23"/>
      <point x="274" y="-68" type="curve" smooth="yes"/>
      <point x="244" y="-222" type="line"/>
      <point x="356" y="-202" type="line"/>
      <point x="487" y="448" type="line"/>
      <point x="493" y="470" type="line"/>
      <point x="434" y="474" type="line"/>
      <point x="402" y="486"/>
      <point x="358" y="498"/>
      <point x="311" y="498" type="curve" smooth="yes"/>
      <point x="131" y="498"/>
      <point x="30" y="346"/>
    </contour>
    <contour>
      <point x="200" y="74" type="curve" smooth="yes"/>
      <point x="166" y="74"/>
      <point x="149" y="95"/>
      <point x="149" y="153" type="curve" smooth="yes"/>
      <point x="149" y="268"/>
      <point x="193" y="421"/>
      <point x="313" y="421" type="curve" smooth="yes"/>
      <point x="327" y="421"/>
      <point x="349" y="418"/>
      <point x="368" y="412" type="curve"/>
      <point x="353" y="331" type="line" smooth="yes"/>
      <point x="328" y="196"/>
      <point x="258" y="74"/>
    </contour>
  </outline>
</glyph>
<glyph name="r" format="1">
  <advance width="378"/>
  <unicode hex="0072"/>
  <outline>
    <contour>
      <point x="413" y="458" type="line"/>
      <point x="397" y="482"/>
      <point x="370" y="499"/>
      <point x="325" y="499" type="curve" smooth="yes"/>
      <point x="251" y="499"/>
      <point x="208" y="440"/>
      <point x="180" y="320" type="curve"/>
      <point x="183" y="351"/>
      <point x="189" y="387"/>
      <point x="189" y="415" type="curve" smooth="yes"/>
      <point x="189" y="456"/>
      <point x="178" y="482"/>
      <point x="163" y="500" type="curve"/>
      <point x="72" y="464" type="line"/>
      <point x="78" y="454"/>
      <point x="97" y="424"/>
      <point x="97" y="351" type="curve" smooth="yes"/>
      <point x="97" y="324"/>
      <point x="94" y="291"/>
      <point x="86" y="252" type="curve" smooth="yes"/>
      <point x="35" y="0" type="line"/>
      <point x="147" y="0" type="line"/>
      <point x="195" y="245" type="line"/>
      <point x="217" y="321"/>
      <point x="254" y="397"/>
      <point x="291" y="397" type="curve" smooth="yes"/>
      <point x="321" y="397"/>
      <point x="338" y="383"/>
      <point x="355" y="365" type="curve"/>
    </contour>
  </outline>
</glyph>
<glyph name="s" format="1">
  <advance width="415"/>
  <unicode hex="0073"/>
  <outline>
    <contour>
      <point x="257" y="502" type="curve" smooth="yes"/>
      <point x="340" y="502"/>
      <point x="379" y="458"/>
      <point x="389" y="407" type="curve"/>
      <point x="306" y="374" type="line"/>
      <point x="296" y="399"/>
      <point x="292" y="426"/>
      <point x="249" y="426" type="curve" smooth="yes"/>
      <point x="204" y="426"/>
      <point x="186" y="395"/>
      <point x="186" y="368" type="curve" smooth="yes"/>
      <point x="186" y="331"/>
      <point x="218" y="308"/>
      <point x="240" y="296" type="curve" smooth="yes"/>
      <point x="269" y="280" type="line" smooth="yes"/>
      <point x="313" y="256"/>
      <point x="352" y="228"/>
      <point x="352" y="146" type="curve" smooth="yes"/>
      <point x="352" y="60"/>
      <point x="286" y="-11"/>
      <point x="159" y="-11" type="curve" smooth="yes"/>
      <point x="74" y="-11"/>
      <point x="-5" y="37"/>
      <point x="-5" y="37" type="curve"/>
      <point x="39" y="116" type="line"/>
      <point x="39" y="116"/>
      <point x="112" y="70"/>
      <point x="162" y="70" type="curve" smooth="yes"/>
      <point x="212" y="70"/>
      <point x="237" y="96"/>
      <point x="237" y="127" type="curve" smooth="yes"/>
      <point x="237" y="172"/>
      <point x="208" y="192"/>
      <point x="176" y="209" type="curve" smooth="yes"/>
      <point x="151" y="222" type="line" smooth="yes"/>
      <point x="119" y="239"/>
      <point x="70" y="265"/>
      <point x="70" y="351" type="curve" smooth="yes"/>
      <point x="70" y="436"/>
      <point x="134" y="502"/>
    </contour>
  </outline>
</glyph>
<glyph name="t" format="1">
  <advance width="363"/>
  <unicode hex="0074"/>
  <outline>
    <contour>
      <point x="50" y="409" type="line"/>
      <point x="135" y="409" type="line"/>
      <point x="74" y="104" type="line" smooth="yes"/>
      <point x="72" y="94"/>
      <point x="71" y="85"/>
      <point x="71" y="76" type="curve" smooth="yes"/>
      <point x="71" y="22"/>
      <point x="102" y="-8"/>
      <point x="182" y="-8" type="curve" smooth="yes"/>
      <point x="253" y="-8"/>
      <point x="309" y="16"/>
      <point x="309" y="16" type="curve"/>
      <point x="309" y="91" type="line"/>
      <point x="309" y="91"/>
      <point x="261" y="74"/>
      <point x="224" y="74" type="curve" smooth="yes"/>
      <point x="195" y="74"/>
      <point x="186" y="81"/>
      <point x="186" y="99" type="curve" smooth="yes"/>
      <point x="186" y="103"/>
      <point x="187" y="108"/>
      <point x="188" y="114" type="curve" smooth="yes"/>
      <point x="244" y="409" type="line"/>
      <point x="358" y="409" type="line"/>
      <point x="372" y="490" type="line"/>
      <point x="260" y="490" type="line"/>
      <point x="289" y="636" type="line"/>
      <point x="194" y="615" type="line"/>
      <point x="150" y="490" type="line"/>
      <point x="50" y="490" type="line"/>
    </contour>
  </outline>
</glyph>
<glyph name="v" format="1">
  <advance width="525"/>
  <unicode hex="0076"/>
  <outline>
    <contour>
      <point x="385" y="473" type="line"/>
      <point x="389" y="459"/>
      <point x="391" y="420"/>
      <point x="391" y="403" type="curve" smooth="yes"/>
      <point x="391" y="266"/>
      <point x="304" y="70"/>
      <point x="212" y="70" type="curve" smooth="yes"/>
      <point x="176" y="70"/>
      <point x="157" y="95"/>
      <point x="157" y="132" type="curve" smooth="yes"/>
      <point x="157" y="142"/>
      <point x="162" y="180"/>
      <point x="164" y="192" type="curve" smooth="yes"/>
      <point x="221" y="490" type="line"/>
      <point x="112" y="490" type="line"/>
      <point x="54" y="189" type="line" smooth="yes"/>
      <point x="51" y="171"/>
      <point x="45" y="125"/>
      <point x="45" y="106" type="curve" smooth="yes"/>
      <point x="45" y="28"/>
      <point x="90" y="-8"/>
      <point x="174" y="-8" type="curve" smooth="yes"/>
      <point x="257" y="-8"/>
      <point x="306" y="10"/>
      <point x="357" y="53" type="curve" smooth="yes"/>
      <point x="445" y="127"/>
      <point x="500" y="268"/>
      <point x="500" y="396" type="curve" smooth="yes"/>
      <point x="500" y="428"/>
      <point x="495" y="468"/>
      <point x="481" y="497" type="curve"/>
    </contour>
  </outline>
</glyph>
<glyph name="z" format="1">
  <advance width="399"/>
  <unicode hex="007A"/>
  <outline>
    <contour>
      <point x="360" y="101" type="line"/>
      <point x="330" y="83"/>
      <point x="306" y="75"/>
      <point x="270" y="75" type="curve" smooth="yes"/>
      <point x="233" y="75"/>
      <point x="191" y="83"/>
      <point x="148" y="83" type="curve" smooth="yes"/>
      <point x="140" y="83"/>
      <point x="128" y="82"/>
      <point x="116" y="81" type="curve"/>
      <point x="389" y="422" type="line"/>
      <point x="389" y="490" type="line"/>
      <point x="67" y="490" type="line"/>
      <point x="67" y="407" type="line"/>
      <point x="138" y="407" type="line" smooth="yes"/>
      <point x="181" y="407"/>
      <point x="221" y="408"/>
      <point x="259" y="410" type="curve"/>
      <point x="-20" y="70" type="line"/>
      <point x="-20" y="0" type="line"/>
      <point x="37" y="0" type="line" smooth="yes"/>
      <point x="119" y="0"/>
      <point x="190" y="-14"/>
      <point x="271" y="-14" type="curve" smooth="yes"/>
      <point x="320" y="-14"/>
      <point x="353" y="-3"/>
      <point x="385" y="17" type="curve"/>
    </contour>
  </outline>
</glyph>
<glyph name="braceleft" format="1">
  <advance width="370"/>
  <unicode hex="007B"/>
  <outline>
    <contour>
      <point x="33" y="-55" type="line" smooth="yes"/>
      <point x="30" y="-67"/>
      <point x="25" y="-86"/>
      <point x="25" y="-94" type="curve" smooth="yes"/>
      <point x="25" y="-165"/>
      <point x="75" y="-192"/>
      <point x="145" y="-192" type="curve" smooth="yes"/>
      <point x="170" y="-192"/>
      <point x="186" y="-190"/>
      <point x="210" y="-186" type="curve"/>
      <point x="228" y="-97" type="line"/>
      <point x="209" y="-103"/>
      <point x="190" y="-107"/>
      <point x="178" y="-107" type="curve" smooth="yes"/>
      <point x="156" y="-107"/>
      <point x="139" y="-93"/>
      <point x="139" y="-70" type="curve" smooth="yes"/>
      <point x="139" y="-66"/>
      <point x="140" y="-62"/>
      <point x="141" y="-57" type="curve" smooth="yes"/>
      <point x="184" y="110" type="line" smooth="yes"/>
      <point x="189" y="130"/>
      <point x="195" y="158"/>
      <point x="195" y="178" type="curve" smooth="yes"/>
      <point x="195" y="216"/>
      <point x="172" y="241"/>
      <point x="130" y="262" type="curve"/>
      <point x="214" y="305"/>
      <point x="238" y="360"/>
      <point x="245" y="420" type="curve" smooth="yes"/>
      <point x="265" y="593" type="line" smooth="yes"/>
      <point x="267" y="610"/>
      <point x="282" y="637"/>
      <point x="318" y="637" type="curve" smooth="yes"/>
      <point x="329" y="637"/>
      <point x="350" y="632"/>
      <point x="366" y="626" type="curve"/>
      <point x="383" y="716" type="line"/>
      <point x="358" y="721"/>
      <point x="340" y="724"/>
      <point x="315" y="724" type="curve" smooth="yes"/>
      <point x="226" y="724"/>
      <point x="166" y="678"/>
      <point x="157" y="609" type="curve" smooth="yes"/>
      <point x="132" y="406" type="line" smooth="yes"/>
      <point x="124" y="345"/>
      <point x="77" y="312"/>
      <point x="30" y="302" type="curve"/>
      <point x="30" y="224" type="line"/>
      <point x="73" y="217"/>
      <point x="84" y="185"/>
      <point x="84" y="150" type="curve" smooth="yes"/>
      <point x="84" y="137"/>
      <point x="81" y="126"/>
      <point x="78" y="116" type="curve" smooth="yes"/>
    </contour>
  </outline>
</glyph>
<glyph name="bar" format="1">
  <advance width="329"/>
  <unicode hex="007C"/>
  <outline>
    <contour>
      <point x="187" y="729" type="line"/>
      <point x="20" y="-126" type="line"/>
      <point x="122" y="-126" type="line"/>
      <point x="289" y="729" type="line"/>
    </contour>
  </outline>
</glyph>
<glyph name="braceright" format="1">
  <advance width="368"/>
  <unicode hex="007D"/>
  <outline>
    <contour>
      <point x="280" y="587" type="line" smooth="yes"/>
      <point x="283" y="599"/>
      <point x="288" y="618"/>
      <point x="288" y="626" type="curve" smooth="yes"/>
      <point x="288" y="697"/>
      <point x="238" y="724"/>
      <point x="168" y="724" type="curve" smooth="yes"/>
      <point x="143" y="724"/>
      <point x="127" y="722"/>
      <point x="103" y="718" type="curve"/>
      <point x="85" y="629" type="line"/>
      <point x="104" y="635"/>
      <point x="123" y="639"/>
      <point x="135" y="639" type="curve" smooth="yes"/>
      <point x="157" y="639"/>
      <point x="174" y="625"/>
      <point x="174" y="602" type="curve" smooth="yes"/>
      <point x="174" y="598"/>
      <point x="173" y="594"/>
      <point x="172" y="589" type="curve" smooth="yes"/>
      <point x="129" y="422" type="line" smooth="yes"/>
      <point x="124" y="402"/>
      <point x="118" y="374"/>
      <point x="118" y="354" type="curve" smooth="yes"/>
      <point x="118" y="316"/>
      <point x="141" y="291"/>
      <point x="183" y="270" type="curve"/>
      <point x="99" y="227"/>
      <point x="75" y="172"/>
      <point x="68" y="112" type="curve" smooth="yes"/>
      <point x="48" y="-61" type="line" smooth="yes"/>
      <point x="46" y="-79"/>
      <point x="31" y="-105"/>
      <point x="-5" y="-105" type="curve" smooth="yes"/>
      <point x="-16" y="-105"/>
      <point x="-37" y="-100"/>
      <point x="-53" y="-94" type="curve"/>
      <point x="-70" y="-184" type="line"/>
      <point x="-45" y="-189"/>
      <point x="-27" y="-192"/>
      <point x="-2" y="-192" type="curve" smooth="yes"/>
      <point x="87" y="-192"/>
      <point x="147" y="-146"/>
      <point x="156" y="-77" type="curve" smooth="yes"/>
      <point x="181" y="126" type="line" smooth="yes"/>
      <point x="189" y="187"/>
      <point x="236" y="220"/>
      <point x="283" y="230" type="curve"/>
      <point x="283" y="307" type="line"/>
      <point x="240" y="314"/>
      <point x="229" y="347"/>
      <point x="229" y="382" type="curve" smooth="yes"/>
      <point x="229" y="395"/>
      <point x="232" y="406"/>
      <point x="235" y="416" type="curve" smooth="yes"/>
    </contour>
  </outline>
</glyph>
<glyph name="asciitilde" format="1">
  <advance width="503"/>
  <unicode hex="007E"/>
  <outline>
    <contour>
      <point x="184" y="391" type="curve" smooth="yes"/>
      <point x="119" y="391"/>
      <point x="73" y="342"/>
      <point x="45" y="306" type="curve"/>
      <point x="85" y="262" type="line"/>
      <point x="119" y="293"/>
      <point x="132" y="308"/>
      <point x="171" y="308" type="curve" smooth="yes"/>
      <point x="231" y="308"/>
      <point x="244" y="248"/>
      <point x="319" y="248" type="curve" smooth="yes"/>
      <point x="384" y="248"/>
      <point x="430" y="297"/>
      <point x="458" y="332" type="curve"/>
      <point x="418" y="377" type="line"/>
      <point x="384" y="345"/>
      <point x="370" y="331"/>
      <point x="332" y="331" type="curve" smooth="yes"/>
      <point x="273" y="331"/>
      <point x="259" y="391"/>
    </contour>
  </outline>
</glyph>
<glyph name="cent" format="1">
  <advance width="520"/>
  <unicode hex="00A2"/>
  <outline>
    <contour>
      <point x="295" y="579" type="line"/>
      <point x="371" y="579" type="line"/>
      <point x="357" y="492" type="line"/>
      <point x="430" y="490"/>
      <point x="458" y="450"/>
      <point x="470" y="405" type="curve"/>
      <point x="386" y="368" type="line"/>
      <point x="377" y="389"/>
      <point x="371" y="414"/>
      <point x="346" y="418" type="curve"/>
      <point x="293" y="81" type="line"/>
      <point x="322" y="85"/>
      <point x="345" y="98"/>
      <point x="375" y="118" type="curve"/>
      <point x="406" y="46" type="line"/>
      <point x="380" y="22"/>
      <point x="340" y="5"/>
      <point x="281" y="-1" type="curve"/>
      <point x="263" y="-117" type="line"/>
      <point x="187" y="-117" type="line"/>
      <point x="205" y="-2" type="line"/>
      <point x="92" y="5"/>
      <point x="55" y="83"/>
      <point x="55" y="164" type="curve" smooth="yes"/>
      <point x="55" y="341"/>
      <point x="149" y="473"/>
      <point x="281" y="491" type="curve"/>
    </contour>
    <contour>
      <point x="174" y="161" type="curve" smooth="yes"/>
      <point x="174" y="113"/>
      <point x="190" y="90"/>
      <point x="218" y="82" type="curve"/>
      <point x="268" y="410" type="line"/>
      <point x="199" y="377"/>
      <point x="174" y="257"/>
    </contour>
  </outline>
</glyph>
<glyph name="sterling" format="1">
  <advance width="594"/>
  <unicode hex="00A3"/>
  <outline>
    <contour>
      <point x="438" y="101" type="line"/>
      <point x="408" y="83"/>
      <point x="383" y="75"/>
      <point x="348" y="75" type="curve" smooth="yes"/>
      <point x="311" y="75"/>
      <point x="269" y="83"/>
      <point x="227" y="83" type="curve" smooth="yes"/>
      <point x="210" y="83"/>
      <point x="177" y="80"/>
      <point x="156" y="76" type="curve"/>
      <point x="179" y="100"/>
      <point x="210" y="142"/>
      <point x="231" y="212" type="curve" smooth="yes"/>
      <point x="242" y="252" type="line"/>
      <point x="414" y="252" type="line"/>
      <point x="446" y="342" type="line"/>
      <point x="269" y="342" type="line"/>
      <point x="297" y="437" type="line" smooth="yes"/>
      <point x="321" y="522"/>
      <point x="368" y="551"/>
      <point x="415" y="551" type="curve" smooth="yes"/>
      <point x="474" y="551"/>
      <point x="485" y="516"/>
      <point x="494" y="479" type="curve"/>
      <point x="579" y="517" type="line"/>
      <point x="573" y="571"/>
      <point x="544" y="636"/>
      <point x="426" y="636" type="curve" smooth="yes"/>
      <point x="294" y="636"/>
      <point x="212" y="554"/>
      <point x="179" y="429" type="curve" smooth="yes"/>
      <point x="156" y="342" type="line"/>
      <point x="85" y="342" type="line"/>
      <point x="67" y="252" type="line"/>
      <point x="131" y="252" type="line"/>
      <point x="105" y="151" type="line" smooth="yes"/>
      <point x="91" y="96"/>
      <point x="48" y="69"/>
      <point x="40" y="65" type="curve"/>
      <point x="62" y="-2" type="line"/>
      <point x="74" y="-1"/>
      <point x="83" y="0"/>
      <point x="96" y="0" type="curve" smooth="yes"/>
      <point x="186" y="0"/>
      <point x="262" y="-14"/>
      <point x="349" y="-14" type="curve" smooth="yes"/>
      <point x="398" y="-14"/>
      <point x="431" y="-3"/>
      <point x="463" y="17" type="curve"/>
    </contour>
  </outline>
</glyph>
<glyph name="currency" format="1">
  <advance width="649"/>
  <unicode hex="00A4"/>
  <outline>
    <contour>
      <point x="557" y="563" type="line"/>
      <point x="460" y="472" type="line"/>
      <point x="432" y="489"/>
      <point x="396" y="498"/>
      <point x="355" y="498" type="curve" smooth="yes"/>
      <point x="315" y="498"/>
      <point x="275" y="488"/>
      <point x="238" y="471" type="curve"/>
      <point x="176" y="563" type="line"/>
      <point x="101" y="510" type="line"/>
      <point x="171" y="424" type="line"/>
      <point x="122" y="377"/>
      <point x="90" y="311"/>
      <point x="90" y="228" type="curve" smooth="yes"/>
      <point x="90" y="194"/>
      <point x="97" y="165"/>
      <point x="110" y="140" type="curve"/>
      <point x="10" y="59" type="line"/>
      <point x="67" y="-5" type="line"/>
      <point x="163" y="86" type="line"/>
      <point x="192" y="69"/>
      <point x="227" y="60"/>
      <point x="269" y="60" type="curve" smooth="yes"/>
      <point x="309" y="60"/>
      <point x="349" y="69"/>
      <point x="385" y="87" type="curve"/>
      <point x="448" y="-5" type="line"/>
      <point x="524" y="48" type="line"/>
      <point x="452" y="134" type="line"/>
      <point x="502" y="180"/>
      <point x="534" y="247"/>
      <point x="534" y="330" type="curve" smooth="yes"/>
      <point x="534" y="363"/>
      <point x="527" y="393"/>
      <point x="513" y="418" type="curve"/>
      <point x="614" y="499" type="line"/>
    </contour>
    <contour>
      <point x="283" y="135" type="curve" smooth="yes"/>
      <point x="203" y="135"/>
      <point x="175" y="180"/>
      <point x="175" y="248" type="curve" smooth="yes"/>
      <point x="175" y="343"/>
      <point x="254" y="423"/>
      <point x="341" y="423" type="curve" smooth="yes"/>
      <point x="421" y="423"/>
      <point x="449" y="378"/>
      <point x="449" y="310" type="curve" smooth="yes"/>
      <point x="449" y="215"/>
      <point x="370" y="135"/>
    </contour>
  </outline>
</glyph>
<glyph name="brokenbar" format="1">
  <advance width="327"/>
  <unicode hex="00A6"/>
  <outline>
    <contour>
      <point x="186" y="729" type="line"/>
      <point x="113" y="353" type="line"/>
      <point x="215" y="353" type="line"/>
      <point x="287" y="729" type="line"/>
    </contour>
    <contour>
      <point x="92" y="248" type="line"/>
      <point x="20" y="-126" type="line"/>
      <point x="121" y="-126" type="line"/>
      <point x="194" y="248" type="line"/>
    </contour>
  </outline>
</glyph>
<glyph name="section" format="1">
  <advance width="508"/>
  <unicode hex="00A7"/>
  <outline>
    <contour>
      <point x="145" y="-216" type="curve" smooth="yes"/>
      <point x="100" y="-216"/>
      <point x="72" y="-202"/>
      <point x="45" y="-178" type="curve"/>
      <point x="90" y="-106" type="line"/>
      <point x="107" y="-120"/>
      <point x="122" y="-132"/>
      <point x="155" y="-132" type="curve" smooth="yes"/>
      <point x="196" y="-132"/>
      <point x="222" y="-108"/>
      <point x="222" y="-67" type="curve" smooth="yes"/>
      <point x="222" y="26"/>
      <point x="30" y="73"/>
      <point x="30" y="213" type="curve" smooth="yes"/>
      <point x="30" y="311"/>
      <point x="103" y="367"/>
      <point x="166" y="393" type="curve"/>
      <point x="153" y="415"/>
      <point x="145" y="440"/>
      <point x="145" y="468" type="curve" smooth="yes"/>
      <point x="145" y="563"/>
      <point x="230" y="643"/>
      <point x="338" y="643" type="curve" smooth="yes"/>
      <point x="383" y="643"/>
      <point x="411" y="629"/>
      <point x="438" y="605" type="curve"/>
      <point x="393" y="533" type="line"/>
      <point x="376" y="547"/>
      <point x="361" y="559"/>
      <point x="328" y="559" type="curve" smooth="yes"/>
      <point x="287" y="559"/>
      <point x="261" y="535"/>
      <point x="261" y="494" type="curve" smooth="yes"/>
      <point x="261" y="401"/>
      <point x="453" y="354"/>
      <point x="453" y="214" type="curve" smooth="yes"/>
      <point x="453" y="115"/>
      <point x="379" y="59"/>
      <point x="315" y="34" type="curve"/>
      <point x="328" y="11"/>
      <point x="337" y="-13"/>
      <point x="337" y="-41" type="curve" smooth="yes"/>
      <point x="337" y="-136"/>
      <point x="253" y="-216"/>
    </contour>
    <contour>
      <point x="337" y="182" type="curve" smooth="yes"/>
      <point x="337" y="235"/>
      <point x="271" y="278"/>
      <point x="216" y="332" type="curve"/>
      <point x="178" y="319"/>
      <point x="146" y="294"/>
      <point x="146" y="245" type="curve" smooth="yes"/>
      <point x="146" y="191"/>
      <point x="212" y="147"/>
      <point x="266" y="94" type="curve"/>
      <point x="305" y="108"/>
      <point x="337" y="132"/>
    </contour>
  </outline>
</glyph>
<glyph name="dieresis" format="1">
  <advance width="478"/>
  <unicode hex="00A8"/>
  <outline>
    <contour>
      <point x="217" y="498" type="move" name="_top"/>
    </contour>
    <contour>
      <point x="217" y="498" type="move" name="_topUC"/>
    </contour>
    <contour>
      <point x="148" y="689" type="curve" smooth="yes"/>
      <point x="108" y="689"/>
      <point x="83" y="657"/>
      <point x="83" y="621" type="curve" smooth="yes"/>
      <point x="83" y="588"/>
      <point x="100" y="564"/>
      <point x="139" y="564" type="curve" smooth="yes"/>
      <point x="179" y="564"/>
      <point x="205" y="595"/>
      <point x="205" y="630" type="curve" smooth="yes"/>
      <point x="205" y="666"/>
      <point x="187" y="689"/>
    </contour>
    <contour>
      <point x="338" y="689" type="curve" smooth="yes"/>
      <point x="297" y="689"/>
      <point x="272" y="657"/>
      <point x="272" y="621" type="curve" smooth="yes"/>
      <point x="272" y="588"/>
      <point x="289" y="564"/>
      <point x="328" y="564" type="curve" smooth="yes"/>
      <point x="368" y="564"/>
      <point x="394" y="595"/>
      <point x="394" y="630" type="curve" smooth="yes"/>
      <point x="394" y="666"/>
      <point x="376" y="689"/>
    </contour>
  </outline>
</glyph>
<glyph name="ordfeminine" format="1">
  <advance width="414"/>
  <unicode hex="00AA"/>
  <outline>
    <contour>
      <point x="183" y="383" type="curve" smooth="yes"/>
      <point x="167" y="383"/>
      <point x="158" y="394"/>
      <point x="158" y="427" type="curve" smooth="yes"/>
      <point x="158" y="499"/>
      <point x="185" y="595"/>
      <point x="258" y="595" type="curve" smooth="yes"/>
      <point x="267" y="595"/>
      <point x="280" y="594"/>
      <point x="289" y="590" type="curve"/>
      <point x="282" y="551" type="line" smooth="yes"/>
      <point x="271" y="488"/>
      <point x="231" y="383"/>
    </contour>
    <contour>
      <point x="158" y="309" type="curve" smooth="yes"/>
      <point x="200" y="309"/>
      <point x="250" y="342"/>
      <point x="272" y="410" type="curve"/>
      <point x="271" y="387"/>
      <point x="271" y="384"/>
      <point x="271" y="382" type="curve" smooth="yes"/>
      <point x="271" y="348"/>
      <point x="285" y="323"/>
      <point x="300" y="306" type="curve"/>
      <point x="379" y="337" type="line"/>
      <point x="368" y="353"/>
      <point x="349" y="379"/>
      <point x="349" y="421" type="curve" smooth="yes"/>
      <point x="349" y="436"/>
      <point x="351" y="454"/>
      <point x="356" y="480" type="curve" smooth="yes"/>
      <point x="388" y="647" type="line"/>
      <point x="338" y="649" type="line"/>
      <point x="298" y="665"/>
      <point x="271" y="665"/>
      <point x="256" y="665" type="curve" smooth="yes"/>
      <point x="131" y="665"/>
      <point x="60" y="560"/>
      <point x="60" y="429" type="curve" smooth="yes"/>
      <point x="60" y="368"/>
      <point x="88" y="309"/>
    </contour>
  </outline>
</glyph>
<glyph name="guillemotleft" format="1">
  <advance width="571"/>
  <unicode hex="00AB"/>
  <outline>
    <contour>
      <point x="271" y="74" type="line"/>
      <point x="242" y="120"/>
      <point x="197" y="194"/>
      <point x="166" y="244" type="curve"/>
      <point x="324" y="405" type="line"/>
      <point x="278" y="463" type="line"/>
      <point x="279" y="464"/>
      <point x="126" y="343"/>
      <point x="35" y="245" type="curve"/>
      <point x="95" y="147"/>
      <point x="210" y="27"/>
      <point x="210" y="27" type="curve"/>
    </contour>
    <contour>
      <point x="483" y="74" type="line"/>
      <point x="454" y="120"/>
      <point x="408" y="194"/>
      <point x="377" y="244" type="curve"/>
      <point x="536" y="405" type="line"/>
      <point x="489" y="463" type="line"/>
      <point x="490" y="464"/>
      <point x="337" y="343"/>
      <point x="248" y="245" type="curve"/>
      <point x="308" y="147"/>
      <point x="422" y="27"/>
      <point x="422" y="27" type="curve"/>
    </contour>
  </outline>
</glyph>
<glyph name="logicalnot" format="1">
  <advance width="515"/>
  <unicode hex="00AC"/>
  <outline>
    <contour>
      <point x="50" y="308" type="line"/>
      <point x="365" y="308" type="line"/>
      <point x="342" y="182" type="line"/>
      <point x="425" y="182" type="line"/>
      <point x="464" y="395" type="line"/>
      <point x="67" y="395" type="line"/>
    </contour>
  </outline>
</glyph>
<glyph name="uni00AD" format="1">
  <advance width="380"/>
  <unicode hex="00AD"/>
  <outline>
    <contour>
      <point x="45" y="278" type="line"/>
      <point x="319" y="278" type="line"/>
      <point x="335" y="360" type="line"/>
      <point x="62" y="360" type="line"/>
    </contour>
  </outline>
</glyph>
<glyph name="macron" format="1">
  <advance width="479"/>
  <unicode hex="00AF"/>
  <outline>
    <contour>
      <point x="217" y="498" type="move" name="_top"/>
    </contour>
    <contour>
      <point x="77" y="599" type="line"/>
      <point x="389" y="599" type="line"/>
      <point x="402" y="682" type="line"/>
      <point x="90" y="682" type="line"/>
    </contour>
  </outline>
</glyph>
<glyph name="degree" format="1">
  <advance width="249"/>
  <unicode hex="00B0"/>
  <outline>
    <contour>
      <point x="176" y="661" type="curve" smooth="yes"/>
      <point x="202" y="661"/>
      <point x="216" y="644"/>
      <point x="216" y="617" type="curve" smooth="yes"/>
      <point x="216" y="579"/>
      <point x="192" y="542"/>
      <point x="153" y="542" type="curve" smooth="yes"/>
      <point x="126" y="542"/>
      <point x="112" y="559"/>
      <point x="112" y="585" type="curve" smooth="yes"/>
      <point x="112" y="624"/>
      <point x="137" y="661"/>
    </contour>
    <contour>
      <point x="141" y="485" type="curve" smooth="yes"/>
      <point x="222" y="485"/>
      <point x="278" y="555"/>
      <point x="278" y="628" type="curve" smooth="yes"/>
      <point x="278" y="680"/>
      <point x="243" y="718"/>
      <point x="188" y="718" type="curve" smooth="yes"/>
      <point x="106" y="718"/>
      <point x="50" y="649"/>
      <point x="50" y="575" type="curve" smooth="yes"/>
      <point x="50" y="522"/>
      <point x="85" y="485"/>
    </contour>
  </outline>
</glyph>
<glyph name="plusminus" format="1">
  <advance width="561"/>
  <unicode hex="00B1"/>
  <outline>
    <contour>
      <point x="287" y="495" type="line"/>
      <point x="257" y="342" type="line"/>
      <point x="115" y="342" type="line"/>
      <point x="98" y="255" type="line"/>
      <point x="241" y="255" type="line"/>
      <point x="215" y="120" type="line"/>
      <point x="72" y="120" type="line"/>
      <point x="55" y="32" type="line"/>
      <point x="435" y="32" type="line"/>
      <point x="451" y="120" type="line"/>
      <point x="307" y="120" type="line"/>
      <point x="332" y="255" type="line"/>
      <point x="479" y="255" type="line"/>
      <point x="496" y="342" type="line"/>
      <point x="349" y="342" type="line"/>
      <point x="378" y="495" type="line"/>
    </contour>
  </outline>
</glyph>
<glyph name="uni00B2" format="1">
  <advance width="326"/>
  <unicode hex="00B2"/>
  <outline>
    <contour>
      <point x="103" y="566" type="line"/>
      <point x="142" y="584"/>
      <point x="165" y="598"/>
      <point x="188" y="598" type="curve" smooth="yes"/>
      <point x="204" y="598"/>
      <point x="210" y="586"/>
      <point x="210" y="572" type="curve" smooth="yes"/>
      <point x="210" y="544"/>
      <point x="189" y="524"/>
      <point x="129" y="473" type="curve" smooth="yes"/>
      <point x="30" y="388" type="line"/>
      <point x="30" y="315" type="line"/>
      <point x="251" y="315" type="line"/>
      <point x="265" y="388" type="line"/>
      <point x="142" y="388" type="line"/>
      <point x="185" y="424" type="line" smooth="yes"/>
      <point x="253" y="481"/>
      <point x="306" y="524"/>
      <point x="306" y="589" type="curve" smooth="yes"/>
      <point x="306" y="639"/>
      <point x="261" y="669"/>
      <point x="200" y="669" type="curve" smooth="yes"/>
      <point x="161" y="669"/>
      <point x="125" y="657"/>
      <point x="79" y="635" type="curve"/>
    </contour>
  </outline>
</glyph>
<glyph name="uni00B3" format="1">
  <advance width="335"/>
  <unicode hex="00B3"/>
  <outline>
    <contour>
      <point x="30" y="345" type="line"/>
      <point x="64" y="323"/>
      <point x="97" y="312"/>
      <point x="133" y="312" type="curve" smooth="yes"/>
      <point x="230" y="312"/>
      <point x="291" y="372"/>
      <point x="291" y="444" type="curve" smooth="yes"/>
      <point x="291" y="475"/>
      <point x="272" y="503"/>
      <point x="233" y="516" type="curve"/>
      <point x="282" y="529"/>
      <point x="304" y="563"/>
      <point x="304" y="594" type="curve" smooth="yes"/>
      <point x="304" y="633"/>
      <point x="272" y="669"/>
      <point x="206" y="669" type="curve" smooth="yes"/>
      <point x="161" y="669"/>
      <point x="128" y="656"/>
      <point x="84" y="634" type="curve"/>
      <point x="113" y="566" type="line"/>
      <point x="148" y="585"/>
      <point x="171" y="599"/>
      <point x="194" y="599" type="curve" smooth="yes"/>
      <point x="206" y="599"/>
      <point x="212" y="592"/>
      <point x="212" y="585" type="curve" smooth="yes"/>
      <point x="212" y="545"/>
      <point x="158" y="544"/>
      <point x="101" y="526" type="curve"/>
      <point x="122" y="466" type="line"/>
      <point x="144" y="470"/>
      <point x="152" y="472"/>
      <point x="172" y="472" type="curve" smooth="yes"/>
      <point x="192" y="472"/>
      <point x="200" y="458"/>
      <point x="200" y="439" type="curve" smooth="yes"/>
      <point x="200" y="397"/>
      <point x="172" y="376"/>
      <point x="141" y="376" type="curve" smooth="yes"/>
      <point x="114" y="376"/>
      <point x="92" y="388"/>
      <point x="60" y="405" type="curve"/>
    </contour>
  </outline>
</glyph>
<glyph name="acute" format="1">
  <advance width="479"/>
  <unicode hex="00B4"/>
  <outline>
    <contour>
      <point x="159" y="498" type="move" name="_top"/>
    </contour>
    <contour>
      <point x="167" y="535" type="line"/>
      <point x="167" y="535"/>
      <point x="282" y="651"/>
      <point x="358" y="701" type="curve"/>
      <point x="346" y="736"/>
      <point x="296" y="770"/>
      <point x="296" y="770" type="curve"/>
      <point x="216" y="713"/>
      <point x="121" y="587"/>
      <point x="121" y="587" type="curve"/>
    </contour>
  </outline>
</glyph>
<glyph name="uni00B5" format="1">
  <advance width="561"/>
  <unicode hex="00B5"/>
  <outline>
    <contour>
      <point x="-15" y="-222" type="line"/>
      <point x="98" y="-202" type="line"/>
      <point x="124" y="-68" type="line" smooth="yes"/>
      <point x="134" y="-17"/>
      <point x="135" y="41"/>
      <point x="135" y="40" type="curve"/>
      <point x="147" y="11"/>
      <point x="180" y="-8"/>
      <point x="213" y="-8" type="curve" smooth="yes"/>
      <point x="293" y="-8"/>
      <point x="329" y="52"/>
      <point x="363" y="130" type="curve" smooth="yes"/>
      <point x="380" y="169" type="line"/>
      <point x="377" y="135"/>
      <point x="373" y="107"/>
      <point x="373" y="89" type="curve" smooth="yes"/>
      <point x="373" y="47"/>
      <point x="388" y="13"/>
      <point x="408" y="-10" type="curve"/>
      <point x="498" y="26" type="line"/>
      <point x="483" y="48"/>
      <point x="461" y="80"/>
      <point x="461" y="145" type="curve" smooth="yes"/>
      <point x="461" y="172"/>
      <point x="464" y="199"/>
      <point x="472" y="238" type="curve" smooth="yes"/>
      <point x="525" y="490" type="line"/>
      <point x="414" y="490" type="line"/>
      <point x="383" y="331" type="line" smooth="yes"/>
      <point x="362" y="221"/>
      <point x="289" y="82"/>
      <point x="218" y="82" type="curve" smooth="yes"/>
      <point x="194" y="82"/>
      <point x="167" y="99"/>
      <point x="167" y="144" type="curve" smooth="yes"/>
      <point x="167" y="152"/>
      <point x="168" y="160"/>
      <point x="170" y="170" type="curve" smooth="yes"/>
      <point x="232" y="490" type="line"/>
      <point x="122" y="490" type="line"/>
    </contour>
  </outline>
</glyph>
<glyph name="paragraph" format="1">
  <advance width="552"/>
  <unicode hex="00B6"/>
  <outline>
    <contour>
      <point x="325" y="669" type="line"/>
      <point x="164" y="662"/>
      <point x="60" y="565"/>
      <point x="60" y="411" type="curve" smooth="yes"/>
      <point x="60" y="314"/>
      <point x="121" y="255"/>
      <point x="247" y="255" type="curve"/>
    </contour>
    <contour>
      <point x="417" y="669" type="line"/>
      <point x="293" y="13" type="line" smooth="yes"/>
      <point x="277" y="-73"/>
      <point x="232" y="-107"/>
      <point x="145" y="-147" type="curve"/>
      <point x="184" y="-223" type="line"/>
      <point x="295" y="-167"/>
      <point x="381" y="-120"/>
      <point x="409" y="24" type="curve" smooth="yes"/>
      <point x="532" y="669" type="line"/>
    </contour>
  </outline>
</glyph>
<glyph name="periodcentered" format="1">
  <advance width="241"/>
  <unicode hex="00B7"/>
  <outline>
    <contour>
      <point x="127" y="395" type="curve" smooth="yes"/>
      <point x="76" y="395"/>
      <point x="45" y="356"/>
      <point x="45" y="311" type="curve" smooth="yes"/>
      <point x="45" y="270"/>
      <point x="67" y="241"/>
      <point x="114" y="241" type="curve" smooth="yes"/>
      <point x="164" y="241"/>
      <point x="196" y="280"/>
      <point x="196" y="325" type="curve" smooth="yes"/>
      <point x="196" y="368"/>
      <point x="173" y="395"/>
    </contour>
  </outline>
</glyph>
<glyph name="uni00B9" format="1">
  <advance width="262"/>
  <unicode hex="00B9"/>
  <outline>
    <contour>
      <point x="81" y="316" type="line"/>
      <point x="167" y="316" type="line"/>
      <point x="232" y="666" type="line"/>
      <point x="166" y="666" type="line"/>
      <point x="118" y="622"/>
      <point x="81" y="610"/>
      <point x="40" y="599" type="curve"/>
      <point x="69" y="533" type="line"/>
      <point x="86" y="538"/>
      <point x="107" y="551"/>
      <point x="128" y="567" type="curve"/>
    </contour>
  </outline>
</glyph>
<glyph name="ordmasculine" format="1">
  <advance width="416"/>
  <unicode hex="00BA"/>
  <outline>
    <contour>
      <point x="181" y="308" type="curve" smooth="yes"/>
      <point x="306" y="308"/>
      <point x="376" y="416"/>
      <point x="376" y="547" type="curve" smooth="yes"/>
      <point x="376" y="608"/>
      <point x="347" y="668"/>
      <point x="255" y="668" type="curve" smooth="yes"/>
      <point x="130" y="668"/>
      <point x="60" y="561"/>
      <point x="60" y="428" type="curve" smooth="yes"/>
      <point x="60" y="367"/>
      <point x="88" y="308"/>
    </contour>
    <contour>
      <point x="196" y="378" type="curve" smooth="yes"/>
      <point x="173" y="378"/>
      <point x="158" y="388"/>
      <point x="158" y="423" type="curve" smooth="yes"/>
      <point x="158" y="494"/>
      <point x="187" y="598"/>
      <point x="239" y="598" type="curve" smooth="yes"/>
      <point x="262" y="598"/>
      <point x="278" y="586"/>
      <point x="278" y="552" type="curve" smooth="yes"/>
      <point x="278" y="481"/>
      <point x="248" y="378"/>
    </contour>
  </outline>
</glyph>
<glyph name="guillemotright" format="1">
  <advance width="571"/>
  <unicode hex="00BB"/>
  <outline>
    <contour>
      <point x="301" y="416" type="line"/>
      <point x="329" y="369"/>
      <point x="374" y="295"/>
      <point x="405" y="245" type="curve"/>
      <point x="247" y="85" type="line"/>
      <point x="294" y="27" type="line"/>
      <point x="292" y="26"/>
      <point x="445" y="147"/>
      <point x="536" y="245" type="curve"/>
      <point x="476" y="343"/>
      <point x="361" y="463"/>
      <point x="361" y="463" type="curve"/>
    </contour>
    <contour>
      <point x="88" y="416" type="line"/>
      <point x="117" y="369"/>
      <point x="162" y="295"/>
      <point x="193" y="245" type="curve"/>
      <point x="36" y="85" type="line"/>
      <point x="82" y="27" type="line"/>
      <point x="81" y="26"/>
      <point x="234" y="147"/>
      <point x="324" y="245" type="curve"/>
      <point x="264" y="343"/>
      <point x="149" y="463"/>
      <point x="149" y="463" type="curve"/>
    </contour>
  </outline>
</glyph>
<glyph name="onequarter" format="1">
  <advance width="789"/>
  <unicode hex="00BC"/>
  <outline>
    <contour>
      <point x="115" y="0" type="line"/>
      <point x="214" y="0" type="line"/>
      <point x="590" y="587" type="line"/>
      <point x="490" y="587" type="line"/>
    </contour>
    <contour>
      <point x="122" y="235" type="line"/>
      <point x="208" y="235" type="line"/>
      <point x="273" y="585" type="line"/>
      <point x="207" y="585" type="line"/>
      <point x="159" y="541"/>
      <point x="122" y="529"/>
      <point x="81" y="518" type="curve"/>
      <point x="110" y="452" type="line"/>
      <point x="127" y="457"/>
      <point x="148" y="470"/>
      <point x="169" y="486" type="curve"/>
    </contour>
    <contour>
      <point x="683" y="275" type="line"/>
      <point x="610" y="259" type="line"/>
      <point x="579" y="160" type="line"/>
      <point x="512" y="160" type="line"/>
      <point x="626" y="351" type="line"/>
      <point x="531" y="351" type="line"/>
      <point x="412" y="139" type="line"/>
      <point x="412" y="84" type="line"/>
      <point x="562" y="84" type="line"/>
      <point x="545" y="0" type="line"/>
      <point x="632" y="0" type="line"/>
      <point x="647" y="84" type="line"/>
      <point x="687" y="84" type="line"/>
      <point x="703" y="160" type="line"/>
      <point x="661" y="160" type="line"/>
    </contour>
  </outline>
</glyph>
<glyph name="threequarters" format="1">
  <advance width="847"/>
  <unicode hex="00BE"/>
  <outline>
    <contour>
      <point x="232" y="589" type="curve" smooth="yes"/>
      <point x="186" y="589"/>
      <point x="154" y="576"/>
      <point x="110" y="554" type="curve"/>
      <point x="139" y="486" type="line"/>
      <point x="174" y="505"/>
      <point x="197" y="519"/>
      <point x="220" y="519" type="curve" smooth="yes"/>
      <point x="231" y="519"/>
      <point x="237" y="512"/>
      <point x="237" y="505" type="curve" smooth="yes"/>
      <point x="237" y="466"/>
      <point x="184" y="464"/>
      <point x="127" y="446" type="curve"/>
      <point x="148" y="387" type="line"/>
      <point x="170" y="391"/>
      <point x="178" y="392"/>
      <point x="198" y="392" type="curve" smooth="yes"/>
      <point x="217" y="392"/>
      <point x="225" y="378"/>
      <point x="225" y="359" type="curve" smooth="yes"/>
      <point x="225" y="318"/>
      <point x="198" y="297"/>
      <point x="167" y="297" type="curve" smooth="yes"/>
      <point x="140" y="297"/>
      <point x="118" y="309"/>
      <point x="86" y="326" type="curve"/>
      <point x="56" y="265" type="line"/>
      <point x="90" y="243"/>
      <point x="123" y="232"/>
      <point x="159" y="232" type="curve" smooth="yes"/>
      <point x="256" y="232"/>
      <point x="317" y="292"/>
      <point x="317" y="364" type="curve" smooth="yes"/>
      <point x="317" y="395"/>
      <point x="298" y="423"/>
      <point x="259" y="436" type="curve"/>
      <point x="308" y="449"/>
      <point x="330" y="483"/>
      <point x="330" y="514" type="curve" smooth="yes"/>
      <point x="330" y="554"/>
      <point x="298" y="589"/>
    </contour>
    <contour>
      <point x="172" y="0" type="line"/>
      <point x="272" y="0" type="line"/>
      <point x="648" y="587" type="line"/>
      <point x="547" y="587" type="line"/>
    </contour>
    <contour>
      <point x="740" y="275" type="line"/>
      <point x="668" y="259" type="line"/>
      <point x="637" y="160" type="line"/>
      <point x="569" y="160" type="line"/>
      <point x="683" y="351" type="line"/>
      <point x="589" y="351" type="line"/>
      <point x="470" y="139" type="line"/>
      <point x="470" y="84" type="line"/>
      <point x="619" y="84" type="line"/>
      <point x="603" y="0" type="line"/>
      <point x="689" y="0" type="line"/>
      <point x="704" y="84" type="line"/>
      <point x="744" y="84" type="line"/>
      <point x="760" y="160" type="line"/>
      <point x="718" y="160" type="line"/>
    </contour>
  </outline>
</glyph>
<glyph name="questiondown" format="1">
  <advance width="444"/>
  <unicode hex="00BF"/>
  <outline>
    <contour>
      <point x="158" y="-190" type="curve" smooth="yes"/>
      <point x="224" y="-190"/>
      <point x="284" y="-165"/>
      <point x="341" y="-140" type="curve"/>
      <point x="308" y="-61" type="line"/>
      <point x="267" y="-80"/>
      <point x="231" y="-103"/>
      <point x="189" y="-103" type="curve" smooth="yes"/>
      <point x="145" y="-103"/>
      <point x="122" y="-82"/>
      <point x="122" y="-39" type="curve" smooth="yes"/>
      <point x="122" y="41"/>
      <point x="299" y="139"/>
      <point x="325" y="277" type="curve"/>
      <point x="247" y="300" type="line"/>
      <point x="225" y="251"/>
      <point x="186" y="203"/>
      <point x="140" y="160" type="curve" smooth="yes"/>
      <point x="81" y="105"/>
      <point x="-4" y="54"/>
      <point x="-4" y="-58" type="curve" smooth="yes"/>
      <point x="-4" y="-140"/>
      <point x="53" y="-190"/>
    </contour>
    <contour>
      <point x="312" y="343" type="curve" smooth="yes"/>
      <point x="362" y="343"/>
      <point x="393" y="382"/>
      <point x="393" y="427" type="curve" smooth="yes"/>
      <point x="393" y="468"/>
      <point x="371" y="497"/>
      <point x="325" y="497" type="curve" smooth="yes"/>
      <point x="274" y="497"/>
      <point x="243" y="458"/>
      <point x="243" y="413" type="curve" smooth="yes"/>
      <point x="243" y="370"/>
      <point x="265" y="343"/>
    </contour>
  </outline>
</glyph>
<glyph name="Agrave" format="1">
  <advance width="570"/>
  <unicode hex="00C0"/>
  <outline>
    <contour>
      <point x="-40" y="19" type="line"/>
      <point x="75" y="-8" type="line"/>
      <point x="169" y="180" type="line"/>
      <point x="394" y="180" type="line"/>
      <point x="422" y="0" type="line"/>
      <point x="545" y="0" type="line"/>
      <point x="417" y="669" type="line"/>
      <point x="325" y="669" type="line"/>
    </contour>
    <contour>
      <point x="381" y="263" type="curve"/>
      <point x="210" y="263" type="line"/>
      <point x="266" y="374"/>
      <point x="317" y="471"/>
      <point x="347" y="529" type="curve"/>
      <point x="353" y="474"/>
      <point x="364" y="376"/>
    </contour>
    <contour>
      <point x="411" y="766" type="line"/>
      <point x="411" y="766"/>
      <point x="299" y="834"/>
      <point x="233" y="921" type="curve"/>
      <point x="189" y="888"/>
      <point x="172" y="843"/>
      <point x="172" y="843" type="curve"/>
      <point x="235" y="758"/>
      <point x="375" y="712"/>
      <point x="375" y="712" type="curve"/>
    </contour>
  </outline>
</glyph>
<glyph name="Aacute" format="1">
  <advance width="570"/>
  <unicode hex="00C1"/>
  <outline>
    <contour>
      <point x="-40" y="19" type="line"/>
      <point x="75" y="-8" type="line"/>
      <point x="169" y="180" type="line"/>
      <point x="394" y="180" type="line"/>
      <point x="422" y="0" type="line"/>
      <point x="545" y="0" type="line"/>
      <point x="417" y="669" type="line"/>
      <point x="325" y="669" type="line"/>
    </contour>
    <contour>
      <point x="381" y="263" type="curve"/>
      <point x="210" y="263" type="line"/>
      <point x="266" y="374"/>
      <point x="317" y="471"/>
      <point x="347" y="529" type="curve"/>
      <point x="353" y="474"/>
      <point x="364" y="376"/>
    </contour>
    <contour>
      <point x="365" y="713" type="line"/>
      <point x="365" y="713"/>
      <point x="500" y="807"/>
      <point x="584" y="842" type="curve"/>
      <point x="577" y="879"/>
      <point x="534" y="921"/>
      <point x="534" y="921" type="curve"/>
      <point x="445" y="879"/>
      <point x="330" y="771"/>
      <point x="330" y="771" type="curve"/>
    </contour>
  </outline>
</glyph>
<glyph name="Acircumflex" format="1">
  <advance width="570"/>
  <unicode hex="00C2"/>
  <outline>
    <contour>
      <point x="-40" y="19" type="line"/>
      <point x="75" y="-8" type="line"/>
      <point x="169" y="180" type="line"/>
      <point x="394" y="180" type="line"/>
      <point x="422" y="0" type="line"/>
      <point x="545" y="0" type="line"/>
      <point x="417" y="669" type="line"/>
      <point x="325" y="669" type="line"/>
    </contour>
    <contour>
      <point x="381" y="263" type="curve"/>
      <point x="210" y="263" type="line"/>
      <point x="266" y="374"/>
      <point x="317" y="471"/>
      <point x="347" y="529" type="curve"/>
      <point x="353" y="474"/>
      <point x="364" y="376"/>
    </contour>
    <contour>
      <point x="232" y="705" type="line"/>
      <point x="232" y="705"/>
      <point x="315" y="756"/>
      <point x="391" y="797" type="curve"/>
      <point x="456" y="738"/>
      <point x="534" y="703"/>
      <point x="534" y="703" type="curve"/>
      <point x="570" y="758" type="line"/>
      <point x="570" y="758"/>
      <point x="481" y="832"/>
      <point x="412" y="913" type="curve"/>
      <point x="322" y="871"/>
      <point x="197" y="763"/>
      <point x="197" y="763" type="curve"/>
    </contour>
  </outline>
</glyph>
<glyph name="Adieresis" format="1">
  <advance width="570"/>
  <unicode hex="00C4"/>
  <outline>
    <contour>
      <point x="-40" y="19" type="line"/>
      <point x="75" y="-8" type="line"/>
      <point x="169" y="180" type="line"/>
      <point x="394" y="180" type="line"/>
      <point x="422" y="0" type="line"/>
      <point x="545" y="0" type="line"/>
      <point x="417" y="669" type="line"/>
      <point x="325" y="669" type="line"/>
    </contour>
    <contour>
      <point x="381" y="263" type="curve"/>
      <point x="210" y="263" type="line"/>
      <point x="266" y="374"/>
      <point x="317" y="471"/>
      <point x="347" y="529" type="curve"/>
      <point x="353" y="474"/>
      <point x="364" y="376"/>
    </contour>
    <contour>
      <point x="306" y="860" type="curve" smooth="yes"/>
      <point x="265" y="860"/>
      <point x="241" y="828"/>
      <point x="241" y="792" type="curve" smooth="yes"/>
      <point x="241" y="759"/>
      <point x="257" y="735"/>
      <point x="296" y="735" type="curve" smooth="yes"/>
      <point x="337" y="735"/>
      <point x="362" y="766"/>
      <point x="362" y="801" type="curve" smooth="yes"/>
      <point x="362" y="837"/>
      <point x="345" y="860"/>
    </contour>
    <contour>
      <point x="495" y="860" type="curve" smooth="yes"/>
      <point x="454" y="860"/>
      <point x="430" y="828"/>
      <point x="430" y="792" type="curve" smooth="yes"/>
      <point x="430" y="759"/>
      <point x="446" y="735"/>
      <point x="485" y="735" type="curve" smooth="yes"/>
      <point x="526" y="735"/>
      <point x="551" y="766"/>
      <point x="551" y="801" type="curve" smooth="yes"/>
      <point x="551" y="837"/>
      <point x="534" y="860"/>
    </contour>
  </outline>
</glyph>
<glyph name="Ccedilla" format="1">
  <advance width="502"/>
  <unicode hex="00C7"/>
  <outline>
    <contour>
      <point x="528" y="578" type="line"/>
      <point x="519" y="631"/>
      <point x="485" y="682"/>
      <point x="393" y="682" type="curve" smooth="yes"/>
      <point x="157" y="682"/>
      <point x="40" y="449"/>
      <point x="40" y="208" type="curve" smooth="yes"/>
      <point x="40" y="77"/>
      <point x="96" y="-2"/>
      <point x="231" y="-12" type="curve"/>
      <point x="221" y="-29"/>
      <point x="215" y="-43"/>
      <point x="215" y="-54" type="curve" smooth="yes"/>
      <point x="215" y="-99"/>
      <point x="284" y="-93"/>
      <point x="284" y="-132" type="curve" smooth="yes"/>
      <point x="284" y="-151"/>
      <point x="261" y="-159"/>
      <point x="236" y="-159" type="curve" smooth="yes"/>
      <point x="207" y="-159"/>
      <point x="185" y="-147"/>
      <point x="169" y="-136" type="curve"/>
      <point x="140" y="-191" type="line"/>
      <point x="167" y="-209"/>
      <point x="202" y="-219"/>
      <point x="235" y="-219" type="curve" smooth="yes"/>
      <point x="298" y="-219"/>
      <point x="362" y="-194"/>
      <point x="362" y="-121" type="curve" smooth="yes"/>
      <point x="362" y="-68"/>
      <point x="288" y="-62"/>
      <point x="288" y="-33" type="curve" smooth="yes"/>
      <point x="288" y="-28"/>
      <point x="289" y="-20"/>
      <point x="293" y="-12" type="curve"/>
      <point x="358" y="-9"/>
      <point x="398" y="4"/>
      <point x="437" y="21" type="curve"/>
      <point x="419" y="97" type="line"/>
      <point x="377" y="82"/>
      <point x="353" y="74"/>
      <point x="294" y="74" type="curve" smooth="yes"/>
      <point x="198" y="74"/>
      <point x="168" y="139"/>
      <point x="168" y="226" type="curve" smooth="yes"/>
      <point x="168" y="377"/>
      <point x="231" y="595"/>
      <point x="374" y="595" type="curve" smooth="yes"/>
      <point x="419" y="595"/>
      <point x="433" y="563"/>
      <point x="439" y="538" type="curve"/>
    </contour>
  </outline>
</glyph>
<glyph name="Igrave" format="1">
  <advance width="276"/>
  <unicode hex="00CC"/>
  <outline>
    <contour>
      <point x="15" y="0" type="line"/>
      <point x="131" y="0" type="line"/>
      <point x="261" y="669" type="line"/>
      <point x="145" y="669" type="line"/>
    </contour>
    <contour>
      <point x="240" y="766" type="line"/>
      <point x="240" y="766"/>
      <point x="128" y="834"/>
      <point x="62" y="921" type="curve"/>
      <point x="18" y="888"/>
      <point x="1" y="843"/>
      <point x="1" y="843" type="curve"/>
      <point x="65" y="758"/>
      <point x="204" y="712"/>
      <point x="204" y="712" type="curve"/>
    </contour>
  </outline>
</glyph>
<glyph name="Iacute" format="1">
  <advance width="276"/>
  <unicode hex="00CD"/>
  <outline>
    <contour>
      <point x="15" y="0" type="line"/>
      <point x="131" y="0" type="line"/>
      <point x="261" y="669" type="line"/>
      <point x="145" y="669" type="line"/>
    </contour>
    <contour>
      <point x="195" y="713" type="line"/>
      <point x="195" y="713"/>
      <point x="329" y="807"/>
      <point x="413" y="842" type="curve"/>
      <point x="407" y="879"/>
      <point x="364" y="921"/>
      <point x="364" y="921" type="curve"/>
      <point x="275" y="879"/>
      <point x="159" y="771"/>
      <point x="159" y="771" type="curve"/>
    </contour>
  </outline>
</glyph>
<glyph name="Icircumflex" format="1">
  <advance width="276"/>
  <unicode hex="00CE"/>
  <outline>
    <contour>
      <point x="15" y="0" type="line"/>
      <point x="131" y="0" type="line"/>
      <point x="261" y="669" type="line"/>
      <point x="145" y="669" type="line"/>
    </contour>
    <contour>
      <point x="62" y="705" type="line"/>
      <point x="62" y="705"/>
      <point x="144" y="756"/>
      <point x="221" y="797" type="curve"/>
      <point x="285" y="738"/>
      <point x="363" y="703"/>
      <point x="363" y="703" type="curve"/>
      <point x="399" y="758" type="line"/>
      <point x="399" y="758"/>
      <point x="311" y="832"/>
      <point x="241" y="913" type="curve"/>
      <point x="152" y="871"/>
      <point x="26" y="763"/>
      <point x="26" y="763" type="curve"/>
    </contour>
  </outline>
</glyph>
<glyph name="Idieresis" format="1">
  <advance width="276"/>
  <unicode hex="00CF"/>
  <outline>
    <contour>
      <point x="15" y="0" type="line"/>
      <point x="131" y="0" type="line"/>
      <point x="261" y="669" type="line"/>
      <point x="145" y="669" type="line"/>
    </contour>
    <contour>
      <point x="135" y="860" type="curve" smooth="yes"/>
      <point x="95" y="860"/>
      <point x="70" y="828"/>
      <point x="70" y="792" type="curve" smooth="yes"/>
      <point x="70" y="759"/>
      <point x="87" y="735"/>
      <point x="125" y="735" type="curve" smooth="yes"/>
      <point x="166" y="735"/>
      <point x="192" y="766"/>
      <point x="192" y="801" type="curve" smooth="yes"/>
      <point x="192" y="837"/>
      <point x="174" y="860"/>
    </contour>
    <contour>
      <point x="324" y="860" type="curve" smooth="yes"/>
      <point x="284" y="860"/>
      <point x="259" y="828"/>
      <point x="259" y="792" type="curve" smooth="yes"/>
      <point x="259" y="759"/>
      <point x="276" y="735"/>
      <point x="314" y="735" type="curve" smooth="yes"/>
      <point x="355" y="735"/>
      <point x="381" y="766"/>
      <point x="381" y="801" type="curve" smooth="yes"/>
      <point x="381" y="837"/>
      <point x="363" y="860"/>
    </contour>
  </outline>
</glyph>
<glyph name="Eth" format="1">
  <advance width="647"/>
  <unicode hex="00D0"/>
  <outline>
    <contour>
      <point x="6" y="304" type="line"/>
      <point x="73" y="304" type="line"/>
      <point x="15" y="0" type="line"/>
      <point x="41" y="0" type="line" smooth="yes"/>
      <point x="44" y="0"/>
      <point x="117" y="-2"/>
      <point x="197" y="-2" type="curve" smooth="yes"/>
      <point x="508" y="-2"/>
      <point x="606" y="193"/>
      <point x="606" y="461" type="curve" smooth="yes"/>
      <point x="606" y="601"/>
      <point x="542" y="682"/>
      <point x="387" y="682" type="curve" smooth="yes"/>
      <point x="336" y="682"/>
      <point x="280" y="676"/>
      <point x="234" y="666" type="curve"/>
      <point x="145" y="673" type="line"/>
      <point x="90" y="391" type="line"/>
      <point x="23" y="391" type="line"/>
    </contour>
    <contour>
      <point x="353" y="595" type="curve" smooth="yes"/>
      <point x="449" y="595"/>
      <point x="479" y="531"/>
      <point x="479" y="444" type="curve" smooth="yes"/>
      <point x="479" y="262"/>
      <point x="416" y="88"/>
      <point x="217" y="88" type="curve" smooth="yes"/>
      <point x="147" y="88" type="line"/>
      <point x="189" y="304" type="line"/>
      <point x="364" y="304" type="line"/>
      <point x="380" y="391" type="line"/>
      <point x="206" y="391" type="line"/>
      <point x="243" y="581" type="line"/>
      <point x="274" y="591"/>
      <point x="309" y="595"/>
    </contour>
  </outline>
</glyph>
<glyph name="Ograve" format="1">
  <advance width="668"/>
  <unicode hex="00D2"/>
  <outline>
    <contour>
      <point x="408" y="682" type="curve" smooth="yes"/>
      <point x="157" y="682"/>
      <point x="40" y="449"/>
      <point x="40" y="208" type="curve" smooth="yes"/>
      <point x="40" y="68"/>
      <point x="105" y="-13"/>
      <point x="260" y="-13" type="curve" smooth="yes"/>
      <point x="511" y="-13"/>
      <point x="628" y="220"/>
      <point x="628" y="461" type="curve" smooth="yes"/>
      <point x="628" y="601"/>
      <point x="563" y="682"/>
    </contour>
    <contour>
      <point x="374" y="595" type="curve" smooth="yes"/>
      <point x="470" y="595"/>
      <point x="500" y="530"/>
      <point x="500" y="444" type="curve" smooth="yes"/>
      <point x="500" y="292"/>
      <point x="437" y="74"/>
      <point x="294" y="74" type="curve" smooth="yes"/>
      <point x="198" y="74"/>
      <point x="168" y="139"/>
      <point x="168" y="226" type="curve" smooth="yes"/>
      <point x="168" y="377"/>
      <point x="231" y="595"/>
    </contour>
    <contour>
      <point x="437" y="766" type="line"/>
      <point x="437" y="766"/>
      <point x="324" y="834"/>
      <point x="259" y="921" type="curve"/>
      <point x="214" y="888"/>
      <point x="198" y="843"/>
      <point x="198" y="843" type="curve"/>
      <point x="261" y="758"/>
      <point x="400" y="712"/>
      <point x="400" y="712" type="curve"/>
    </contour>
  </outline>
</glyph>
<glyph name="Oacute" format="1">
  <advance width="668"/>
  <unicode hex="00D3"/>
  <outline>
    <contour>
      <point x="408" y="682" type="curve" smooth="yes"/>
      <point x="157" y="682"/>
      <point x="40" y="449"/>
      <point x="40" y="208" type="curve" smooth="yes"/>
      <point x="40" y="68"/>
      <point x="105" y="-13"/>
      <point x="260" y="-13" type="curve" smooth="yes"/>
      <point x="511" y="-13"/>
      <point x="628" y="220"/>
      <point x="628" y="461" type="curve" smooth="yes"/>
      <point x="628" y="601"/>
      <point x="563" y="682"/>
    </contour>
    <contour>
      <point x="374" y="595" type="curve" smooth="yes"/>
      <point x="470" y="595"/>
      <point x="500" y="530"/>
      <point x="500" y="444" type="curve" smooth="yes"/>
      <point x="500" y="292"/>
      <point x="437" y="74"/>
      <point x="294" y="74" type="curve" smooth="yes"/>
      <point x="198" y="74"/>
      <point x="168" y="139"/>
      <point x="168" y="226" type="curve" smooth="yes"/>
      <point x="168" y="377"/>
      <point x="231" y="595"/>
    </contour>
    <contour>
      <point x="391" y="713" type="line"/>
      <point x="391" y="713"/>
      <point x="526" y="807"/>
      <point x="610" y="842" type="curve"/>
      <point x="603" y="879"/>
      <point x="560" y="921"/>
      <point x="560" y="921" type="curve"/>
      <point x="471" y="879"/>
      <point x="355" y="771"/>
      <point x="355" y="771" type="curve"/>
    </contour>
  </outline>
</glyph>
<glyph name="Ocircumflex" format="1">
  <advance width="668"/>
  <unicode hex="00D4"/>
  <outline>
    <contour>
      <point x="408" y="682" type="curve" smooth="yes"/>
      <point x="157" y="682"/>
      <point x="40" y="449"/>
      <point x="40" y="208" type="curve" smooth="yes"/>
      <point x="40" y="68"/>
      <point x="105" y="-13"/>
      <point x="260" y="-13" type="curve" smooth="yes"/>
      <point x="511" y="-13"/>
      <point x="628" y="220"/>
      <point x="628" y="461" type="curve" smooth="yes"/>
      <point x="628" y="601"/>
      <point x="563" y="682"/>
    </contour>
    <contour>
      <point x="374" y="595" type="curve" smooth="yes"/>
      <point x="470" y="595"/>
      <point x="500" y="530"/>
      <point x="500" y="444" type="curve" smooth="yes"/>
      <point x="500" y="292"/>
      <point x="437" y="74"/>
      <point x="294" y="74" type="curve" smooth="yes"/>
      <point x="198" y="74"/>
      <point x="168" y="139"/>
      <point x="168" y="226" type="curve" smooth="yes"/>
      <point x="168" y="377"/>
      <point x="231" y="595"/>
    </contour>
    <contour>
      <point x="258" y="705" type="line"/>
      <point x="258" y="705"/>
      <point x="341" y="756"/>
      <point x="417" y="797" type="curve"/>
      <point x="481" y="738"/>
      <point x="559" y="703"/>
      <point x="559" y="703" type="curve"/>
      <point x="596" y="758" type="line"/>
      <point x="596" y="758"/>
      <point x="507" y="832"/>
      <point x="438" y="913" type="curve"/>
      <point x="348" y="871"/>
      <point x="222" y="763"/>
      <point x="222" y="763" type="curve"/>
    </contour>
  </outline>
</glyph>
<glyph name="Otilde" format="1">
  <advance width="668"/>
  <unicode hex="00D5"/>
  <outline>
    <contour>
      <point x="408" y="682" type="curve" smooth="yes"/>
      <point x="157" y="682"/>
      <point x="40" y="449"/>
      <point x="40" y="208" type="curve" smooth="yes"/>
      <point x="40" y="68"/>
      <point x="105" y="-13"/>
      <point x="260" y="-13" type="curve" smooth="yes"/>
      <point x="511" y="-13"/>
      <point x="628" y="220"/>
      <point x="628" y="461" type="curve" smooth="yes"/>
      <point x="628" y="601"/>
      <point x="563" y="682"/>
    </contour>
    <contour>
      <point x="374" y="595" type="curve" smooth="yes"/>
      <point x="470" y="595"/>
      <point x="500" y="530"/>
      <point x="500" y="444" type="curve" smooth="yes"/>
      <point x="500" y="292"/>
      <point x="437" y="74"/>
      <point x="294" y="74" type="curve" smooth="yes"/>
      <point x="198" y="74"/>
      <point x="168" y="139"/>
      <point x="168" y="226" type="curve" smooth="yes"/>
      <point x="168" y="377"/>
      <point x="231" y="595"/>
    </contour>
    <contour>
      <point x="253" y="756" type="line"/>
      <point x="253" y="756"/>
      <point x="292" y="771"/>
      <point x="338" y="771" type="curve" smooth="yes"/>
      <point x="388" y="771"/>
      <point x="441" y="750"/>
      <point x="490" y="750" type="curve" smooth="yes"/>
      <point x="536" y="750"/>
      <point x="576" y="774"/>
      <point x="576" y="774" type="curve"/>
      <point x="591" y="854" type="line"/>
      <point x="591" y="854"/>
      <point x="553" y="839"/>
      <point x="507" y="839" type="curve" smooth="yes"/>
      <point x="457" y="839"/>
      <point x="404" y="860"/>
      <point x="355" y="860" type="curve" smooth="yes"/>
      <point x="308" y="860"/>
      <point x="269" y="836"/>
      <point x="269" y="836" type="curve"/>
    </contour>
  </outline>
</glyph>
<glyph name="Odieresis" format="1">
  <advance width="668"/>
  <unicode hex="00D6"/>
  <outline>
    <contour>
      <point x="408" y="682" type="curve" smooth="yes"/>
      <point x="157" y="682"/>
      <point x="40" y="449"/>
      <point x="40" y="208" type="curve" smooth="yes"/>
      <point x="40" y="68"/>
      <point x="105" y="-13"/>
      <point x="260" y="-13" type="curve" smooth="yes"/>
      <point x="511" y="-13"/>
      <point x="628" y="220"/>
      <point x="628" y="461" type="curve" smooth="yes"/>
      <point x="628" y="601"/>
      <point x="563" y="682"/>
    </contour>
    <contour>
      <point x="374" y="595" type="curve" smooth="yes"/>
      <point x="470" y="595"/>
      <point x="500" y="530"/>
      <point x="500" y="444" type="curve" smooth="yes"/>
      <point x="500" y="292"/>
      <point x="437" y="74"/>
      <point x="294" y="74" type="curve" smooth="yes"/>
      <point x="198" y="74"/>
      <point x="168" y="139"/>
      <point x="168" y="226" type="curve" smooth="yes"/>
      <point x="168" y="377"/>
      <point x="231" y="595"/>
    </contour>
    <contour>
      <point x="331" y="860" type="curve" smooth="yes"/>
      <point x="291" y="860"/>
      <point x="266" y="828"/>
      <point x="266" y="792" type="curve" smooth="yes"/>
      <point x="266" y="759"/>
      <point x="283" y="735"/>
      <point x="321" y="735" type="curve" smooth="yes"/>
      <point x="362" y="735"/>
      <point x="388" y="766"/>
      <point x="388" y="801" type="curve" smooth="yes"/>
      <point x="388" y="837"/>
      <point x="370" y="860"/>
    </contour>
    <contour>
      <point x="521" y="860" type="curve" smooth="yes"/>
      <point x="480" y="860"/>
      <point x="455" y="828"/>
      <point x="455" y="792" type="curve" smooth="yes"/>
      <point x="455" y="759"/>
      <point x="472" y="735"/>
      <point x="511" y="735" type="curve" smooth="yes"/>
      <point x="551" y="735"/>
      <point x="577" y="766"/>
      <point x="577" y="801" type="curve" smooth="yes"/>
      <point x="577" y="837"/>
      <point x="559" y="860"/>
    </contour>
  </outline>
</glyph>
<glyph name="multiply" format="1">
  <advance width="510"/>
  <unicode hex="00D7"/>
  <outline>
    <contour>
      <point x="419" y="492" type="line"/>
      <point x="268" y="361" type="line"/>
      <point x="167" y="490" type="line"/>
      <point x="94" y="430" type="line"/>
      <point x="197" y="300" type="line"/>
      <point x="40" y="165" type="line"/>
      <point x="92" y="99" type="line"/>
      <point x="249" y="233" type="line"/>
      <point x="353" y="101" type="line"/>
      <point x="426" y="160" type="line"/>
      <point x="320" y="295" type="line"/>
      <point x="470" y="426" type="line"/>
    </contour>
  </outline>
</glyph>
<glyph name="Oslash" format="1">
  <advance width="668"/>
  <unicode hex="00D8"/>
  <outline>
    <contour>
      <point x="408" y="682" type="curve" smooth="yes"/>
      <point x="157" y="682"/>
      <point x="40" y="449"/>
      <point x="40" y="208" type="curve" smooth="yes"/>
      <point x="40" y="131"/>
      <point x="59" y="72"/>
      <point x="102" y="35" type="curve"/>
      <point x="66" y="-27" type="line"/>
      <point x="151" y="-73" type="line"/>
      <point x="190" y="-6" type="line"/>
      <point x="211" y="-10"/>
      <point x="234" y="-13"/>
      <point x="260" y="-13" type="curve" smooth="yes"/>
      <point x="511" y="-13"/>
      <point x="628" y="220"/>
      <point x="628" y="461" type="curve" smooth="yes"/>
      <point x="628" y="537"/>
      <point x="608" y="596"/>
      <point x="566" y="634" type="curve"/>
      <point x="602" y="696" type="line"/>
      <point x="517" y="742" type="line"/>
      <point x="478" y="675" type="line"/>
      <point x="457" y="679"/>
      <point x="434" y="682"/>
    </contour>
    <contour>
      <point x="500" y="446" type="line" smooth="yes"/>
      <point x="501" y="293"/>
      <point x="437" y="72"/>
      <point x="294" y="72" type="curve" smooth="yes"/>
      <point x="271" y="72"/>
      <point x="254" y="73"/>
      <point x="238" y="76" type="curve"/>
      <point x="499" y="522" type="line"/>
    </contour>
    <contour>
      <point x="168" y="225" type="line" smooth="yes"/>
      <point x="168" y="377"/>
      <point x="231" y="597"/>
      <point x="374" y="597" type="curve" smooth="yes"/>
      <point x="395" y="597"/>
      <point x="414" y="596"/>
      <point x="430" y="593" type="curve"/>
      <point x="168" y="147" type="line"/>
    </contour>
  </outline>
</glyph>
<glyph name="Ugrave" format="1">
  <advance width="652"/>
  <unicode hex="00D9"/>
  <outline>
    <contour>
      <point x="134" y="669" type="line"/>
      <point x="53" y="250" type="line" smooth="yes"/>
      <point x="48" y="225"/>
      <point x="45" y="200"/>
      <point x="45" y="177" type="curve" smooth="yes"/>
      <point x="45" y="72"/>
      <point x="100" y="-8"/>
      <point x="250" y="-8" type="curve" smooth="yes"/>
      <point x="442" y="-8"/>
      <point x="529" y="111"/>
      <point x="556" y="250" type="curve" smooth="yes"/>
      <point x="637" y="669" type="line"/>
      <point x="521" y="669" type="line"/>
      <point x="441" y="259" type="line" smooth="yes"/>
      <point x="420" y="150"/>
      <point x="366" y="74"/>
      <point x="279" y="74" type="curve" smooth="yes"/>
      <point x="207" y="74"/>
      <point x="164" y="119"/>
      <point x="164" y="200" type="curve" smooth="yes"/>
      <point x="164" y="217"/>
      <point x="166" y="237"/>
      <point x="170" y="259" type="curve" smooth="yes"/>
      <point x="250" y="669" type="line"/>
    </contour>
    <contour>
      <point x="428" y="766" type="line"/>
      <point x="428" y="766"/>
      <point x="315" y="834"/>
      <point x="250" y="921" type="curve"/>
      <point x="205" y="888"/>
      <point x="189" y="843"/>
      <point x="189" y="843" type="curve"/>
      <point x="252" y="758"/>
      <point x="391" y="712"/>
      <point x="391" y="712" type="curve"/>
    </contour>
  </outline>
</glyph>
<glyph name="Uacute" format="1">
  <advance width="652"/>
  <unicode hex="00DA"/>
  <outline>
    <contour>
      <point x="134" y="669" type="line"/>
      <point x="53" y="250" type="line" smooth="yes"/>
      <point x="48" y="225"/>
      <point x="45" y="200"/>
      <point x="45" y="177" type="curve" smooth="yes"/>
      <point x="45" y="72"/>
      <point x="100" y="-8"/>
      <point x="250" y="-8" type="curve" smooth="yes"/>
      <point x="442" y="-8"/>
      <point x="529" y="111"/>
      <point x="556" y="250" type="curve" smooth="yes"/>
      <point x="637" y="669" type="line"/>
      <point x="521" y="669" type="line"/>
      <point x="441" y="259" type="line" smooth="yes"/>
      <point x="420" y="150"/>
      <point x="366" y="74"/>
      <point x="279" y="74" type="curve" smooth="yes"/>
      <point x="207" y="74"/>
      <point x="164" y="119"/>
      <point x="164" y="200" type="curve" smooth="yes"/>
      <point x="164" y="217"/>
      <point x="166" y="237"/>
      <point x="170" y="259" type="curve" smooth="yes"/>
      <point x="250" y="669" type="line"/>
    </contour>
    <contour>
      <point x="382" y="713" type="line"/>
      <point x="382" y="713"/>
      <point x="517" y="807"/>
      <point x="601" y="842" type="curve"/>
      <point x="594" y="879"/>
      <point x="551" y="921"/>
      <point x="551" y="921" type="curve"/>
      <point x="462" y="879"/>
      <point x="346" y="771"/>
      <point x="346" y="771" type="curve"/>
    </contour>
  </outline>
</glyph>
<glyph name="Ucircumflex" format="1">
  <advance width="652"/>
  <unicode hex="00DB"/>
  <outline>
    <contour>
      <point x="134" y="669" type="line"/>
      <point x="53" y="250" type="line" smooth="yes"/>
      <point x="48" y="225"/>
      <point x="45" y="200"/>
      <point x="45" y="177" type="curve" smooth="yes"/>
      <point x="45" y="72"/>
      <point x="100" y="-8"/>
      <point x="250" y="-8" type="curve" smooth="yes"/>
      <point x="442" y="-8"/>
      <point x="529" y="111"/>
      <point x="556" y="250" type="curve" smooth="yes"/>
      <point x="637" y="669" type="line"/>
      <point x="521" y="669" type="line"/>
      <point x="441" y="259" type="line" smooth="yes"/>
      <point x="420" y="150"/>
      <point x="366" y="74"/>
      <point x="279" y="74" type="curve" smooth="yes"/>
      <point x="207" y="74"/>
      <point x="164" y="119"/>
      <point x="164" y="200" type="curve" smooth="yes"/>
      <point x="164" y="217"/>
      <point x="166" y="237"/>
      <point x="170" y="259" type="curve" smooth="yes"/>
      <point x="250" y="669" type="line"/>
    </contour>
    <contour>
      <point x="249" y="705" type="line"/>
      <point x="249" y="705"/>
      <point x="332" y="756"/>
      <point x="408" y="797" type="curve"/>
      <point x="472" y="738"/>
      <point x="550" y="703"/>
      <point x="550" y="703" type="curve"/>
      <point x="587" y="758" type="line"/>
      <point x="587" y="758"/>
      <point x="498" y="832"/>
      <point x="429" y="913" type="curve"/>
      <point x="339" y="871"/>
      <point x="213" y="763"/>
      <point x="213" y="763" type="curve"/>
    </contour>
  </outline>
</glyph>
<glyph name="Udieresis" format="1">
  <advance width="652"/>
  <unicode hex="00DC"/>
  <outline>
    <contour>
      <point x="134" y="669" type="line"/>
      <point x="53" y="250" type="line" smooth="yes"/>
      <point x="48" y="225"/>
      <point x="45" y="200"/>
      <point x="45" y="177" type="curve" smooth="yes"/>
      <point x="45" y="72"/>
      <point x="100" y="-8"/>
      <point x="250" y="-8" type="curve" smooth="yes"/>
      <point x="442" y="-8"/>
      <point x="529" y="111"/>
      <point x="556" y="250" type="curve" smooth="yes"/>
      <point x="637" y="669" type="line"/>
      <point x="521" y="669" type="line"/>
      <point x="441" y="259" type="line" smooth="yes"/>
      <point x="420" y="150"/>
      <point x="366" y="74"/>
      <point x="279" y="74" type="curve" smooth="yes"/>
      <point x="207" y="74"/>
      <point x="164" y="119"/>
      <point x="164" y="200" type="curve" smooth="yes"/>
      <point x="164" y="217"/>
      <point x="166" y="237"/>
      <point x="170" y="259" type="curve" smooth="yes"/>
      <point x="250" y="669" type="line"/>
    </contour>
    <contour>
      <point x="322" y="860" type="curve" smooth="yes"/>
      <point x="282" y="860"/>
      <point x="257" y="828"/>
      <point x="257" y="792" type="curve" smooth="yes"/>
      <point x="257" y="759"/>
      <point x="274" y="735"/>
      <point x="312" y="735" type="curve" smooth="yes"/>
      <point x="353" y="735"/>
      <point x="379" y="766"/>
      <point x="379" y="801" type="curve" smooth="yes"/>
      <point x="379" y="837"/>
      <point x="361" y="860"/>
    </contour>
    <contour>
      <point x="512" y="860" type="curve" smooth="yes"/>
      <point x="471" y="860"/>
      <point x="446" y="828"/>
      <point x="446" y="792" type="curve" smooth="yes"/>
      <point x="446" y="759"/>
      <point x="463" y="735"/>
      <point x="502" y="735" type="curve" smooth="yes"/>
      <point x="542" y="735"/>
      <point x="568" y="766"/>
      <point x="568" y="801" type="curve" smooth="yes"/>
      <point x="568" y="837"/>
      <point x="550" y="860"/>
    </contour>
  </outline>
</glyph>
<glyph name="Yacute" format="1">
  <advance width="459"/>
  <unicode hex="00DD"/>
  <outline>
    <contour>
      <point x="230" y="0" type="line"/>
      <point x="230" y="38" type="line" smooth="yes"/>
      <point x="230" y="359"/>
      <point x="359" y="476"/>
      <point x="518" y="629" type="curve"/>
      <point x="448" y="685" type="line"/>
      <point x="376" y="636"/>
      <point x="281" y="546"/>
      <point x="224" y="410" type="curve"/>
      <point x="158" y="669" type="line"/>
      <point x="40" y="669" type="line"/>
      <point x="159" y="275" type="line"/>
      <point x="131" y="207"/>
      <point x="115" y="127"/>
      <point x="115" y="40" type="curve" smooth="yes"/>
      <point x="115" y="0" type="line"/>
    </contour>
    <contour>
      <point x="276" y="713" type="line"/>
      <point x="276" y="713"/>
      <point x="410" y="807"/>
      <point x="494" y="842" type="curve"/>
      <point x="488" y="879"/>
      <point x="445" y="921"/>
      <point x="445" y="921" type="curve"/>
      <point x="356" y="879"/>
      <point x="240" y="771"/>
      <point x="240" y="771" type="curve"/>
    </contour>
  </outline>
</glyph>
<glyph name="Thorn" format="1">
  <advance width="534"/>
  <unicode hex="00DE"/>
  <outline>
    <contour>
      <point x="15" y="0" type="line"/>
      <point x="130" y="0" type="line"/>
      <point x="156" y="137" type="line"/>
      <point x="173" y="137"/>
      <point x="193" y="137"/>
      <point x="214" y="137" type="curve" smooth="yes"/>
      <point x="391" y="137"/>
      <point x="513" y="236"/>
      <point x="513" y="394" type="curve" smooth="yes"/>
      <point x="513" y="490"/>
      <point x="451" y="551"/>
      <point x="314" y="551" type="curve" smooth="yes"/>
      <point x="293" y="551"/>
      <point x="263" y="549"/>
      <point x="232" y="546" type="curve"/>
      <point x="256" y="669" type="line"/>
      <point x="141" y="669" type="line"/>
    </contour>
    <contour>
      <point x="283" y="466" type="curve" smooth="yes"/>
      <point x="362" y="466"/>
      <point x="387" y="423"/>
      <point x="387" y="374" type="curve" smooth="yes"/>
      <point x="387" y="291"/>
      <point x="330" y="225"/>
      <point x="238" y="225" type="curve" smooth="yes"/>
      <point x="171" y="225" type="line"/>
      <point x="216" y="459" type="line"/>
      <point x="232" y="462"/>
      <point x="255" y="466"/>
    </contour>
  </outline>
</glyph>
<glyph name="germandbls" format="1">
  <advance width="531"/>
  <unicode hex="00DF"/>
  <outline>
    <contour>
      <point x="18" y="13" type="line" smooth="yes"/>
      <point x="2" y="-73"/>
      <point x="-43" y="-107"/>
      <point x="-130" y="-147" type="curve"/>
      <point x="-92" y="-223" type="line"/>
      <point x="20" y="-167"/>
      <point x="100" y="-120"/>
      <point x="128" y="24" type="curve" smooth="yes"/>
      <point x="219" y="486" type="line"/>
      <point x="235" y="567"/>
      <point x="267" y="639"/>
      <point x="345" y="639" type="curve" smooth="yes"/>
      <point x="382" y="639"/>
      <point x="414" y="624"/>
      <point x="414" y="584" type="curve" smooth="yes"/>
      <point x="414" y="504"/>
      <point x="266" y="486"/>
      <point x="266" y="354" type="curve" smooth="yes"/>
      <point x="266" y="247"/>
      <point x="370" y="236"/>
      <point x="370" y="160" type="curve" smooth="yes"/>
      <point x="370" y="114"/>
      <point x="344" y="79"/>
      <point x="291" y="79" type="curve" smooth="yes"/>
      <point x="261" y="79"/>
      <point x="228" y="89"/>
      <point x="203" y="105" type="curve"/>
      <point x="163" y="28" type="line"/>
      <point x="193" y="7"/>
      <point x="230" y="-7"/>
      <point x="274" y="-7" type="curve" smooth="yes"/>
      <point x="399" y="-7"/>
      <point x="486" y="79"/>
      <point x="486" y="193" type="curve" smooth="yes"/>
      <point x="486" y="300"/>
      <point x="375" y="319"/>
      <point x="375" y="389" type="curve" smooth="yes"/>
      <point x="375" y="461"/>
      <point x="526" y="480"/>
      <point x="526" y="611" type="curve" smooth="yes"/>
      <point x="526" y="673"/>
      <point x="483" y="721"/>
      <point x="379" y="721" type="curve" smooth="yes"/>
      <point x="206" y="721"/>
      <point x="132" y="608"/>
      <point x="107" y="479" type="curve" smooth="yes"/>
    </contour>
  </outline>
</glyph>
<glyph name="atilde" format="1">
  <advance width="528"/>
  <unicode hex="00E3"/>
  <outline>
    <contour>
      <point x="200" y="74" type="curve" smooth="yes"/>
      <point x="166" y="74"/>
      <point x="149" y="95"/>
      <point x="149" y="153" type="curve" smooth="yes"/>
      <point x="149" y="268"/>
      <point x="193" y="421"/>
      <point x="313" y="421" type="curve" smooth="yes"/>
      <point x="331" y="421"/>
      <point x="354" y="419"/>
      <point x="370" y="411" type="curve"/>
      <point x="356" y="342" type="line" smooth="yes"/>
      <point x="335" y="242"/>
      <point x="268" y="74"/>
    </contour>
    <contour>
      <point x="163" y="-8" type="curve" smooth="yes"/>
      <point x="233" y="-8"/>
      <point x="294" y="24"/>
      <point x="340" y="129" type="curve" smooth="yes"/>
      <point x="357" y="169" type="line"/>
      <point x="353" y="134"/>
      <point x="350" y="106"/>
      <point x="350" y="89" type="curve" smooth="yes"/>
      <point x="350" y="47"/>
      <point x="364" y="13"/>
      <point x="384" y="-10" type="curve"/>
      <point x="474" y="26" type="line"/>
      <point x="460" y="47"/>
      <point x="438" y="79"/>
      <point x="438" y="144" type="curve" smooth="yes"/>
      <point x="438" y="169"/>
      <point x="441" y="200"/>
      <point x="448" y="237" type="curve" smooth="yes"/>
      <point x="493" y="470" type="line"/>
      <point x="430" y="474" type="line"/>
      <point x="377" y="497"/>
      <point x="334" y="498"/>
      <point x="311" y="498" type="curve" smooth="yes"/>
      <point x="131" y="498"/>
      <point x="30" y="346"/>
      <point x="30" y="157" type="curve" smooth="yes"/>
      <point x="30" y="74"/>
      <point x="68" y="-8"/>
    </contour>
    <contour>
      <point x="492" y="680" type="line"/>
      <point x="492" y="680"/>
      <point x="456" y="666"/>
      <point x="412" y="666" type="curve" smooth="yes"/>
      <point x="366" y="666"/>
      <point x="314" y="686"/>
      <point x="267" y="686" type="curve" smooth="yes"/>
      <point x="223" y="686"/>
      <point x="187" y="663"/>
      <point x="187" y="663" type="curve"/>
      <point x="172" y="589" type="line"/>
      <point x="172" y="589"/>
      <point x="207" y="603"/>
      <point x="251" y="603" type="curve" smooth="yes"/>
      <point x="298" y="603"/>
      <point x="350" y="583"/>
      <point x="397" y="583" type="curve" smooth="yes"/>
      <point x="440" y="583"/>
      <point x="477" y="606"/>
      <point x="477" y="606" type="curve"/>
    </contour>
  </outline>
</glyph>
<glyph name="adieresis" format="1">
  <advance width="528"/>
  <unicode hex="00E4"/>
  <outline>
    <contour>
      <point x="200" y="74" type="curve" smooth="yes"/>
      <point x="166" y="74"/>
      <point x="149" y="95"/>
      <point x="149" y="153" type="curve" smooth="yes"/>
      <point x="149" y="268"/>
      <point x="193" y="421"/>
      <point x="313" y="421" type="curve" smooth="yes"/>
      <point x="331" y="421"/>
      <point x="354" y="419"/>
      <point x="370" y="411" type="curve"/>
      <point x="356" y="342" type="line" smooth="yes"/>
      <point x="335" y="242"/>
      <point x="268" y="74"/>
    </contour>
    <contour>
      <point x="163" y="-8" type="curve" smooth="yes"/>
      <point x="233" y="-8"/>
      <point x="294" y="24"/>
      <point x="340" y="129" type="curve" smooth="yes"/>
      <point x="357" y="169" type="line"/>
      <point x="353" y="134"/>
      <point x="350" y="106"/>
      <point x="350" y="89" type="curve" smooth="yes"/>
      <point x="350" y="47"/>
      <point x="364" y="13"/>
      <point x="384" y="-10" type="curve"/>
      <point x="474" y="26" type="line"/>
      <point x="460" y="47"/>
      <point x="438" y="79"/>
      <point x="438" y="144" type="curve" smooth="yes"/>
      <point x="438" y="169"/>
      <point x="441" y="200"/>
      <point x="448" y="237" type="curve" smooth="yes"/>
      <point x="493" y="470" type="line"/>
      <point x="430" y="474" type="line"/>
      <point x="377" y="497"/>
      <point x="334" y="498"/>
      <point x="311" y="498" type="curve" smooth="yes"/>
      <point x="131" y="498"/>
      <point x="30" y="346"/>
      <point x="30" y="157" type="curve" smooth="yes"/>
      <point x="30" y="74"/>
      <point x="68" y="-8"/>
    </contour>
    <contour>
      <point x="241" y="689" type="curve" smooth="yes"/>
      <point x="200" y="689"/>
      <point x="175" y="657"/>
      <point x="175" y="621" type="curve" smooth="yes"/>
      <point x="175" y="588"/>
      <point x="192" y="564"/>
      <point x="231" y="564" type="curve" smooth="yes"/>
      <point x="272" y="564"/>
      <point x="297" y="595"/>
      <point x="297" y="630" type="curve" smooth="yes"/>
      <point x="297" y="666"/>
      <point x="279" y="689"/>
    </contour>
    <contour>
      <point x="430" y="689" type="curve" smooth="yes"/>
      <point x="389" y="689"/>
      <point x="365" y="657"/>
      <point x="365" y="621" type="curve" smooth="yes"/>
      <point x="365" y="588"/>
      <point x="381" y="564"/>
      <point x="420" y="564" type="curve" smooth="yes"/>
      <point x="461" y="564"/>
      <point x="486" y="595"/>
      <point x="486" y="630" type="curve" smooth="yes"/>
      <point x="486" y="666"/>
      <point x="469" y="689"/>
    </contour>
  </outline>
</glyph>
<glyph name="aring" format="1">
  <advance width="520"/>
  <unicode hex="00E5"/>
  <outline>
    <contour>
      <point x="234" y="74" type="curve" smooth="yes"/>
      <point x="200" y="74"/>
      <point x="183" y="95"/>
      <point x="183" y="153" type="curve" smooth="yes"/>
      <point x="183" y="268"/>
      <point x="227" y="421"/>
      <point x="347" y="421" type="curve" smooth="yes"/>
      <point x="365" y="421"/>
      <point x="388" y="419"/>
      <point x="404" y="411" type="curve"/>
      <point x="390" y="342" type="line" smooth="yes"/>
      <point x="369" y="242"/>
      <point x="301" y="74"/>
    </contour>
    <contour>
      <point x="197" y="-8" type="curve" smooth="yes"/>
      <point x="267" y="-8"/>
      <point x="327" y="24"/>
      <point x="373" y="129" type="curve" smooth="yes"/>
      <point x="391" y="169" type="line"/>
      <point x="387" y="134"/>
      <point x="383" y="106"/>
      <point x="383" y="89" type="curve" smooth="yes"/>
      <point x="383" y="47"/>
      <point x="397" y="13"/>
      <point x="417" y="-10" type="curve"/>
      <point x="508" y="26" type="line"/>
      <point x="494" y="47"/>
      <point x="471" y="79"/>
      <point x="471" y="144" type="curve" smooth="yes"/>
      <point x="471" y="169"/>
      <point x="474" y="200"/>
      <point x="481" y="237" type="curve" smooth="yes"/>
      <point x="526" y="470" type="line"/>
      <point x="464" y="474" type="line"/>
      <point x="411" y="497"/>
      <point x="368" y="498"/>
      <point x="345" y="498" type="curve" smooth="yes"/>
      <point x="165" y="498"/>
      <point x="64" y="346"/>
      <point x="64" y="157" type="curve" smooth="yes"/>
      <point x="64" y="74"/>
      <point x="102" y="-8"/>
    </contour>
    <contour>
      <point x="395" y="694" type="curve" smooth="yes"/>
      <point x="417" y="694"/>
      <point x="430" y="679"/>
      <point x="430" y="658" type="curve" smooth="yes"/>
      <point x="430" y="622"/>
      <point x="407" y="593"/>
      <point x="376" y="593" type="curve" smooth="yes"/>
      <point x="355" y="593"/>
      <point x="342" y="608"/>
      <point x="342" y="629" type="curve" smooth="yes"/>
      <point x="342" y="662"/>
      <point x="362" y="694"/>
    </contour>
    <contour>
      <point x="365" y="543" type="curve" smooth="yes"/>
      <point x="436" y="543"/>
      <point x="484" y="603"/>
      <point x="484" y="667" type="curve" smooth="yes"/>
      <point x="484" y="712"/>
      <point x="454" y="744"/>
      <point x="406" y="744" type="curve" smooth="yes"/>
      <point x="336" y="744"/>
      <point x="288" y="684"/>
      <point x="288" y="620" type="curve" smooth="yes"/>
      <point x="288" y="575"/>
      <point x="318" y="543"/>
    </contour>
  </outline>
</glyph>
<glyph name="ccedilla" format="1">
  <advance width="407"/>
  <unicode hex="00E7"/>
  <outline>
    <contour>
      <point x="334" y="97" type="line"/>
      <point x="331" y="95"/>
      <point x="255" y="70"/>
      <point x="220" y="70" type="curve" smooth="yes"/>
      <point x="176" y="70"/>
      <point x="149" y="91"/>
      <point x="149" y="153" type="curve" smooth="yes"/>
      <point x="149" y="264"/>
      <point x="198" y="421"/>
      <point x="286" y="421" type="curve" smooth="yes"/>
      <point x="326" y="421"/>
      <point x="332" y="395"/>
      <point x="343" y="370" type="curve"/>
      <point x="426" y="406" type="line"/>
      <point x="414" y="453"/>
      <point x="385" y="502"/>
      <point x="309" y="502" type="curve" smooth="yes"/>
      <point x="130" y="502"/>
      <point x="30" y="344"/>
      <point x="30" y="156" type="curve" smooth="yes"/>
      <point x="30" y="75"/>
      <point x="66" y="-3"/>
      <point x="178" y="-10" type="curve"/>
      <point x="167" y="-28"/>
      <point x="161" y="-42"/>
      <point x="161" y="-54" type="curve" smooth="yes"/>
      <point x="161" y="-99"/>
      <point x="230" y="-93"/>
      <point x="230" y="-132" type="curve" smooth="yes"/>
      <point x="230" y="-151"/>
      <point x="207" y="-159"/>
      <point x="182" y="-159" type="curve" smooth="yes"/>
      <point x="154" y="-159"/>
      <point x="131" y="-147"/>
      <point x="115" y="-136" type="curve"/>
      <point x="86" y="-191" type="line"/>
      <point x="113" y="-209"/>
      <point x="148" y="-219"/>
      <point x="181" y="-219" type="curve" smooth="yes"/>
      <point x="244" y="-219"/>
      <point x="308" y="-194"/>
      <point x="308" y="-121" type="curve" smooth="yes"/>
      <point x="308" y="-68"/>
      <point x="234" y="-62"/>
      <point x="234" y="-33" type="curve" smooth="yes"/>
      <point x="234" y="-27"/>
      <point x="236" y="-17"/>
      <point x="241" y="-8" type="curve"/>
      <point x="304" y="1"/>
      <point x="354" y="23"/>
      <point x="358" y="25" type="curve"/>
    </contour>
  </outline>
</glyph>
<glyph name="egrave" format="1">
  <advance width="458"/>
  <unicode hex="00E8"/>
  <outline>
    <contour>
      <point x="30" y="156" type="curve" smooth="yes"/>
      <point x="30" y="71"/>
      <point x="71" y="-11"/>
      <point x="197" y="-11" type="curve" smooth="yes"/>
      <point x="294" y="-11"/>
      <point x="395" y="39"/>
      <point x="395" y="39" type="curve"/>
      <point x="372" y="111" type="line"/>
      <point x="372" y="111"/>
      <point x="272" y="70"/>
      <point x="220" y="70" type="curve" smooth="yes"/>
      <point x="176" y="70"/>
      <point x="147" y="91"/>
      <point x="147" y="153" type="curve" smooth="yes"/>
      <point x="147" y="164"/>
      <point x="147" y="176"/>
      <point x="148" y="188" type="curve"/>
      <point x="326" y="197"/>
      <point x="453" y="278"/>
      <point x="453" y="394" type="curve" smooth="yes"/>
      <point x="453" y="460"/>
      <point x="412" y="502"/>
      <point x="309" y="502" type="curve" smooth="yes"/>
      <point x="130" y="502"/>
      <point x="30" y="345"/>
    </contour>
    <contour>
      <point x="286" y="425" type="curve" smooth="yes"/>
      <point x="324" y="425"/>
      <point x="340" y="407"/>
      <point x="340" y="376" type="curve" smooth="yes"/>
      <point x="340" y="329"/>
      <point x="279" y="267"/>
      <point x="160" y="260" type="curve"/>
      <point x="181" y="346"/>
      <point x="224" y="425"/>
    </contour>
    <contour>
      <point x="351" y="585" type="line"/>
      <point x="351" y="585"/>
      <point x="256" y="675"/>
      <point x="212" y="774" type="curve"/>
      <point x="161" y="753"/>
      <point x="135" y="713"/>
      <point x="135" y="713" type="curve"/>
      <point x="178" y="616"/>
      <point x="303" y="540"/>
      <point x="303" y="540" type="curve"/>
    </contour>
  </outline>
</glyph>
<glyph name="edieresis" format="1">
  <advance width="458"/>
  <unicode hex="00EB"/>
  <outline>
    <contour>
      <point x="30" y="156" type="curve" smooth="yes"/>
      <point x="30" y="71"/>
      <point x="71" y="-11"/>
      <point x="197" y="-11" type="curve" smooth="yes"/>
      <point x="294" y="-11"/>
      <point x="395" y="39"/>
      <point x="395" y="39" type="curve"/>
      <point x="372" y="111" type="line"/>
      <point x="372" y="111"/>
      <point x="272" y="70"/>
      <point x="220" y="70" type="curve" smooth="yes"/>
      <point x="176" y="70"/>
      <point x="147" y="91"/>
      <point x="147" y="153" type="curve" smooth="yes"/>
      <point x="147" y="164"/>
      <point x="147" y="176"/>
      <point x="148" y="188" type="curve"/>
      <point x="326" y="197"/>
      <point x="453" y="278"/>
      <point x="453" y="394" type="curve" smooth="yes"/>
      <point x="453" y="460"/>
      <point x="412" y="502"/>
      <point x="309" y="502" type="curve" smooth="yes"/>
      <point x="130" y="502"/>
      <point x="30" y="345"/>
    </contour>
    <contour>
      <point x="286" y="425" type="curve" smooth="yes"/>
      <point x="324" y="425"/>
      <point x="340" y="407"/>
      <point x="340" y="376" type="curve" smooth="yes"/>
      <point x="340" y="329"/>
      <point x="279" y="267"/>
      <point x="160" y="260" type="curve"/>
      <point x="181" y="346"/>
      <point x="224" y="425"/>
    </contour>
    <contour>
      <point x="241" y="693" type="curve" smooth="yes"/>
      <point x="201" y="693"/>
      <point x="176" y="661"/>
      <point x="176" y="625" type="curve" smooth="yes"/>
      <point x="176" y="592"/>
      <point x="193" y="568"/>
      <point x="231" y="568" type="curve" smooth="yes"/>
      <point x="272" y="568"/>
      <point x="298" y="599"/>
      <point x="298" y="634" type="curve" smooth="yes"/>
      <point x="298" y="670"/>
      <point x="280" y="693"/>
    </contour>
    <contour>
      <point x="431" y="693" type="curve" smooth="yes"/>
      <point x="390" y="693"/>
      <point x="365" y="661"/>
      <point x="365" y="625" type="curve" smooth="yes"/>
      <point x="365" y="592"/>
      <point x="382" y="568"/>
      <point x="421" y="568" type="curve" smooth="yes"/>
      <point x="461" y="568"/>
      <point x="487" y="599"/>
      <point x="487" y="634" type="curve" smooth="yes"/>
      <point x="487" y="670"/>
      <point x="469" y="693"/>
    </contour>
  </outline>
</glyph>
<glyph name="igrave" format="1">
  <advance width="274"/>
  <unicode hex="00EC"/>
  <outline>
    <contour>
      <point x="128" y="-5" type="curve" smooth="yes"/>
      <point x="181" y="-5"/>
      <point x="218" y="13"/>
      <point x="218" y="13" type="curve"/>
      <point x="218" y="85" type="line"/>
      <point x="218" y="85"/>
      <point x="190" y="77"/>
      <point x="167" y="77" type="curve" smooth="yes"/>
      <point x="154" y="77"/>
      <point x="150" y="86"/>
      <point x="150" y="102" type="curve" smooth="yes"/>
      <point x="150" y="107"/>
      <point x="151" y="112"/>
      <point x="152" y="118" type="curve" smooth="yes"/>
      <point x="224" y="490" type="line"/>
      <point x="114" y="490" type="line"/>
      <point x="38" y="108" type="line" smooth="yes"/>
      <point x="36" y="98"/>
      <point x="35" y="88"/>
      <point x="35" y="79" type="curve" smooth="yes"/>
      <point x="35" y="28"/>
      <point x="69" y="-5"/>
    </contour>
    <contour>
      <point x="222" y="572" type="line"/>
      <point x="222" y="572"/>
      <point x="173" y="671"/>
      <point x="129" y="770" type="curve"/>
      <point x="78" y="749"/>
      <point x="47" y="720"/>
      <point x="47" y="720" type="curve"/>
      <point x="90" y="622"/>
      <point x="170" y="536"/>
      <point x="170" y="536" type="curve"/>
    </contour>
  </outline>
</glyph>
<glyph name="iacute" format="1">
  <advance width="274"/>
  <unicode hex="00ED"/>
  <outline>
    <contour>
      <point x="128" y="-5" type="curve" smooth="yes"/>
      <point x="181" y="-5"/>
      <point x="218" y="13"/>
      <point x="218" y="13" type="curve"/>
      <point x="218" y="85" type="line"/>
      <point x="218" y="85"/>
      <point x="190" y="77"/>
      <point x="167" y="77" type="curve" smooth="yes"/>
      <point x="154" y="77"/>
      <point x="150" y="86"/>
      <point x="150" y="102" type="curve" smooth="yes"/>
      <point x="150" y="107"/>
      <point x="151" y="112"/>
      <point x="152" y="118" type="curve" smooth="yes"/>
      <point x="224" y="490" type="line"/>
      <point x="114" y="490" type="line"/>
      <point x="38" y="108" type="line" smooth="yes"/>
      <point x="36" y="98"/>
      <point x="35" y="88"/>
      <point x="35" y="79" type="curve" smooth="yes"/>
      <point x="35" y="28"/>
      <point x="69" y="-5"/>
    </contour>
    <contour>
      <point x="175" y="535" type="line"/>
      <point x="175" y="535"/>
      <point x="269" y="657"/>
      <point x="335" y="708" type="curve"/>
      <point x="314" y="752"/>
      <point x="266" y="770"/>
      <point x="266" y="770" type="curve"/>
      <point x="181" y="703"/>
      <point x="122" y="572"/>
      <point x="122" y="572" type="curve"/>
    </contour>
  </outline>
</glyph>
<glyph name="idieresis" format="1">
  <advance width="274"/>
  <unicode hex="00EF"/>
  <outline>
    <contour>
      <point x="128" y="-5" type="curve" smooth="yes"/>
      <point x="181" y="-5"/>
      <point x="218" y="13"/>
      <point x="218" y="13" type="curve"/>
      <point x="218" y="85" type="line"/>
      <point x="218" y="85"/>
      <point x="190" y="77"/>
      <point x="167" y="77" type="curve" smooth="yes"/>
      <point x="154" y="77"/>
      <point x="150" y="86"/>
      <point x="150" y="102" type="curve" smooth="yes"/>
      <point x="150" y="107"/>
      <point x="151" y="112"/>
      <point x="152" y="118" type="curve" smooth="yes"/>
      <point x="224" y="490" type="line"/>
      <point x="114" y="490" type="line"/>
      <point x="38" y="108" type="line" smooth="yes"/>
      <point x="36" y="98"/>
      <point x="35" y="88"/>
      <point x="35" y="79" type="curve" smooth="yes"/>
      <point x="35" y="28"/>
      <point x="69" y="-5"/>
    </contour>
    <contour>
      <point x="121" y="701" type="curve" smooth="yes"/>
      <point x="83" y="701"/>
      <point x="61" y="671"/>
      <point x="61" y="640" type="curve" smooth="yes"/>
      <point x="61" y="607"/>
      <point x="76" y="585"/>
      <point x="113" y="585" type="curve" smooth="yes"/>
      <point x="151" y="585"/>
      <point x="175" y="615"/>
      <point x="175" y="647" type="curve" smooth="yes"/>
      <point x="175" y="681"/>
      <point x="158" y="701"/>
    </contour>
    <contour>
      <point x="286" y="701" type="curve" smooth="yes"/>
      <point x="249" y="701"/>
      <point x="225" y="671"/>
      <point x="225" y="640" type="curve" smooth="yes"/>
      <point x="225" y="607"/>
      <point x="242" y="585"/>
      <point x="279" y="585" type="curve" smooth="yes"/>
      <point x="315" y="585"/>
      <point x="340" y="615"/>
      <point x="340" y="647" type="curve" smooth="yes"/>
      <point x="340" y="681"/>
      <point x="323" y="701"/>
    </contour>
  </outline>
</glyph>
<glyph name="eth" format="1">
  <advance width="529"/>
  <unicode hex="00F0"/>
  <outline>
    <contour>
      <point x="485" y="381" type="curve" smooth="yes"/>
      <point x="485" y="450"/>
      <point x="474" y="524"/>
      <point x="451" y="578" type="curve"/>
      <point x="544" y="598" type="line"/>
      <point x="528" y="669" type="line"/>
      <point x="417" y="641" type="line"/>
      <point x="397" y="672"/>
      <point x="360" y="706"/>
      <point x="332" y="726" type="curve"/>
      <point x="265" y="663" type="line"/>
      <point x="315" y="616" type="line"/>
      <point x="226" y="594" type="line"/>
      <point x="244" y="523" type="line"/>
      <point x="359" y="556" type="line"/>
      <point x="370" y="533"/>
      <point x="383" y="503"/>
      <point x="390" y="476" type="curve"/>
      <point x="367" y="489"/>
      <point x="337" y="502"/>
      <point x="310" y="502" type="curve" smooth="yes"/>
      <point x="130" y="502"/>
      <point x="30" y="345"/>
      <point x="30" y="156" type="curve" smooth="yes"/>
      <point x="30" y="71"/>
      <point x="71" y="-11"/>
      <point x="197" y="-11" type="curve" smooth="yes"/>
      <point x="414" y="-11"/>
      <point x="485" y="214"/>
    </contour>
    <contour>
      <point x="286" y="425" type="curve" smooth="yes"/>
      <point x="330" y="425"/>
      <point x="357" y="404"/>
      <point x="357" y="342" type="curve" smooth="yes"/>
      <point x="357" y="232"/>
      <point x="308" y="66"/>
      <point x="220" y="66" type="curve" smooth="yes"/>
      <point x="176" y="66"/>
      <point x="149" y="87"/>
      <point x="149" y="149" type="curve" smooth="yes"/>
      <point x="149" y="260"/>
      <point x="198" y="425"/>
    </contour>
  </outline>
</glyph>
<glyph name="oacute" format="1">
  <advance width="506"/>
  <unicode hex="00F3"/>
  <outline>
    <contour>
      <point x="309" y="502" type="curve" smooth="yes"/>
      <point x="130" y="502"/>
      <point x="30" y="345"/>
      <point x="30" y="156" type="curve" smooth="yes"/>
      <point x="30" y="71"/>
      <point x="71" y="-11"/>
      <point x="197" y="-11" type="curve" smooth="yes"/>
      <point x="377" y="-11"/>
      <point x="476" y="144"/>
      <point x="476" y="335" type="curve" smooth="yes"/>
      <point x="476" y="420"/>
      <point x="436" y="502"/>
    </contour>
    <contour>
      <point x="286" y="425" type="curve" smooth="yes"/>
      <point x="330" y="425"/>
      <point x="357" y="404"/>
      <point x="357" y="342" type="curve" smooth="yes"/>
      <point x="357" y="232"/>
      <point x="308" y="66"/>
      <point x="220" y="66" type="curve" smooth="yes"/>
      <point x="176" y="66"/>
      <point x="149" y="87"/>
      <point x="149" y="149" type="curve" smooth="yes"/>
      <point x="149" y="260"/>
      <point x="198" y="425"/>
    </contour>
    <contour>
      <point x="316" y="539" type="line"/>
      <point x="316" y="539"/>
      <point x="432" y="655"/>
      <point x="508" y="705" type="curve"/>
      <point x="495" y="740"/>
      <point x="445" y="774"/>
      <point x="445" y="774" type="curve"/>
      <point x="365" y="717"/>
      <point x="271" y="591"/>
      <point x="271" y="591" type="curve"/>
    </contour>
  </outline>
</glyph>
<glyph name="otilde" format="1">
  <advance width="506"/>
  <unicode hex="00F5"/>
  <outline>
    <contour>
      <point x="309" y="502" type="curve" smooth="yes"/>
      <point x="130" y="502"/>
      <point x="30" y="345"/>
      <point x="30" y="156" type="curve" smooth="yes"/>
      <point x="30" y="71"/>
      <point x="71" y="-11"/>
      <point x="197" y="-11" type="curve" smooth="yes"/>
      <point x="377" y="-11"/>
      <point x="476" y="144"/>
      <point x="476" y="335" type="curve" smooth="yes"/>
      <point x="476" y="420"/>
      <point x="436" y="502"/>
    </contour>
    <contour>
      <point x="286" y="425" type="curve" smooth="yes"/>
      <point x="330" y="425"/>
      <point x="357" y="404"/>
      <point x="357" y="342" type="curve" smooth="yes"/>
      <point x="357" y="232"/>
      <point x="308" y="66"/>
      <point x="220" y="66" type="curve" smooth="yes"/>
      <point x="176" y="66"/>
      <point x="149" y="87"/>
      <point x="149" y="149" type="curve" smooth="yes"/>
      <point x="149" y="260"/>
      <point x="198" y="425"/>
    </contour>
    <contour>
      <point x="492" y="684" type="line"/>
      <point x="492" y="684"/>
      <point x="456" y="670"/>
      <point x="412" y="670" type="curve" smooth="yes"/>
      <point x="365" y="670"/>
      <point x="314" y="690"/>
      <point x="267" y="690" type="curve" smooth="yes"/>
      <point x="223" y="690"/>
      <point x="186" y="667"/>
      <point x="186" y="667" type="curve"/>
      <point x="172" y="593" type="line"/>
      <point x="172" y="593"/>
      <point x="207" y="607"/>
      <point x="251" y="607" type="curve" smooth="yes"/>
      <point x="298" y="607"/>
      <point x="349" y="587"/>
      <point x="396" y="587" type="curve" smooth="yes"/>
      <point x="440" y="587"/>
      <point x="477" y="610"/>
      <point x="477" y="610" type="curve"/>
    </contour>
  </outline>
</glyph>
<glyph name="odieresis" format="1">
  <advance width="506"/>
  <unicode hex="00F6"/>
  <outline>
    <contour>
      <point x="309" y="502" type="curve" smooth="yes"/>
      <point x="130" y="502"/>
      <point x="30" y="345"/>
      <point x="30" y="156" type="curve" smooth="yes"/>
      <point x="30" y="71"/>
      <point x="71" y="-11"/>
      <point x="197" y="-11" type="curve" smooth="yes"/>
      <point x="377" y="-11"/>
      <point x="476" y="144"/>
      <point x="476" y="335" type="curve" smooth="yes"/>
      <point x="476" y="420"/>
      <point x="436" y="502"/>
    </contour>
    <contour>
      <point x="286" y="425" type="curve" smooth="yes"/>
      <point x="330" y="425"/>
      <point x="357" y="404"/>
      <point x="357" y="342" type="curve" smooth="yes"/>
      <point x="357" y="232"/>
      <point x="308" y="66"/>
      <point x="220" y="66" type="curve" smooth="yes"/>
      <point x="176" y="66"/>
      <point x="149" y="87"/>
      <point x="149" y="149" type="curve" smooth="yes"/>
      <point x="149" y="260"/>
      <point x="198" y="425"/>
    </contour>
    <contour>
      <point x="240" y="693" type="curve" smooth="yes"/>
      <point x="200" y="693"/>
      <point x="175" y="661"/>
      <point x="175" y="625" type="curve" smooth="yes"/>
      <point x="175" y="592"/>
      <point x="192" y="568"/>
      <point x="230" y="568" type="curve" smooth="yes"/>
      <point x="271" y="568"/>
      <point x="297" y="599"/>
      <point x="297" y="634" type="curve" smooth="yes"/>
      <point x="297" y="670"/>
      <point x="279" y="693"/>
    </contour>
    <contour>
      <point x="430" y="693" type="curve" smooth="yes"/>
      <point x="389" y="693"/>
      <point x="364" y="661"/>
      <point x="364" y="625" type="curve" smooth="yes"/>
      <point x="364" y="592"/>
      <point x="381" y="568"/>
      <point x="420" y="568" type="curve" smooth="yes"/>
      <point x="460" y="568"/>
      <point x="486" y="599"/>
      <point x="486" y="634" type="curve" smooth="yes"/>
      <point x="486" y="670"/>
      <point x="468" y="693"/>
    </contour>
  </outline>
</glyph>
<glyph name="ucircumflex" format="1">
  <advance width="546"/>
  <unicode hex="00FB"/>
  <outline>
    <contour>
      <point x="101" y="403" type="curve" smooth="yes"/>
      <point x="101" y="309"/>
      <point x="35" y="219"/>
      <point x="35" y="114" type="curve" smooth="yes"/>
      <point x="35" y="40"/>
      <point x="74" y="-8"/>
      <point x="162" y="-8" type="curve" smooth="yes"/>
      <point x="242" y="-8"/>
      <point x="309" y="37"/>
      <point x="349" y="129" type="curve" smooth="yes"/>
      <point x="366" y="169" type="line"/>
      <point x="362" y="135"/>
      <point x="359" y="107"/>
      <point x="359" y="89" type="curve" smooth="yes"/>
      <point x="359" y="47"/>
      <point x="373" y="13"/>
      <point x="393" y="-10" type="curve"/>
      <point x="484" y="26" type="line"/>
      <point x="469" y="48"/>
      <point x="447" y="80"/>
      <point x="447" y="145" type="curve" smooth="yes"/>
      <point x="447" y="172"/>
      <point x="450" y="199"/>
      <point x="458" y="238" type="curve" smooth="yes"/>
      <point x="511" y="490" type="line"/>
      <point x="399" y="490" type="line"/>
      <point x="368" y="331" type="line"/>
      <point x="347" y="221"/>
      <point x="275" y="82"/>
      <point x="203" y="82" type="curve" smooth="yes"/>
      <point x="162" y="82"/>
      <point x="149" y="107"/>
      <point x="149" y="139" type="curve" smooth="yes"/>
      <point x="149" y="226"/>
      <point x="209" y="303"/>
      <point x="209" y="396" type="curve" smooth="yes"/>
      <point x="209" y="428"/>
      <point x="204" y="468"/>
      <point x="190" y="497" type="curve"/>
      <point x="95" y="473" type="line"/>
      <point x="99" y="459"/>
      <point x="101" y="430"/>
    </contour>
    <contour>
      <point x="210" y="543" type="line"/>
      <point x="210" y="543"/>
      <point x="272" y="592"/>
      <point x="333" y="640" type="curve"/>
      <point x="385" y="583"/>
      <point x="449" y="544"/>
      <point x="449" y="544" type="curve"/>
      <point x="497" y="589" type="line"/>
      <point x="497" y="589"/>
      <point x="417" y="690"/>
      <point x="359" y="778" type="curve"/>
      <point x="278" y="722"/>
      <point x="160" y="591"/>
      <point x="160" y="591" type="curve"/>
    </contour>
  </outline>
</glyph>
<glyph name="yacute" format="1">
  <advance width="546"/>
  <unicode hex="00FD"/>
  <outline>
    <contour>
      <point x="511" y="490" type="curve"/>
      <point x="399" y="490" type="line"/>
      <point x="368" y="331" type="line" smooth="yes"/>
      <point x="347" y="221"/>
      <point x="274" y="82"/>
      <point x="203" y="82" type="curve" smooth="yes"/>
      <point x="162" y="82"/>
      <point x="149" y="107"/>
      <point x="149" y="139" type="curve" smooth="yes"/>
      <point x="149" y="226"/>
      <point x="209" y="303"/>
      <point x="209" y="396" type="curve" smooth="yes"/>
      <point x="209" y="428"/>
      <point x="204" y="468"/>
      <point x="190" y="497" type="curve"/>
      <point x="95" y="473" type="line"/>
      <point x="98" y="459"/>
      <point x="100" y="430"/>
      <point x="100" y="403" type="curve" smooth="yes"/>
      <point x="100" y="309"/>
      <point x="35" y="219"/>
      <point x="35" y="114" type="curve" smooth="yes"/>
      <point x="35" y="40"/>
      <point x="74" y="-8"/>
      <point x="162" y="-8" type="curve" smooth="yes"/>
      <point x="242" y="-8"/>
      <point x="309" y="37"/>
      <point x="348" y="129" type="curve" smooth="yes"/>
      <point x="367" y="171" type="line"/>
      <point x="365" y="149"/>
      <point x="359" y="114"/>
      <point x="359" y="90" type="curve" smooth="yes"/>
      <point x="359" y="22"/>
      <point x="363" y="-4"/>
      <point x="363" y="-29" type="curve" smooth="yes"/>
      <point x="363" y="-86"/>
      <point x="326" y="-132"/>
      <point x="264" y="-132" type="curve" smooth="yes"/>
      <point x="203" y="-132"/>
      <point x="135" y="-99"/>
      <point x="84" y="-78" type="curve"/>
      <point x="45" y="-162" type="line"/>
      <point x="91" y="-184"/>
      <point x="173" y="-222"/>
      <point x="250" y="-222" type="curve" smooth="yes"/>
      <point x="379" y="-222"/>
      <point x="462" y="-174"/>
      <point x="462" y="-27" type="curve" smooth="yes"/>
      <point x="462" y="34"/>
      <point x="446" y="79"/>
      <point x="446" y="146" type="curve" smooth="yes"/>
      <point x="446" y="214"/>
      <point x="512" y="496"/>
    </contour>
    <contour>
      <point x="324" y="535" type="line"/>
      <point x="324" y="535"/>
      <point x="440" y="651"/>
      <point x="516" y="701" type="curve"/>
      <point x="503" y="736"/>
      <point x="454" y="770"/>
      <point x="454" y="770" type="curve"/>
      <point x="373" y="713"/>
      <point x="279" y="587"/>
      <point x="279" y="587" type="curve"/>
    </contour>
  </outline>
</glyph>
<glyph name="thorn" format="1">
  <advance width="525"/>
  <unicode hex="00FE"/>
  <outline>
    <contour>
      <point x="201" y="394" type="curve"/>
      <point x="218" y="446"/>
      <point x="239" y="515"/>
      <point x="247" y="556" type="curve" smooth="yes"/>
      <point x="278" y="725" type="line"/>
      <point x="165" y="705" type="line"/>
      <point x="-15" y="-222" type="line"/>
      <point x="98" y="-202" type="line"/>
      <point x="138" y="1" type="line"/>
      <point x="161" y="-4"/>
      <point x="187" y="-8"/>
      <point x="214" y="-8" type="curve" smooth="yes"/>
      <point x="394" y="-8"/>
      <point x="495" y="144"/>
      <point x="495" y="333" type="curve" smooth="yes"/>
      <point x="495" y="416"/>
      <point x="457" y="498"/>
      <point x="362" y="498" type="curve" smooth="yes"/>
      <point x="299" y="498"/>
      <point x="245" y="472"/>
    </contour>
    <contour>
      <point x="158" y="100" type="line" smooth="yes"/>
      <point x="195" y="255"/>
      <point x="257" y="416"/>
      <point x="325" y="416" type="curve" smooth="yes"/>
      <point x="359" y="416"/>
      <point x="376" y="395"/>
      <point x="376" y="337" type="curve" smooth="yes"/>
      <point x="376" y="222"/>
      <point x="331" y="69"/>
      <point x="212" y="69" type="curve" smooth="yes"/>
      <point x="195" y="69"/>
      <point x="173" y="72"/>
      <point x="153" y="79" type="curve"/>
    </contour>
  </outline>
</glyph>
<glyph name="ydieresis" format="1">
  <advance width="546"/>
  <unicode hex="00FF"/>
  <outline>
    <contour>
      <point x="511" y="490" type="curve"/>
      <point x="399" y="490" type="line"/>
      <point x="368" y="331" type="line" smooth="yes"/>
      <point x="347" y="221"/>
      <point x="274" y="82"/>
      <point x="203" y="82" type="curve" smooth="yes"/>
      <point x="162" y="82"/>
      <point x="149" y="107"/>
      <point x="149" y="139" type="curve" smooth="yes"/>
      <point x="149" y="226"/>
      <point x="209" y="303"/>
      <point x="209" y="396" type="curve" smooth="yes"/>
      <point x="209" y="428"/>
      <point x="204" y="468"/>
      <point x="190" y="497" type="curve"/>
      <point x="95" y="473" type="line"/>
      <point x="98" y="459"/>
      <point x="100" y="430"/>
      <point x="100" y="403" type="curve" smooth="yes"/>
      <point x="100" y="309"/>
      <point x="35" y="219"/>
      <point x="35" y="114" type="curve" smooth="yes"/>
      <point x="35" y="40"/>
      <point x="74" y="-8"/>
      <point x="162" y="-8" type="curve" smooth="yes"/>
      <point x="242" y="-8"/>
      <point x="309" y="37"/>
      <point x="348" y="129" type="curve" smooth="yes"/>
      <point x="367" y="171" type="line"/>
      <point x="365" y="149"/>
      <point x="359" y="114"/>
      <point x="359" y="90" type="curve" smooth="yes"/>
      <point x="359" y="22"/>
      <point x="363" y="-4"/>
      <point x="363" y="-29" type="curve" smooth="yes"/>
      <point x="363" y="-86"/>
      <point x="326" y="-132"/>
      <point x="264" y="-132" type="curve" smooth="yes"/>
      <point x="203" y="-132"/>
      <point x="135" y="-99"/>
      <point x="84" y="-78" type="curve"/>
      <point x="45" y="-162" type="line"/>
      <point x="91" y="-184"/>
      <point x="173" y="-222"/>
      <point x="250" y="-222" type="curve" smooth="yes"/>
      <point x="379" y="-222"/>
      <point x="462" y="-174"/>
      <point x="462" y="-27" type="curve" smooth="yes"/>
      <point x="462" y="34"/>
      <point x="446" y="79"/>
      <point x="446" y="146" type="curve" smooth="yes"/>
      <point x="446" y="214"/>
      <point x="512" y="496"/>
    </contour>
    <contour>
      <point x="249" y="689" type="curve" smooth="yes"/>
      <point x="208" y="689"/>
      <point x="183" y="657"/>
      <point x="183" y="621" type="curve" smooth="yes"/>
      <point x="183" y="588"/>
      <point x="200" y="564"/>
      <point x="239" y="564" type="curve" smooth="yes"/>
      <point x="279" y="564"/>
      <point x="305" y="595"/>
      <point x="305" y="630" type="curve" smooth="yes"/>
      <point x="305" y="666"/>
      <point x="287" y="689"/>
    </contour>
    <contour>
      <point x="438" y="689" type="curve" smooth="yes"/>
      <point x="397" y="689"/>
      <point x="372" y="657"/>
      <point x="372" y="621" type="curve" smooth="yes"/>
      <point x="372" y="588"/>
      <point x="389" y="564"/>
      <point x="428" y="564" type="curve" smooth="yes"/>
      <point x="468" y="564"/>
      <point x="494" y="595"/>
      <point x="494" y="630" type="curve" smooth="yes"/>
      <point x="494" y="666"/>
      <point x="476" y="689"/>
    </contour>
  </outline>
</glyph>
<glyph name="OE" format="1">
  <advance width="816"/>
  <unicode hex="0152"/>
  <outline>
    <contour>
      <point x="735" y="0" type="line"/>
      <point x="735" y="84" type="line"/>
      <point x="478" y="84" type="line"/>
      <point x="522" y="310" type="line"/>
      <point x="717" y="310" type="line"/>
      <point x="735" y="393" type="line"/>
      <point x="538" y="393" type="line"/>
      <point x="575" y="585" type="line"/>
      <point x="823" y="585" type="line"/>
      <point x="841" y="669" type="line"/>
      <point x="480" y="669" type="line"/>
      <point x="461" y="675"/>
      <point x="438" y="679"/>
      <point x="408" y="679" type="curve" smooth="yes"/>
      <point x="157" y="679"/>
      <point x="40" y="449"/>
      <point x="40" y="208" type="curve" smooth="yes"/>
      <point x="40" y="68"/>
      <point x="105" y="-13"/>
      <point x="260" y="-13" type="curve" smooth="yes"/>
      <point x="292" y="-13"/>
      <point x="322" y="-8"/>
      <point x="350" y="0" type="curve"/>
    </contour>
    <contour>
      <point x="294" y="74" type="curve" smooth="yes"/>
      <point x="198" y="74"/>
      <point x="168" y="139"/>
      <point x="168" y="226" type="curve" smooth="yes"/>
      <point x="168" y="377"/>
      <point x="231" y="595"/>
      <point x="374" y="595" type="curve" smooth="yes"/>
      <point x="400" y="595"/>
      <point x="430" y="591"/>
      <point x="461" y="586" type="curve"/>
      <point x="362" y="83" type="line"/>
      <point x="340" y="77"/>
      <point x="316" y="74"/>
    </contour>
  </outline>
</glyph>
<glyph name="Ydieresis" format="1">
  <advance width="459"/>
  <unicode hex="0178"/>
  <outline>
    <contour>
      <point x="230" y="0" type="line"/>
      <point x="230" y="38" type="line" smooth="yes"/>
      <point x="230" y="359"/>
      <point x="359" y="476"/>
      <point x="518" y="629" type="curve"/>
      <point x="448" y="685" type="line"/>
      <point x="376" y="636"/>
      <point x="281" y="546"/>
      <point x="224" y="410" type="curve"/>
      <point x="158" y="669" type="line"/>
      <point x="40" y="669" type="line"/>
      <point x="159" y="275" type="line"/>
      <point x="131" y="207"/>
      <point x="115" y="127"/>
      <point x="115" y="40" type="curve" smooth="yes"/>
      <point x="115" y="0" type="line"/>
    </contour>
    <contour>
      <point x="217" y="860" type="curve" smooth="yes"/>
      <point x="176" y="860"/>
      <point x="151" y="828"/>
      <point x="151" y="792" type="curve" smooth="yes"/>
      <point x="151" y="759"/>
      <point x="168" y="735"/>
      <point x="207" y="735" type="curve" smooth="yes"/>
      <point x="247" y="735"/>
      <point x="273" y="766"/>
      <point x="273" y="801" type="curve" smooth="yes"/>
      <point x="273" y="837"/>
      <point x="255" y="860"/>
    </contour>
    <contour>
      <point x="406" y="860" type="curve" smooth="yes"/>
      <point x="365" y="860"/>
      <point x="340" y="828"/>
      <point x="340" y="792" type="curve" smooth="yes"/>
      <point x="340" y="759"/>
      <point x="357" y="735"/>
      <point x="396" y="735" type="curve" smooth="yes"/>
      <point x="436" y="735"/>
      <point x="462" y="766"/>
      <point x="462" y="801" type="curve" smooth="yes"/>
      <point x="462" y="837"/>
      <point x="444" y="860"/>
    </contour>
  </outline>
</glyph>
<glyph name="circumflex" format="1">
  <advance width="479"/>
  <unicode hex="02C6"/>
  <outline>
    <contour>
      <point x="225" y="490" type="move" name="_top"/>
    </contour>
    <contour>
      <point x="118" y="535" type="line"/>
      <point x="118" y="535"/>
      <point x="181" y="584"/>
      <point x="242" y="632" type="curve"/>
      <point x="294" y="575"/>
      <point x="358" y="536"/>
      <point x="358" y="536" type="curve"/>
      <point x="406" y="581" type="line"/>
      <point x="406" y="581"/>
      <point x="325" y="682"/>
      <point x="267" y="770" type="curve"/>
      <point x="187" y="714"/>
      <point x="68" y="583"/>
      <point x="68" y="583" type="curve"/>
    </contour>
  </outline>
</glyph>
<glyph name="endash" format="1">
  <advance width="485"/>
  <unicode hex="2013"/>
  <outline>
    <contour>
      <point x="-16" y="278" type="line"/>
      <point x="469" y="278" type="line"/>
      <point x="485" y="360" type="line"/>
      <point x="0" y="360" type="line"/>
    </contour>
  </outline>
</glyph>
<glyph name="quoteleft" format="1">
  <advance width="249"/>
  <unicode hex="2018"/>
  <outline>
    <contour>
      <point x="202" y="516" type="curve" smooth="yes"/>
      <point x="202" y="561"/>
      <point x="219" y="616"/>
      <point x="292" y="665" type="curve"/>
      <point x="259" y="720" type="line"/>
      <point x="183" y="683"/>
      <point x="85" y="584"/>
      <point x="85" y="487" type="curve" smooth="yes"/>
      <point x="85" y="454"/>
      <point x="99" y="433"/>
      <point x="138" y="433" type="curve" smooth="yes"/>
      <point x="184" y="433"/>
      <point x="205" y="451"/>
      <point x="205" y="451" type="curve"/>
      <point x="203" y="468"/>
      <point x="202" y="491"/>
    </contour>
  </outline>
</glyph>
<glyph name="quoteright" format="1">
  <advance width="249"/>
  <unicode hex="2019"/>
  <outline>
    <contour>
      <point x="176" y="642" type="curve" smooth="yes"/>
      <point x="176" y="597"/>
      <point x="160" y="543"/>
      <point x="86" y="494" type="curve"/>
      <point x="119" y="439" type="line"/>
      <point x="196" y="475"/>
      <point x="294" y="575"/>
      <point x="294" y="672" type="curve" smooth="yes"/>
      <point x="294" y="705"/>
      <point x="279" y="726"/>
      <point x="241" y="726" type="curve" smooth="yes"/>
      <point x="195" y="726"/>
      <point x="173" y="708"/>
      <point x="173" y="708" type="curve"/>
      <point x="175" y="691"/>
      <point x="176" y="668"/>
    </contour>
  </outline>
</glyph>
<glyph name="quotesinglbase" format="1">
  <advance width="299"/>
  <unicode hex="201A"/>
  <outline>
    <contour>
      <point x="76" y="56" type="curve" smooth="yes"/>
      <point x="76" y="11"/>
      <point x="60" y="-43"/>
      <point x="-14" y="-92" type="curve"/>
      <point x="19" y="-147" type="line"/>
      <point x="96" y="-110"/>
      <point x="194" y="-11"/>
      <point x="194" y="86" type="curve" smooth="yes"/>
      <point x="194" y="119"/>
      <point x="179" y="140"/>
      <point x="141" y="140" type="curve" smooth="yes"/>
      <point x="95" y="140"/>
      <point x="73" y="122"/>
      <point x="73" y="122" type="curve"/>
      <point x="75" y="105"/>
      <point x="76" y="82"/>
    </contour>
  </outline>
</glyph>
<glyph name="quotedblleft" format="1">
  <advance width="443"/>
  <unicode hex="201C"/>
  <outline>
    <contour>
      <point x="202" y="516" type="curve" smooth="yes"/>
      <point x="202" y="561"/>
      <point x="219" y="616"/>
      <point x="292" y="665" type="curve"/>
      <point x="259" y="720" type="line"/>
      <point x="183" y="683"/>
      <point x="85" y="584"/>
      <point x="85" y="487" type="curve" smooth="yes"/>
      <point x="85" y="454"/>
      <point x="99" y="433"/>
      <point x="138" y="433" type="curve" smooth="yes"/>
      <point x="184" y="433"/>
      <point x="205" y="451"/>
      <point x="205" y="451" type="curve"/>
      <point x="203" y="468"/>
      <point x="202" y="491"/>
    </contour>
    <contour>
      <point x="396" y="516" type="curve" smooth="yes"/>
      <point x="396" y="561"/>
      <point x="412" y="616"/>
      <point x="486" y="665" type="curve"/>
      <point x="452" y="720" type="line"/>
      <point x="376" y="683"/>
      <point x="278" y="584"/>
      <point x="278" y="487" type="curve" smooth="yes"/>
      <point x="278" y="454"/>
      <point x="293" y="433"/>
      <point x="331" y="433" type="curve" smooth="yes"/>
      <point x="377" y="433"/>
      <point x="399" y="451"/>
      <point x="399" y="451" type="curve"/>
      <point x="397" y="468"/>
      <point x="396" y="491"/>
    </contour>
  </outline>
</glyph>
<glyph name="quotedblright" format="1">
  <advance width="443"/>
  <unicode hex="201D"/>
  <outline>
    <contour>
      <point x="175" y="642" type="curve" smooth="yes"/>
      <point x="175" y="597"/>
      <point x="159" y="543"/>
      <point x="85" y="494" type="curve"/>
      <point x="118" y="439" type="line"/>
      <point x="195" y="475"/>
      <point x="293" y="575"/>
      <point x="293" y="672" type="curve" smooth="yes"/>
      <point x="293" y="705"/>
      <point x="278" y="726"/>
      <point x="240" y="726" type="curve" smooth="yes"/>
      <point x="194" y="726"/>
      <point x="172" y="708"/>
      <point x="172" y="708" type="curve"/>
      <point x="174" y="691"/>
      <point x="175" y="668"/>
    </contour>
    <contour>
      <point x="368" y="642" type="curve" smooth="yes"/>
      <point x="368" y="597"/>
      <point x="352" y="543"/>
      <point x="278" y="494" type="curve"/>
      <point x="312" y="439" type="line"/>
      <point x="388" y="475"/>
      <point x="486" y="575"/>
      <point x="486" y="672" type="curve" smooth="yes"/>
      <point x="486" y="705"/>
      <point x="471" y="726"/>
      <point x="433" y="726" type="curve" smooth="yes"/>
      <point x="387" y="726"/>
      <point x="366" y="708"/>
      <point x="366" y="708" type="curve"/>
      <point x="368" y="691"/>
      <point x="368" y="668"/>
    </contour>
  </outline>
</glyph>
<glyph name="bullet" format="1">
  <advance width="297"/>
  <unicode hex="2022"/>
  <outline>
    <contour>
      <point x="153" y="418" type="curve" smooth="yes"/>
      <point x="83" y="418"/>
      <point x="41" y="365"/>
      <point x="41" y="302" type="curve" smooth="yes"/>
      <point x="41" y="245"/>
      <point x="71" y="207"/>
      <point x="134" y="207" type="curve" smooth="yes"/>
      <point x="205" y="207"/>
      <point x="248" y="260"/>
      <point x="248" y="321" type="curve" smooth="yes"/>
      <point x="248" y="381"/>
      <point x="217" y="418"/>
    </contour>
  </outline>
</glyph>
<glyph name="guilsinglright" format="1">
  <advance width="359"/>
  <unicode hex="203A"/>
  <outline>
    <contour>
      <point x="89" y="416" type="line"/>
      <point x="117" y="369"/>
      <point x="162" y="295"/>
      <point x="193" y="245" type="curve"/>
      <point x="36" y="85" type="line"/>
      <point x="82" y="27" type="line"/>
      <point x="81" y="26"/>
      <point x="234" y="147"/>
      <point x="325" y="245" type="curve"/>
      <point x="265" y="343"/>
      <point x="149" y="463"/>
      <point x="149" y="463" type="curve"/>
    </contour>
  </outline>
</glyph>
<glyph name="uni2074" format="1">
  <advance width="351"/>
  <unicode hex="2074"/>
  <outline>
    <contour>
      <point x="311" y="593" type="line"/>
      <point x="238" y="577" type="line"/>
      <point x="207" y="478" type="line"/>
      <point x="139" y="478" type="line"/>
      <point x="254" y="669" type="line"/>
      <point x="159" y="669" type="line"/>
      <point x="40" y="457" type="line"/>
      <point x="40" y="402" type="line"/>
      <point x="189" y="402" type="line"/>
      <point x="173" y="318" type="line"/>
      <point x="260" y="318" type="line"/>
      <point x="275" y="402" type="line"/>
      <point x="314" y="402" type="line"/>
      <point x="330" y="478" type="line"/>
      <point x="289" y="478" type="line"/>
    </contour>
  </outline>
</glyph>
<glyph name="minus" format="1">
  <advance width="444"/>
  <unicode hex="2212"/>
  <outline>
    <contour>
      <point x="97" y="258" type="line"/>
      <point x="425" y="258" type="line"/>
      <point x="437" y="345" type="line"/>
      <point x="111" y="345" type="line"/>
    </contour>
  </outline>
</glyph>
<glyph name="uni2215" format="1">
  <advance width="402"/>
  <unicode hex="2215"/>
  <outline>
    <contour>
      <point x="-120" y="-126" type="line"/>
      <point x="-7" y="-126" type="line"/>
      <point x="462" y="729" type="line"/>
      <point x="346" y="729" type="line"/>
    </contour>
  </outline>
</glyph>
